<?xml version="1.0" encoding="utf-8"?>
<!-- Generator: Adobe Illustrator 23.0.2, SVG Export Plug-In . SVG Version: 6.00 Build 0)  -->
<svg version="1.1" xmlns="http://www.w3.org/2000/svg" xmlns:xlink="http://www.w3.org/1999/xlink" x="0px" y="0px"
	 viewBox="0 0 697.3 498.9" style="enable-background:new 0 0 697.3 498.9;" xml:space="preserve">
<style type="text/css">
	.st0{fill:#1F1F1F;}
</style>
<g id="Layer_1">
</g>
<g id="Layer_4">
	<g>
		<g>
			<path class="st0" d="M137.8,100.7v-1.8c3.4-0.1,5.8-0.6,7.5-1.4c1.6-0.9,2.7-2.1,3.1-3.7c0.5-1.6,0.7-3.9,0.7-7.1V44.3l-11-2.4
				v-1.5l22.8-4.9v51.2c0,3.1,0.2,5.5,0.7,7.1c0.5,1.6,1.5,2.8,3.1,3.7c1.6,0.9,4.1,1.3,7.5,1.4v1.8H137.8z M165.9,0v23.5h-22.5V0
				H165.9z"/>
			<path class="st0" d="M222.7,100.7v-1.8c2.9-0.1,5.1-0.6,6.5-1.4c1.4-0.8,2.3-1.9,2.7-3.3c0.4-1.4,0.6-3.4,0.6-6.2V60.9
				c0-12.5-5-18.7-15.1-18.7c-5,0-9.8,1.4-14.5,4.1v42.2c0,2.6,0.2,4.6,0.6,5.9c0.4,1.3,1.3,2.3,2.7,3c1.4,0.7,3.5,1.2,6.5,1.4v1.8
				h-32.9v-1.8c3.4-0.1,5.8-0.6,7.5-1.4c1.6-0.9,2.7-2.1,3.1-3.7c0.5-1.6,0.7-3.9,0.7-7.1v-42l-11-2.4v-1.5l22.8-4.9v8.5
				c6.6-5.7,13.6-8.5,20.9-8.5c6.6,0,11.7,2,15.2,5.9c3.6,4,5.3,9.6,5.3,17.1v28.8c0,2.9,0.2,5.1,0.7,6.5c0.5,1.4,1.4,2.4,2.8,3.1
				c1.4,0.7,3.8,1.3,7,1.7v1.8H222.7z"/>
			<path class="st0" d="M302.5,96.6c-4.5,3.6-10.5,5.3-18.1,5.3c-7.1,0-12.8-1.1-17-3.4c-4.2-2.3-6.3-5.6-6.3-9.8
				c0-2.1,0.7-3.9,2-5.2c1.3-1.3,3-2,5.2-2c1,0,2.1,0.2,3.4,0.5l3.2,16.3c1.3,0.5,2.9,0.9,4.9,1.1c1.9,0.3,3.5,0.4,4.7,0.4
				c5.6,0,9.8-1.1,12.6-3.2c2.8-2.1,4.2-5,4.2-8.5c0-2.9-0.9-5.3-2.6-7.2c-1.7-1.8-4.5-3.5-8.2-5L276,70.1c-4.1-1.6-7.1-4-9.1-7
				c-2-3-3-6.3-3-9.7c0-5.2,2-9.4,5.9-12.6c4-3.2,9.1-4.9,15.5-4.9c5.9,0,10.8,1,14.8,3.1c4,2.1,5.9,5.1,5.9,8.9
				c0,1.7-0.5,3.3-1.6,4.6c-1.1,1.3-2.8,2-5.1,2c-0.9,0-2-0.2-3.2-0.5l-2.4-14.6c-1.7-0.9-4.5-1.4-8.4-1.4c-4.2,0-7.4,1-9.8,2.9
				c-2.4,1.9-3.6,4.5-3.6,7.8c0,2.9,0.8,5.3,2.4,7.1c1.6,1.8,4.1,3.3,7.5,4.6l11.1,4.1c5.8,2.3,9.9,5,12.5,8.1
				c2.5,3,3.8,6.7,3.8,10.8C309.2,88.6,306.9,93,302.5,96.6z"/>
			<path class="st0" d="M350.4,100.4c-2.4,1-5.1,1.4-8,1.4c-6,0-10.6-1.6-13.9-4.9c-3.3-3.2-4.9-7.7-4.9-13.3V39.9H315v-2.4
				c5.5-0.4,9.6-2.1,12.5-5.2c2.8-3,4.8-7.6,5.8-13.6h2.3v18h21.2v3.2h-21.2v45.2c0,4.2,0.9,7.3,2.7,9.3c1.8,2,4.8,3,8.8,3
				c3.4,0,6.5-1,9.4-2.9l1.1,1.5C355.2,98,352.8,99.5,350.4,100.4z"/>
			<path class="st0" d="M363.9,100.7v-1.8c3.4-0.1,5.8-0.6,7.5-1.4c1.6-0.9,2.7-2.1,3.1-3.7c0.5-1.6,0.7-3.9,0.7-7.1V44.3l-11-2.4
				v-1.5l22.8-4.9v51.2c0,3.1,0.2,5.5,0.7,7.1c0.5,1.6,1.5,2.8,3.1,3.7c1.6,0.9,4.1,1.3,7.5,1.4v1.8H363.9z M391.9,0v23.5h-22.5V0
				H391.9z"/>
			<path class="st0" d="M434.6,100.4c-2.4,1-5.1,1.4-8,1.4c-6,0-10.6-1.6-13.9-4.9c-3.3-3.2-4.9-7.7-4.9-13.3V39.9h-8.7v-2.4
				c5.5-0.4,9.6-2.1,12.5-5.2c2.8-3,4.8-7.6,5.8-13.6h2.3v18h21.2v3.2h-21.2v45.2c0,4.2,0.9,7.3,2.7,9.3c1.8,2,4.8,3,8.8,3
				c3.4,0,6.5-1,9.4-2.9l1.1,1.5C439.4,98,437,99.5,434.6,100.4z"/>
			<path class="st0" d="M511.8,88.8c0.6,1.7,1.6,3,3.3,3.9c1.6,0.9,4.1,1.3,7.3,1.4V96l-22.4,5.9l-0.6-9.7c-2.9,2.9-6.2,5.3-9.8,7.1
				c-3.6,1.8-7.4,2.7-11.3,2.7c-6.4,0-11.4-1.9-15.1-5.7c-3.7-3.8-5.5-9-5.5-15.6V42.5l-10.4-4.1v-1.5l22.2-1.4v42.6
				c0,11.6,5,17.4,14.9,17.4c5.3,0,10.2-1.8,14.6-5.3V42.5l-11-4.1v-1.5l22.8-1.4v46C511,84.6,511.3,87.1,511.8,88.8z"/>
			<path class="st0" d="M559.3,100.4c-2.4,1-5.1,1.4-8,1.4c-6,0-10.6-1.6-13.9-4.9c-3.3-3.2-4.9-7.7-4.9-13.3V39.9h-8.7v-2.4
				c5.5-0.4,9.6-2.1,12.5-5.2c2.8-3,4.8-7.6,5.8-13.6h2.3v18h21.2v3.2h-21.2v45.2c0,4.2,0.9,7.3,2.7,9.3c1.8,2,4.8,3,8.8,3
				c3.4,0,6.5-1,9.4-2.9l1.1,1.5C564.1,98,561.7,99.5,559.3,100.4z"/>
		</g>
		<g>
			<path class="st0" d="M25.6,217.6c0,3.4,0.3,5.9,1,7.6c0.7,1.7,2.1,3.1,4.3,4c2.2,1,5.6,1.5,10.2,1.8v2H0v-2
				c3.8-0.2,6.5-0.8,8.2-1.8c1.7-1,2.8-2.3,3.4-4c0.5-1.7,0.8-4.2,0.8-7.7v-70.5c0-3.5-0.3-6-0.8-7.6c-0.5-1.6-1.6-2.8-3.3-3.5
				c-1.7-0.7-4.4-1.2-8.3-1.5v-2h77.8l4.6,27.1h-2c-2.5-8-6.4-14.1-11.7-18.3c-5.3-4.2-12.5-6.2-21.6-6.2H25.6v44.8h12.2
				c4.3,0,7.6-0.4,10-1.1c2.4-0.8,4.2-2,5.4-3.7c1.2-1.7,2.1-4.2,2.7-7.3l0.6-3.4h1.8v33.5h-1.8l-0.8-3.5c-0.7-3.2-1.7-5.7-2.8-7.4
				c-1.2-1.7-2.9-2.8-5.2-3.5c-2.3-0.7-5.6-1-9.8-1H25.6V217.6z"/>
			<path class="st0" d="M121.5,186.9c-1.5-0.7-3.8-1.1-6.7-1.1h-3.2v31.8c0,3.4,0.3,5.9,0.9,7.6c0.6,1.7,1.9,3.1,3.9,4
				c2,1,5,1.5,9.2,1.8v2H86.1v-2c3.8-0.2,6.5-0.8,8.2-1.8c1.7-1,2.8-2.3,3.4-4c0.5-1.7,0.8-4.2,0.8-7.7v-70.5c0-3.5-0.3-6-0.8-7.6
				c-0.5-1.6-1.6-2.8-3.3-3.5c-1.7-0.7-4.4-1.2-8.3-1.5v-2h39.1c10.8,0,19.2,2.1,25.4,6.4c6.2,4.3,9.3,10.1,9.3,17.5
				c0,6-2,11.1-5.9,15.3c-3.9,4.2-9.9,7.8-17.9,10.9l30.3,38.2c2.8,3.6,5.5,6.3,7.8,8.1c2.4,1.9,5,3.1,7.8,3.6v1.2
				c-2.7,0.3-5.1,0.5-7.2,0.5c-4.6,0-8.5-0.7-11.7-2c-3.3-1.3-6.3-3.4-9.2-6.2c-2.9-2.8-6.5-7.1-10.9-12.8l-16.9-22.1
				C124.6,189,123.1,187.6,121.5,186.9z M120.2,183.2c17.8,0,26.7-7.9,26.7-23.8c0-7.8-2.2-13.8-6.6-18c-4.4-4.2-10-6.3-16.8-6.3
				h-11.7v48.1H120.2z"/>
			<path class="st0" d="M268.2,214c2.2,5.8,4.3,9.9,6.3,12.4c2,2.5,4.9,4,8.8,4.6v2h-33.7v-2c2.7-0.4,4.7-1,5.9-1.8
				c1.2-0.8,1.8-2,1.8-3.5c0-2.2-0.7-4.9-2-7.9l-9.3-24.2h-33.7l-5.9,16c-2.3,5.8-3.5,10.3-3.5,13.6c0,2.2,0.8,4,2.4,5.2
				c1.6,1.2,4.7,2.1,9.1,2.7v2h-28.3v-2c4-0.6,7-2.1,9-4.4c2-2.3,3.9-5.8,5.6-10.5l26.8-70.2l-6.2-13.4h14.2L268.2,214z M245.1,191
				l-15.8-41.4L213.5,191H245.1z"/>
			<path class="st0" d="M305.2,209.9c0,5.7,0.5,10,1.4,12.9c0.9,2.9,2.4,5,4.5,6.2c2.1,1.2,5,1.9,8.9,2.1v1.8h-31.4v-1.8
				c3.6-0.2,6.3-0.9,8.2-2.1c1.9-1.2,3.4-3.3,4.3-6.3c0.9-3,1.4-7.3,1.4-12.9v-62.3l-15.1-15.1H308l72.2,77.8v-54.7
				c0-5.7-0.5-10-1.4-12.9c-0.9-2.9-2.4-5-4.5-6.2c-2.1-1.2-5.1-1.9-8.9-2.2v-1.8h31.4v1.8c-3.6,0.3-6.3,1-8.2,2.2
				c-1.9,1.2-3.4,3.2-4.3,6.2c-0.9,2.9-1.4,7.3-1.4,12.9v78.6l-77.7-84.4V209.9z"/>
			<path class="st0" d="M470.2,228.4c-6,3.4-12.8,5.3-20.2,5.7l6.4,7.5l-34.3,28.2l-8.1-10.1l30.2-25.4c-8.3-0.5-15.9-3-22.8-7.4
				c-6.9-4.4-12.3-10.5-16.3-18.2c-4-7.7-6-16.5-6-26.2c0-9.3,2-17.9,6-25.7c4-7.8,9.6-14,16.9-18.6c7.3-4.6,15.6-6.9,25.1-6.9
				c6,0,11.5,0.8,16.6,2.3c5.1,1.5,9.1,3.7,12.1,6.6c3,2.9,4.5,6.2,4.5,10c0,2.7-0.8,5-2.4,6.7c-1.6,1.7-4,2.6-7.4,2.6
				c-1.3,0-2.8-0.2-4.6-0.5l-2.9-22.4c-3.8-1.8-8.6-2.7-14.6-2.7c-8.1,0-15.1,1.8-20.8,5.3c-5.7,3.5-10.1,8.3-13,14.4
				c-2.9,6.1-4.4,12.9-4.4,20.6c0,10.4,2,19.4,6.1,27.3c4.1,7.8,9.5,13.8,16.3,18c6.8,4.2,14.3,6.3,22.5,6.3c6.1,0,11.4-1,16.1-3
				c4.6-2,9.4-5.2,14.4-9.7l1.5,1.5C481.9,220.4,476.3,225,470.2,228.4z"/>
			<path class="st0" d="M567.3,214c2.2,5.8,4.3,9.9,6.3,12.4c2,2.5,4.9,4,8.8,4.6v2h-33.7v-2c2.7-0.4,4.7-1,5.9-1.8
				c1.2-0.8,1.8-2,1.8-3.5c0-2.2-0.7-4.9-2-7.9l-9.3-24.2h-33.7l-5.9,16c-2.3,5.8-3.5,10.3-3.5,13.6c0,2.2,0.8,4,2.4,5.2
				c1.6,1.2,4.7,2.1,9.1,2.7v2h-28.3v-2c4-0.6,7-2.1,9-4.4c2-2.3,3.9-5.8,5.6-10.5l26.8-70.2l-6.2-13.4h14.2L567.3,214z M544.2,191
				l-15.8-41.4L512.7,191H544.2z"/>
			<path class="st0" d="M614.1,225.2c0.5,1.7,1.6,3.1,3.4,4c1.8,1,4.5,1.5,8.3,1.8v2h-38.1v-2c3.8-0.2,6.5-0.8,8.2-1.8
				c1.7-1,2.8-2.3,3.4-4c0.5-1.7,0.8-4.2,0.8-7.7V147c0-3.4-0.3-5.8-0.8-7.4c-0.5-1.6-1.6-2.7-3.3-3.5c-1.7-0.8-4.4-1.3-8.3-1.6v-2
				h38.1v2c-3.9,0.3-6.7,0.8-8.4,1.6c-1.7,0.8-2.8,1.9-3.4,3.5c-0.5,1.6-0.8,4-0.8,7.4v70.7C613.3,221,613.6,223.5,614.1,225.2z"/>
			<path class="st0" d="M645.2,231.5c-4.9-1.8-8.6-4.3-11.1-7.4c-2.5-3.1-3.8-6.6-3.8-10.4c0-2.6,0.9-4.9,2.7-6.9c1.8-2,4.2-3,7.4-3
				c1.3,0,2.9,0.2,4.7,0.5l2.3,24.2c4.6,2.1,9.8,3.2,15.7,3.2c7.8,0,13.9-1.8,18.1-5.3c4.3-3.5,6.4-8.2,6.4-14.1
				c0-5-1.4-9.1-4.2-12.4c-2.8-3.3-7.1-6.3-12.9-8.9l-19.2-8.7c-5.7-2.4-10-5.7-12.9-9.9c-2.9-4.2-4.3-8.9-4.3-14.2
				c0-5.2,1.3-9.8,4-13.9c2.7-4.1,6.3-7.3,10.9-9.6c4.6-2.3,9.5-3.4,14.9-3.4c9,0,16.2,1.7,21.5,4.9c5.3,3.3,7.9,7.7,7.9,13.3
				c0,2.6-0.8,4.8-2.3,6.5c-1.5,1.7-3.9,2.5-7.2,2.5c-1.4,0-2.9-0.2-4.6-0.5l-2.7-21.9c-2.9-1.5-7.3-2.3-13.1-2.3
				c-5.9,0-10.8,1.8-14.6,5.3c-3.9,3.5-5.8,7.8-5.8,12.9c0,4.5,1.3,8.1,3.9,11c2.6,2.9,6.6,5.5,12.1,7.8l15.4,6.5
				c8,3.5,13.8,7.7,17.4,12.6c3.6,5,5.4,10.8,5.4,17.4c0,8.1-3.1,14.6-9.4,19.5s-14.7,7.3-25.3,7.3
				C655.8,234.2,650,233.3,645.2,231.5z"/>
		</g>
		<g>
			<path class="st0" d="M284.1,353.5c0.6,1.7,1.6,3,3.3,3.9c1.6,0.9,4.1,1.3,7.3,1.4v1.8l-22.4,5.9l-0.6-9.4
				c-6.6,6.3-13.8,9.4-21.5,9.4c-5.1,0-9.7-1.3-13.9-3.8c-4.2-2.5-7.4-6.2-9.8-11c-2.4-4.8-3.6-10.4-3.6-16.9c0-6.9,1.5-13,4.4-18.2
				c2.9-5.2,6.9-9.2,11.8-12c4.9-2.8,10.3-4.2,16.2-4.2c6.4,0,11.7,1.1,16,3.2v-37l-11-4.4v-1.5l22.8-1.4v86.8
				C283.3,349.3,283.6,351.7,284.1,353.5z M241,352c4.1,5.3,9.4,8,15.9,8c2.8,0,5.4-0.4,7.6-1.1c2.2-0.7,4.5-1.9,6.9-3.7v-33.2
				c0-6.5-1.5-11.3-4.5-14.5c-3-3.2-6.8-4.8-11.5-4.8c-6.2,0-11.2,2.4-14.9,7.2c-3.8,4.8-5.6,11.6-5.6,20.3
				C234.8,339.5,236.9,346.7,241,352z"/>
			<path class="st0" d="M311,330.2c0,9.4,2.3,16.9,6.9,22.5c4.6,5.5,10.8,8.3,18.7,8.3c6,0,11.7-1.4,17.1-4.1l0.8,1.5
				c-3.3,2.3-6.9,4.3-11,5.9c-4.1,1.6-8.4,2.4-12.9,2.4c-5.9,0-11.2-1.3-15.8-3.9c-4.7-2.6-8.4-6.3-11-11.2c-2.7-4.9-4-10.6-4-17.2
				c0-6.5,1.3-12.3,3.9-17.5c2.6-5.2,6.1-9.2,10.7-12c4.5-2.8,9.6-4.3,15.2-4.3c8.3,0,14.8,2.1,19.3,6.2c4.6,4.1,6.9,9.6,6.9,16.5
				v3.8h-44.3C311,327.9,311,328.9,311,330.2z M343.4,319.5c0-5.3-1.3-9.4-3.8-12.5c-2.5-3-6-4.6-10.4-4.6c-5.1,0-9.2,1.8-12.3,5.5
				c-3.1,3.7-5,9.1-5.7,16.3h32.1V319.5z"/>
		</g>
		<g>
			<path class="st0" d="M382.4,365.3v-1.8c3.4-0.1,5.8-0.6,7.5-1.4c1.6-0.9,2.7-2.1,3.1-3.7c0.5-1.6,0.7-3.9,0.7-7.1v-84.7l-11-4.4
				v-1.5l22.8-1.4v92c0,3.2,0.2,5.5,0.7,7.1c0.5,1.6,1.5,2.8,3.1,3.7c1.6,0.9,4.1,1.3,7.5,1.4v1.8H382.4z"/>
			<path class="st0" d="M451,364.7c-2.9,1.3-6.1,1.9-9.6,1.9c-5.2,0-9.4-1.4-12.7-4.3c-3.3-2.8-4.9-6.4-4.9-10.8
				c0-4.9,1.9-8.9,5.7-12c3.8-3.1,9.7-5.6,17.7-7.3l12.2-2.7v-13.9c0-4.1-1.1-7.3-3.4-9.6c-2.2-2.3-5.4-3.5-9.6-3.5
				c-3.1,0-6.1,0.7-9,2l0.8,13.7c-1.5,2.1-3.6,3.2-6.1,3.2c-1.8,0-3.3-0.6-4.3-1.7c-1-1.1-1.5-2.6-1.5-4.4c0-2,0.4-3.8,1.3-5.4
				c0.9-1.6,2.3-3.1,4.2-4.6c4-3.1,9-4.7,15.1-4.7c7.8,0,13.8,1.8,18,5.4s6.3,8.7,6.3,15.2v33.1c0,2.2,0.5,4,1.4,5.4
				c0.9,1.4,2.2,2.1,4,2.1c1.4,0,3.1-0.4,5-1.2v1.2c-1.9,1.6-3.9,2.9-5.9,3.7c-2,0.9-4.2,1.3-6.6,1.3c-5.5,0-8.7-2.6-9.6-7.8
				C456.8,361.4,453.9,363.4,451,364.7z M451.6,333.4c-6,1.5-10.3,3.7-12.9,6.5s-3.9,6.3-3.9,10.5c0,3.5,1,6.2,3,8.1
				c2,2,4.9,3,8.7,3c4.6,0,8.8-1.5,12.8-4.6v-25.6L451.6,333.4z"/>
		</g>
		<g>
			<path class="st0" d="M165.3,397.2l42.6,61.1l30.6-61.1h25.1v2c-3.9,0.3-6.7,0.8-8.4,1.6c-1.7,0.8-2.8,1.9-3.4,3.5
				c-0.5,1.6-0.8,4-0.8,7.4v70.7c0,3.4,0.3,5.9,0.8,7.6c0.5,1.7,1.6,3.1,3.4,4c1.8,1,4.5,1.5,8.3,1.8v2h-38.1v-2
				c3.8-0.2,6.5-0.8,8.2-1.8c1.7-1,2.8-2.3,3.4-4c0.5-1.7,0.8-4.2,0.8-7.7v-78.7l-35.6,71.3l-38.2-56v55.7c0,5.7,0.5,10,1.4,12.9
				c0.9,2.9,2.4,5,4.5,6.2c2.1,1.2,5,1.9,8.9,2.1v1.8h-31.4v-1.8c3.6-0.2,6.3-0.9,8.2-2.1c1.9-1.2,3.4-3.3,4.3-6.3
				c0.9-3,1.4-7.3,1.4-12.9v-58.9l-12.6-18.4H165.3z"/>
			<path class="st0" d="M291.6,492.1c-7.8-4.5-13.8-10.7-18-18.7s-6.4-16.8-6.4-26.7c0-10.8,2.3-20,6.9-27.7
				c4.6-7.7,10.6-13.5,18-17.4c7.4-3.9,15.2-5.8,23.4-5.8c9.8,0,18.6,2.3,26.3,6.8c7.7,4.5,13.7,10.7,18,18.6
				c4.3,7.9,6.4,16.7,6.4,26.6c0,10.8-2.3,20-6.8,27.7c-4.5,7.7-10.4,13.5-17.7,17.4c-7.3,3.9-15,5.9-23.2,5.9
				C308.3,498.9,299.4,496.6,291.6,492.1z M347.6,484c5.4-6.3,8.1-14.6,8.1-25c0-9.4-2.1-18.6-6.4-27.5
				c-4.3-8.9-10.1-16.1-17.4-21.6c-7.3-5.5-15.3-8.3-23.9-8.3c-9.5,0-17,3.2-22.5,9.6c-5.4,6.4-8.1,14.7-8.1,25
				c0,9.5,2.2,18.7,6.5,27.6c4.3,8.8,10.1,16,17.4,21.5c7.3,5.5,15.3,8.2,23.9,8.2C334.7,493.4,342.2,490.3,347.6,484z"/>
			<path class="st0" d="M378,493.9c1.7-1,2.8-2.3,3.4-4c0.5-1.7,0.8-4.2,0.8-7.7v-70.5c0-3.5-0.3-6-0.8-7.6
				c-0.5-1.6-1.6-2.8-3.3-3.5c-1.7-0.7-4.4-1.2-8.3-1.5v-2h38.1c10.8,0,20.5,1.7,29.2,5.1c8.7,3.4,15.6,8.8,20.8,16.2
				c5.2,7.4,7.8,16.8,7.8,28.2c0,11.1-2.5,20.4-7.5,28.1c-5,7.7-11.8,13.4-20.3,17.2c-8.5,3.8-18.1,5.7-28.6,5.7h-39.3v-2
				C373.6,495.5,376.3,494.9,378,493.9z M398.2,492.3c1.9,1.9,5.5,2.8,10.7,2.8c13.7,0,24.2-4,31.5-11.9c7.3-7.9,11-19.7,11-35.3
				c0-15.7-3.9-27.7-11.7-35.9c-7.8-8.2-18.8-12.3-32.9-12.3h-11.4v82.7C395.4,487.1,396.3,490.4,398.2,492.3z"/>
			<path class="st0" d="M545.6,497.7h-76.5v-2c3.8-0.2,6.5-0.8,8.2-1.8s2.8-2.3,3.4-4c0.5-1.7,0.8-4.2,0.8-7.7v-70.5
				c0-3.5-0.3-6-0.8-7.6c-0.5-1.6-1.6-2.8-3.3-3.5c-1.7-0.7-4.4-1.2-8.3-1.5v-2h74.8l3.2,25.3h-2c-2.6-7.9-6-13.7-10.2-17.3
				c-4.2-3.6-10-5.4-17.4-5.4h-22.8v44.8h13.7c4.3,0,7.6-0.4,10-1.1c2.4-0.8,4.2-2,5.4-3.7c1.2-1.7,2.1-4.2,2.7-7.3l0.6-3.4h1.8
				v33.5h-1.8l-0.8-3.5c-0.7-3.2-1.7-5.7-2.8-7.4c-1.2-1.7-2.9-2.8-5.2-3.5c-2.3-0.7-5.6-1-9.8-1h-13.9v35.3c0,4.7,0.8,7.9,2.4,9.8
				s4.6,2.8,9.2,2.8h10.7c8.2,0,14.9-1.8,20.1-5.3c5.2-3.5,9.5-9.1,12.9-16.8h2.3L545.6,497.7z"/>
		</g>
	</g>
</g>
</svg>
