<?xml version="1.0" encoding="utf-8"?>
<!-- Generator: Adobe Illustrator 18.1.0, SVG Export Plug-In . SVG Version: 6.00 Build 0)  -->
<svg version="1.1" id="Layer_1" xmlns="http://www.w3.org/2000/svg" xmlns:xlink="http://www.w3.org/1999/xlink" x="0px" y="0px"
	 viewBox="0 0 1009.6 210" enable-background="new 0 0 1009.6 210" xml:space="preserve">
<rect x="764.3" y="0" fill="#137BC0" width="242.7" height="98.2"/>
<polygon fill="#FFFFFF" points="788,9.5 814.4,9.5 830.6,64.3 830.8,64.3 841.9,9.5 861.9,9.5 845.1,88.5 818.8,88.5 802.3,33.8 
	802,33.8 791.1,88.5 771.1,88.5 "/>
<polygon fill="#FFFFFF" points="869.7,9.5 890.8,9.5 884.6,39.7 909.7,39.7 915.9,9.5 937.1,9.5 920.6,88.5 899.5,88.5 906.5,54.7 
	881.4,54.7 874.4,88.5 853.2,88.5 "/>
<g>
	<path fill="#FFFFFF" d="M992.8,27.4c-4.1-1.9-9.6-3.6-17.4-3.6c-8.4,0-15.2,1.2-15.2,7.6c0,11.2,30.7,7,30.7,31
		c0,21.9-20.3,27.5-38.6,27.5c-8.2,0-17.6-1.9-24.5-4.1l5-16.1c4.2,2.7,12.6,4.5,19.5,4.5c6.6,0,16.9-1.3,16.9-9.4
		c0-12.7-30.7-7.9-30.7-30.2c0-20.4,17.9-26.5,35.2-26.5c9.7,0,18.9,1,24.2,3.5L992.8,27.4z"/>
</g>
<polygon fill="#010202" points="12.1,133.7 23.7,133.7 18.8,157.1 42.2,157.1 47.1,133.7 58.7,133.7 46.6,191.6 35,191.6 
	40.3,166.2 16.9,166.2 11.6,191.6 0,191.6 "/>
<g>
	<path fill="#010202" d="M90.8,166c0.2-1,0.2-1.9,0.2-2.9c0-4.6-2.4-7.1-7-7.1c-6.9,0-9.9,4.1-12,10H90.8z M70.5,173.7
		c0,7.9,4.2,10.8,11.9,10.8c4.6,0,9-1.2,13.1-3.1l-1.4,8.8c-4.3,1.3-9,2.4-13.6,2.4c-12.3,0-20.6-6-20.6-18.6
		c0-13.3,10.3-26,24.3-26c10.5,0,17.5,5.4,17.5,16.2c0,3.2-0.4,6.4-1.1,9.5H70.5z"/>
	<path fill="#010202" d="M121.3,184.4c8.3,0,10.9-5.7,12.6-12.6H130c-5.4,0-14.3,0.9-14.3,8.1C115.7,182.9,118.5,184.4,121.3,184.4
		 M132.2,185H132c-3.8,4.8-7.6,7.5-13.8,7.5c-7.7,0-13.2-4.3-13.2-12.2c0-14.1,15.7-15.2,26.2-15.2h3.9c0.3-1.2,0.3-2.4,0.3-3.7
		c0-4.3-4.6-5.6-8.5-5.6c-4.9,0-9.6,1.2-14,3.3l1.6-8.9c4.7-1.7,9.5-2.6,14.5-2.6c8.5,0,16.6,3.1,16.6,13.2c0,5.7-4.2,22.5-5.2,30.5
		H131L132.2,185z"/>
</g>
<polygon fill="#010202" points="164.3,129.4 175.4,129.4 162.2,191.6 151.1,191.6 "/>
<g>
	<path fill="#010202" d="M178.6,148.9h8l1.9-8.8l11.9-3.9l-2.7,12.7h9.9l-1.7,8.1H196l-4.1,18.6c-0.2,1-0.5,2.5-0.5,4.1
		c0,2.6,1.7,4.1,4.2,4.1c2,0,4-0.4,5.4-1l-1.9,8.6c-1.9,0.4-4.1,1-6,1c-7.5,0-12.9-3-12.9-11.2c0-3.3,0.7-6.6,1.4-9.9l3.1-14.4h-8
		L178.6,148.9z"/>
	<path fill="#010202" d="M219.6,129.4h11.1l-5.3,23.6h0.2c3.1-2.8,7.3-5.1,12.1-5.1c8.4,0,13.9,5.2,13.9,13.7c0,3.2-0.8,6.6-1.4,9.3
		l-4.5,20.7h-11.1l4.1-20.1c0.6-2.9,1.2-5.8,1.2-9c0-3.6-2.5-6-6-6c-7.7,0-10.5,7.2-11.9,13.6l-4.6,21.5h-11.1L219.6,129.4z"/>
</g>
<polygon fill="#010202" points="293.1,133.7 327.1,133.7 325.4,142.8 302.8,142.8 299.8,157.1 320,157.1 318.2,166.2 297.9,166.2 
	294.5,182.4 317.3,182.4 315.3,191.6 280.9,191.6 "/>
<g>
	<path fill="#010202" d="M339.4,173.8c0,4.3,1.3,10.1,6.8,10.1c8.1,0,12.9-9.4,12.9-17.3c0-5-2.4-10.1-8-10.1
		C343.1,156.5,339.4,167.4,339.4,173.8 M378.9,129.4l-11.5,52.7c-0.7,3.7-1.3,7.3-1.6,9.5h-10.4l1.1-6.3h-0.2
		c-3.3,4.6-7.5,7.3-13.9,7.3c-10.1,0-14.7-8.5-14.7-17.7c0-12.8,7-26.9,21.5-26.9c5.5,0,9.7,2.1,13.2,6.1l5.4-24.5H378.9z"/>
	<path fill="#010202" d="M416.9,185.4c-0.5,2.6-0.9,4.8-1.1,6.1h-10.9l0.7-4.1h-0.2c-3.1,2.8-7.3,5.1-12.1,5.1
		c-8.4,0-13.9-5.2-13.9-13.7c0-3.2,0.8-6.6,1.4-9.3l4.5-20.7h11.1l-4.1,20.1c-0.6,2.9-1.2,5.8-1.2,9c0,3.6,2.5,6,6.1,6
		c7.7,0,10.5-7.2,11.9-13.6l4.6-21.5h11.1L416.9,185.4z"/>
	<path fill="#010202" d="M462.6,158.7c-2.2-1.4-5.1-2.2-8.1-2.2c-8.9,0-13.8,8.3-13.8,16.3c0,5.6,1.8,11.1,9.4,11.1
		c2.7,0,6.1-0.7,9-2.2l-1.2,8.8c-3.4,1.7-7,2-10.7,2c-11,0-18.2-7.4-18.2-18.4c0-14.9,9.9-26.3,25.2-26.3c4.1,0,8.1,0.7,11.1,1.7
		L462.6,158.7z"/>
	<path fill="#010202" d="M480.4,184.4c8.3,0,10.9-5.7,12.6-12.6h-3.9c-5.4,0-14.3,0.9-14.3,8.1C474.8,182.9,477.6,184.4,480.4,184.4
		 M491.2,185h-0.2c-3.8,4.8-7.6,7.5-13.8,7.5c-7.7,0-13.2-4.3-13.2-12.2c0-14.1,15.7-15.2,26.2-15.2h3.9c0.3-1.2,0.3-2.4,0.3-3.7
		c0-4.3-4.6-5.6-8.5-5.6c-4.9,0-9.6,1.2-14,3.3l1.6-8.9c4.7-1.7,9.5-2.6,14.5-2.6c8.5,0,16.6,3.1,16.6,13.2c0,5.7-4.2,22.5-5.2,30.5
		h-9.4L491.2,185z"/>
	<path fill="#010202" d="M514.6,148.9h8l1.9-8.8l11.9-3.9l-2.7,12.7h9.9L542,157H532l-4.1,18.6c-0.2,1-0.5,2.5-0.5,4.1
		c0,2.6,1.7,4.1,4.2,4.1c2,0,4-0.4,5.4-1l-1.9,8.6c-1.9,0.4-4.1,1-6,1c-7.5,0-12.9-3-12.9-11.2c0-3.3,0.7-6.6,1.4-9.9l3.1-14.4h-8
		L514.6,148.9z"/>
</g>
<path fill="#010202" d="M555.6,130.5h11.1l-2.3,10.6h-11.1L555.6,130.5z M551.6,148.9h11.1l-9.1,42.7h-11.1L551.6,148.9z"/>
<g>
	<path fill="#010202" d="M600.4,166.7c0-5.5-1.9-10.2-8.5-10.2c-8.8,0-13.2,9.7-13.2,17.4c0,5.6,2.3,10,8.7,10
		C596.1,183.9,600.4,174,600.4,166.7 M612,166.6c0,15-10.4,25.9-25.4,25.9c-12.1,0-19.4-7.5-19.4-19.5c0-14.3,10.9-25.2,25.3-25.2
		C603.9,147.9,612,154.8,612,166.6"/>
	<path fill="#010202" d="M624,155c0.5-2.6,0.9-4.8,1.1-6.1h10.9l-0.7,4.1h0.2c3.1-2.8,7.3-5.1,12.1-5.1c8.4,0,13.9,5.2,13.9,13.7
		c0,3.2-0.8,6.6-1.4,9.3l-4.5,20.7h-11.1l4.1-20.1c0.6-2.9,1.2-5.8,1.2-9c0-3.6-2.5-6-6-6c-7.7,0-10.5,7.2-11.9,13.6l-4.6,21.5
		h-11.1L624,155z"/>
</g>
<polygon fill="#010202" points="702.8,133.7 736.8,133.7 735.1,142.8 712.5,142.8 709.5,157.1 729.7,157.1 727.9,166.2 707.6,166.2 
	704.2,182.4 727.1,182.4 725.1,191.6 690.6,191.6 "/>
<g>
	<path fill="#010202" d="M743.7,155c0.5-2.6,0.9-4.8,1.1-6.1h10.9l-0.7,4.1h0.2c3.1-2.8,7.3-5.1,12.1-5.1c8.4,0,13.9,5.2,13.9,13.7
		c0,3.2-0.8,6.6-1.4,9.3l-4.5,20.7h-11.1l4.1-20.1c0.6-2.9,1.2-5.8,1.2-9c0-3.6-2.5-6-6.1-6c-7.7,0-10.5,7.2-11.9,13.6l-4.6,21.5
		h-11.1L743.7,155z"/>
	<path fill="#010202" d="M811.3,156.5c-8,0-11.5,10.5-11.5,16.9c0,5.1,2.1,9.5,7,9.5c8.9,0,12.5-9.4,12.5-17.5
		C819.3,160.5,816.4,156.5,811.3,156.5 M787.9,198c4.4,1.8,8.6,3.3,13.4,3.3c11.8,0,13.5-8.2,16.2-17.9h-0.2
		c-2.8,5.1-8.2,8.1-14.3,8.1c-10.4,0-14.8-8.7-14.8-18.1c0-12.8,7.8-25.6,21.6-25.6c5.6,0,10.4,2.7,13,7.2l1.2-6.2h10.7
		c-0.3,1.2-0.8,3.2-1.4,6l-6.8,32.1c-2.7,13.9-8.8,23-24.4,23c-5.8,0-11.6-0.8-17.1-2.9L787.9,198z"/>
</g>
<polygon fill="#010202" points="850.2,129.4 861.4,129.4 848.2,191.6 837.1,191.6 "/>
<g>
	<path fill="#010202" d="M876.3,184.4c8.3,0,10.9-5.7,12.6-12.6H885c-5.4,0-14.3,0.9-14.3,8.1C870.7,182.9,873.5,184.4,876.3,184.4
		 M887.2,185H887c-3.8,4.8-7.6,7.5-13.8,7.5c-7.7,0-13.2-4.3-13.2-12.2c0-14.1,15.7-15.2,26.2-15.2h3.9c0.3-1.2,0.3-2.4,0.3-3.7
		c0-4.3-4.6-5.6-8.5-5.6c-4.9,0-9.6,1.2-14,3.3l1.6-8.9c4.7-1.7,9.5-2.6,14.5-2.6c8.5,0,16.6,3.1,16.6,13.2c0,5.7-4.2,22.5-5.2,30.5
		H886L887.2,185z"/>
	<path fill="#010202" d="M914,155c0.5-2.6,0.9-4.8,1.1-6.1H926l-0.7,4.1h0.2c3.1-2.8,7.3-5.1,12.1-5.1c8.4,0,13.9,5.2,13.9,13.7
		c0,3.2-0.8,6.6-1.4,9.3l-4.5,20.7h-11.1l4.1-20.1c0.6-2.9,1.2-5.8,1.2-9c0-3.6-2.5-6-6-6c-7.7,0-10.5,7.2-11.9,13.6l-4.6,21.5
		h-11.1L914,155z"/>
	<path fill="#010202" d="M970.1,173.8c0,4.3,1.3,10.1,6.8,10.1c8.1,0,12.9-9.4,12.9-17.3c0-5-2.4-10.1-8-10.1
		C973.8,156.5,970.1,167.4,970.1,173.8 M1009.6,129.4l-11.5,52.7c-0.7,3.7-1.3,7.3-1.6,9.5h-10.4l1.1-6.3H987
		c-3.3,4.6-7.5,7.3-13.9,7.3c-10.1,0-14.7-8.5-14.7-17.7c0-12.8,7-26.9,21.5-26.9c5.5,0,9.7,2.1,13.2,6.1l5.4-24.5H1009.6z"/>
</g>
</svg>
