<svg width="163" height="48" viewBox="0 0 163 48" fill="none" xmlns="http://www.w3.org/2000/svg">
<path fill-rule="evenodd" clip-rule="evenodd" d="M30.1748 48H60.2329C60.8154 47.5286 61.3398 47.0571 61.8647 46.5857L61.8765 46.5753C67.5195 41.143 67.5195 33.8274 67.5195 28.1778V2.03006H52.2124V32.7409C52.2124 34.8415 52.1421 37.0144 50.3784 38.7527C49.5322 39.6219 47.9805 40.4911 45.582 40.4911C43.748 40.4911 41.9141 39.9841 40.7148 38.6803C39.022 37.0144 38.9512 34.8415 38.9512 32.7409V2.03006H23.7148V31.2923L23.7275 31.7613C23.8604 36.7682 24.0015 42.0826 28.6523 46.6478C29.084 47.1537 29.6226 47.6045 30.1748 48ZM82.7666 48H113.606C114.646 47.2494 115.626 46.4317 116.544 45.4889C118.872 43.0986 120.071 40.9257 121.271 38.5355L108.362 32.1615L108.352 32.1919C107.772 33.9035 105.639 40.2014 98.6274 40.2014C91.1504 40.2014 88.4697 33.3204 88.4697 26.0048C88.4697 24.0492 88.4697 18.472 92.0674 14.9228C93.1255 13.9088 95.2417 12.3153 98.5566 12.3153C104.976 12.3153 107.304 17.5304 108.503 20.4276L121.2 13.9812C120.142 12.0256 119.225 10.3596 117.179 8.18671C112.171 2.89923 105.188 0.219269 97.9219 0.219269C81.6978 0.219269 73.0215 13.6915 73.0215 26.874C73.0215 34.7897 76.1543 43.0629 82.7666 48ZM127.337 48V2.03006H142.503V38.3182H162.183V48H127.337Z" fill="white"/>
<path d="M16.4481 10.2008L8.47322 8.4686L0.427154 10.2008C0.35595 10.2008 0.427154 10.273 0.427154 10.273L0.569566 10.706C0.569566 10.706 0.711971 10.706 0.783175 10.7782L0.925586 11.4278C0.925586 11.4278 0.925585 11.5 0.996789 11.5C1.06799 11.5 1.28161 11.5 1.28161 11.5H15.6648H15.9497C16.0209 11.5 16.0209 11.5 16.0209 11.5L16.1633 10.8504C16.2345 10.706 16.3769 10.706 16.3769 10.706L16.4481 10.2008Z" fill="black"/>
<path d="M15.5938 11.6444V11.4278H14.3833V11.6444H14.4545C14.4545 11.6444 14.4545 11.6444 14.4545 11.7165C14.4545 11.7165 14.4545 11.9331 14.5969 12.0052V12.0774H14.5257V12.1496V12.2218V16.7688L14.4545 16.841V16.9132H14.3833V17.0575H15.5938V16.9132H15.5226V16.841L15.4514 16.7688V12.3661V12.2939V12.2218C15.4514 12.2218 15.4514 12.2218 15.3802 12.2218C15.3802 12.2218 15.309 12.1496 15.3802 12.1496C15.5226 12.0774 15.5226 11.8609 15.5226 11.8609C15.5226 11.7165 15.5226 11.6444 15.5938 11.6444Z" fill="black"/>
<path d="M12.959 11.6444V11.4278H11.7485V11.6444H11.8197C11.8197 11.6444 11.8197 11.6444 11.8197 11.7165C11.8197 11.7165 11.8197 11.9331 11.9621 12.0052V12.0774C11.9621 12.0774 11.9621 12.0774 11.8909 12.0774V12.1496V12.2218V16.7688L11.8197 16.841V16.9132H11.7485V17.0575H12.959V16.9132H12.8878V16.841L12.8166 16.7688V12.3661V12.2939V12.2218C12.8166 12.2218 12.8166 12.2218 12.7454 12.2218C12.7454 12.2218 12.6742 12.1496 12.7454 12.1496C12.8878 12.0774 12.8878 11.8609 12.8878 11.8609C12.8878 11.7165 12.8878 11.6444 12.959 11.6444Z" fill="black"/>
<path d="M10.3247 11.6444C10.3247 11.6444 10.3959 11.6444 10.3247 11.6444V11.4278H9.11426V11.6444H9.18546C9.18546 11.6444 9.18546 11.6444 9.18546 11.7165C9.18546 11.7165 9.18546 11.9331 9.32787 12.0052V12.0774C9.32787 12.0774 9.32787 12.0774 9.25666 12.0774V12.1496V12.2218V16.7688L9.18546 16.841V16.9132H9.11426V17.0575H10.3247V16.9132H10.2535V16.841L10.1823 16.7688V12.3661V12.2939V12.2218C10.1823 12.2218 10.1823 12.2218 10.1111 12.2218C10.1111 12.2218 10.0399 12.1496 10.1111 12.1496C10.2535 12.0774 10.2535 11.8609 10.2535 11.8609C10.2535 11.7165 10.2535 11.6444 10.3247 11.6444Z" fill="black"/>
<path d="M7.68997 11.6444C7.76117 11.6444 7.76117 11.6444 7.68997 11.6444V11.4278H6.47949V11.6444H6.5507C6.5507 11.6444 6.5507 11.6444 6.5507 11.7165C6.5507 11.7165 6.5507 11.9331 6.69311 12.0052V12.0774C6.69311 12.0774 6.69311 12.0774 6.6219 12.0774V12.1496V12.2218V16.7688L6.5507 16.841V16.9132H6.47949V17.0575H7.68997V16.9132H7.61876V16.841L7.54755 16.7688V12.3661V12.2939V12.2218C7.54755 12.2218 7.54756 12.2218 7.47635 12.2218C7.47635 12.2218 7.40515 12.1496 7.47635 12.1496C7.61876 12.0774 7.61876 11.8609 7.61876 11.8609C7.61876 11.7165 7.61876 11.6444 7.68997 11.6444Z" fill="black"/>
<path d="M5.12648 11.6444V11.4278H3.91602V11.6444H3.98722C3.98722 11.6444 3.98722 11.6444 3.98722 11.7165C3.98722 11.7165 3.98722 11.9331 4.12963 12.0052V12.0774C4.12963 12.0774 4.12963 12.0774 4.05842 12.0774V12.1496V12.2218V16.7688L3.98722 16.841V16.9132H3.91602V17.0575H5.12648V16.9132H4.98408V16.841L4.91287 16.7688V12.3661V12.2939V12.2218C4.91287 12.2218 4.91288 12.2218 4.84167 12.2218C4.84167 12.2218 4.77047 12.1496 4.84167 12.1496C4.98408 12.0774 4.98408 11.8609 4.98408 11.8609C5.05528 11.7165 5.05528 11.6444 5.12648 11.6444Z" fill="black"/>
<path d="M2.49221 11.6444V11.4278H1.28174V11.6444H1.35294C1.35294 11.6444 1.35294 11.6444 1.35294 11.7165C1.35294 11.7165 1.35294 11.9331 1.49535 12.0052V12.0774H1.42414V12.1496V12.2218V16.7688L1.35294 16.841V16.9132H1.28174V17.0575H2.49221V16.9132H2.421V16.841L2.3498 16.7688V12.3661V12.2939V12.2218C2.3498 12.2218 2.3498 12.2218 2.27859 12.2218C2.27859 12.2218 2.20739 12.1496 2.27859 12.1496C2.421 12.0774 2.421 11.8609 2.421 11.8609C2.421 11.7165 2.421 11.6444 2.49221 11.6444Z" fill="black"/>
<path d="M12.1757 6.88074C12.1757 6.88074 12.1045 6.88074 12.0333 6.88074V6.73639C12.0333 6.73639 11.9621 6.73639 11.8909 6.73639V6.59204H11.8197C11.8197 6.59204 11.7485 6.59204 11.7485 6.51986C11.7485 6.37551 11.8197 5.14852 11.1789 4.28241C10.6805 3.56066 9.96841 3.1276 9.61239 2.98325C9.61239 2.8389 9.39878 2.76672 9.25637 2.69455C9.18517 2.69455 9.18517 2.62237 9.18517 2.62237V2.5502C9.18517 2.47802 9.25637 2.47802 9.32757 2.47802H9.39878V2.33367C9.39878 2.33367 9.39878 2.26149 9.32757 2.26149C9.25637 2.26149 9.18517 2.26149 9.18517 2.26149C9.18517 2.26149 9.11397 2.2615 9.11397 2.18932C9.11397 2.18932 9.11397 2.18932 9.11397 2.11714C9.11397 2.04497 9.11396 2.04497 9.04276 2.04497V1.10668C9.04276 1.10668 9.04276 1.10668 9.11397 1.10668V1.03451H9.04276C9.04276 1.03451 9.04276 1.03451 9.04276 0.962331C9.04276 0.890156 9.04276 0.890154 9.04276 0.890154V0.817979H8.97155C8.97155 0.817979 8.97155 0.817979 8.90035 0.817979C8.75794 0.673628 8.61553 0.529276 8.61553 0.457101C8.61553 0.457101 8.61553 0.384926 8.54433 0.384926C8.47313 0.384926 8.54433 0.312749 8.54433 0.312749C8.54433 0.312749 8.54433 0.31275 8.54433 0.240574L8.47313 0.0962219L8.40192 0.240574V0.312749V0.384926C8.33072 0.384926 8.33072 0.457101 8.33072 0.457101C8.33072 0.457101 8.18831 0.673628 8.0459 0.817979C8.0459 0.817979 8.0459 0.817979 7.97469 0.817979H7.90349V0.890154C7.90349 0.890154 7.90349 0.890156 7.90349 0.962331C7.90349 1.03451 7.90349 1.03451 7.90349 1.03451H7.83229V1.10668H7.90349V2.04497L7.83229 2.11714C7.83229 2.18932 7.83229 2.18932 7.83229 2.18932C7.83229 2.18932 7.83229 2.26149 7.76109 2.26149C7.76109 2.26149 7.68988 2.26149 7.61867 2.26149C7.61867 2.26149 7.54747 2.26149 7.54747 2.33367V2.47802C7.54747 2.47802 7.54747 2.47802 7.61867 2.47802C7.68988 2.47802 7.76109 2.47802 7.76109 2.5502V2.62237C7.76109 2.69455 7.68988 2.69455 7.68988 2.69455C7.61868 2.69455 7.33386 2.76672 7.33386 2.98325C6.97784 3.1276 6.2658 3.56066 5.76737 4.28241C5.12653 5.14852 5.19774 6.37551 5.19774 6.51986C5.19774 6.59204 5.19773 6.59204 5.12653 6.59204H5.05533V6.73639H4.91292V6.88074H4.77051C4.77051 6.88074 4.77051 6.95292 4.77051 7.02509C4.84171 7.02509 4.91292 7.09727 4.91292 7.16944C4.91292 7.31379 4.98412 7.3138 5.05533 7.3138V7.81903C5.05533 7.96338 4.98412 7.96338 4.91292 8.03555V8.61296L8.61553 7.81903L12.3182 8.61296C12.3182 8.61296 12.3182 8.10773 12.3182 8.03555C12.2469 8.03555 12.1757 7.96338 12.1757 7.81903V7.3138C12.1757 7.3138 12.3182 7.31379 12.3182 7.16944C12.3182 7.09727 12.3894 7.02509 12.4606 7.02509C12.1757 7.02509 12.1757 6.95292 12.1757 6.88074Z" fill="black"/>
<path d="M16.2345 18.7176V17.6349H15.5937V17.2019H1.28168V17.6349H0.640838V18.7176H0V19.8724H16.8754V18.7176H16.2345Z" fill="black"/>
</svg>
