<?xml version="1.0" encoding="utf-8"?>
<!-- Generator: Adobe Illustrator 18.1.0, SVG Export Plug-In . SVG Version: 6.00 Build 0)  -->
<svg version="1.1" id="Layer_1" xmlns="http://www.w3.org/2000/svg" xmlns:xlink="http://www.w3.org/1999/xlink" x="0px" y="0px"
	 viewBox="0 0 1005.6 311.9" enable-background="new 0 0 1005.6 311.9" xml:space="preserve">
<g>
	<path fill="#16375C" d="M393.8,2.9v3.6c-12.9,0.2-17.5,5.4-17.5,17.7v51.9c0,23.8-15.2,49.4-56.9,49.4c-36.7,0-55.6-21-55.6-48.5
		V21c0-12.3-3.5-14.2-16.5-14.4V2.9h49.4v3.6H295c-10.6,0-15.2,2.9-15.2,14.1V74c0,25.9,15.2,41.5,43.8,41.5
		c21.7,0,43.8-9,43.8-41.7V29c0-18.5-2.9-21.7-18.8-22.5V2.9H393.8z"/>
	<path fill="#16375C" d="M415.6,105.8c0,10.6,2.5,13.1,12.9,13.1v3.6h-38.6v-3.6c8.5,0,12.9-4.6,12.9-12.1V66.4
		c0-7.1-0.8-8.5-5.8-9.4l-6.5-1.3v-3.1l22.1-8.1h3.1v15c12.9-8.1,23.6-15.2,33.1-15.2c13.1,0,20.6,9.6,20.6,28.8
		c0,25.6-1.3,30.6-1.5,38.1c-0.2,5.2,2.9,7.7,10.8,7.7h4.2v3.6h-41.3v-3.6c5.6-0.2,8.8-1.5,10.9-3.7c3.7-3.7,4-17.7,4-43.3
		c0-15.4-7.5-20.2-15.2-20.2c-6.1,0-15.6,5.4-25.6,12.3V105.8z"/>
	<path fill="#16375C" d="M517,107.9c0,6.7,3.7,11,13.8,11v3.6h-42.7v-3.6c11.7,0,16-3.9,16-14.1V66.2c0-7.5-1-8.5-6-9.4l-9-1.7v-3.1
		l25-8.7h2.9V107.9z M509.1,0c4.6,0,8.4,3.3,8.4,7.3c0,4-3.8,7.3-8.4,7.3c-4.6,0-8.3-3.3-8.3-7.3C500.9,3.3,504.5,0,509.1,0z"/>
	<path fill="#16375C" d="M570,124.2l-27.9-63.8c-2.9-6.7-5.4-9-8.5-9.6l-6-1v-3.5h39.2v3.5c-11.7,0.4-15.4,1.9-10.8,10.9l20.4,47.9
		l19.6-44.4c3.5-7.9,1.7-13.5-12.3-14.4v-3.5h33.5v3.5c-7.3,1.3-11.6,5.6-15.2,14l-26.5,60.4H570z"/>
	<path fill="#16375C" d="M629,73.6c-0.4,2.9-0.7,5.6-0.7,8.1c0,20,14,33.5,29.2,33.5c9.6,0,17.1-3.8,24.4-12.5l2.1,2.3
		c-8.1,10.2-20.2,19.8-34.2,19.8c-18.8,0-33.4-17.1-33.4-39.4c0-20.4,13.6-41.1,37.1-41.1c25.9,0,25.4,18.6,31.7,25v4.4H629z
		 M669,68.6c-2.1-12.5-9.8-20.8-19-20.8c-6.3,0-15.9,2.9-20.4,20.8H669z"/>
	<path fill="#16375C" d="M720.1,108.4c0,7.9,2.9,10.4,12.5,10.4h7.3v3.6h-45.6v-3.6c9.8-0.2,12.9-4.2,12.9-14.4V60l-12.9-4.6v-3.3
		l21.9-7.7h3.9v20.4h0.4c9.6-15.8,11.9-19.4,18.3-19.4c2.3,0,2.9,0.2,6.5,1.7c1.9,0.8,5.4,1.5,10,2.9l-4.6,11.6
		c-2.9-0.4-6.6-1.4-10.2-3.1c-2.1-1-4.4-1.9-6.7-1.9c-3.4,0-5.6,2.3-7.5,5c-2.5,3.4-4.6,6.7-6.1,9.6V108.4z"/>
	<path fill="#16375C" d="M766.1,103.1c2.3,11.6,9.6,18.1,18.3,18.1c7.7,0,13.7-5.8,13.7-12.7c0-4-1-6.5-6.2-11.7
		c-13.7-13.6-28.8-15-28.8-30.9c0-12.7,10-21.5,24.6-21.5c5.2,0,10.6,1.2,15.4,3.1l0.4,17.5h-3.3c-1.3-9.8-7.7-16-15.4-16
		c-6.3,0-11.7,4.4-11.7,10.8c0,16.9,35.7,19.8,35.7,43.3c0,12.5-10.4,21.9-23.8,21.9c-3.7,0-6.3-0.6-8.5-1.3
		c-2.1-0.6-3.7-1.2-5.2-1.2c-1.2,0-2.3,0.8-3.3,2.3h-2.9l-2.1-21.5H766.1z"/>
	<path fill="#16375C" d="M846.9,107.9c0,6.7,3.7,11,13.8,11v3.6h-42.7v-3.6c11.7,0,16-3.9,16-14.1V66.2c0-7.5-1-8.5-6-9.4L819,55
		v-3.1l25-8.7h2.9V107.9z M839.1,0c4.6,0,8.5,3.3,8.5,7.3c0,4-3.8,7.3-8.5,7.3c-4.6,0-8.3-3.3-8.3-7.3C830.8,3.3,834.4,0,839.1,0z"
		/>
	<path fill="#16375C" d="M911.1,46.3l-3.1,8.5h-20.7v44.8c0,12.1,8.7,16.2,12.7,16.2c4.2,0,8.1-3.3,11.7-9.6l3.1,2.9
		c-4.6,10-12.1,15.8-21,15.8c-11.3,0-19.4-9.4-19.4-22.3V54.8h-8.8v-3.1c7.5-3.6,14-12.5,18.5-24.4h3.3v19H911.1z"/>
	<path fill="#16375C" d="M982.9,67.7c5.8-14.6,2.1-17.5-9.2-17.9v-3.5h31.9v3.5c-7.9,1-12.3,6.3-16,15.4l-32.7,81.5
		c-5.7,14.2-10.2,20.6-16.9,20.6c-4.6,0-7.9-2.9-7.9-6.7c0-7.9,11.1-6,16-10.8c2.1-2.1,5-7.1,6.5-10.9l5.8-14.4l-29.8-63.2
		c-3.7-7.9-7.1-11.2-15.2-11.3v-3.5h38.7v3.5c-11.7,0.2-13.1,3.6-9.2,11.7l21.7,46.9L982.9,67.7z"/>
	<path fill="#16375C" d="M298.8,187.5c5.6,0,17.5,7.7,17.5,28.3c0,36.5-36.3,52.5-45.4,52.5c-9,0-17.1-14.4-17.1-30.4
		C253.9,206.7,287.3,187.5,298.8,187.5z M289,194.6c-12.1,0-22.9,23.3-22.9,42.5c0,16.1,6.9,24,13.5,24c15.4,0,24.4-25,24.4-42.7
		C304,205,297.5,194.6,289,194.6z"/>
	<path fill="#16375C" d="M323.2,196.1l0.6-3.7c4.6-0.6,9.2-1.4,14-2.5c2.9-15.8,8.6-32.3,19.4-43.1c6.7-6.7,15.2-10.4,22.7-10.4
		c7.5,0,13.6,4.2,13.6,9.2c0,3.1-2.3,5.6-5.4,5.6c-6.3,0-11.5-7.9-17.1-7.9c-7.5,0-13.6,8.5-16.3,21.2l-5.2,25.2h16.5l-1.9,6.3
		h-15.8l-9.8,56.1c-7.5,43.1-29.4,58.4-47.5,58.4c-8.1,0-14.8-4-14.8-8.8c0-3.1,3.1-5.8,6.4-5.8c7.1,0,10.9,8.5,18.3,8.5
		c4.4,0,8.3-2.1,11.7-5.6c9.6-9.6,13.3-42.5,14-47.1l9.8-55.8H323.2z"/>
	<path fill="#16375C" d="M506.8,256.9c-19,9.8-43.4,12.1-51.5,12.1c-42.1,0-61.7-32.5-61.7-60.6c0-28.8,20.2-65,67.1-65
		c20.6,0,34.2,6.5,38.3,6.5c1.7,0,3.3-0.4,4.4-1.3h2.7v31.1h-3.8c-5.2-24-21.5-31.5-39.4-31.5c-33.8,0-51.1,28.1-51.1,59
		c0,39.4,27.7,56.9,49.8,56.9c8.9,0,18.6-1.9,29.4-7.3v-24.2c0-10.9-3.8-14.6-15.4-14.6h-7.1v-3.5h51.9v3.5
		c-9.6,0.6-13.5,3.9-13.5,12.1V256.9z"/>
	<path fill="#16375C" d="M549.2,250.8c0,7.9,3.7,11.5,11.2,11.5h3.3v3.7h-43.3v-3.7c12.3,0,15.9-3.7,15.9-12.9v-92.9
		c0-5.4-0.6-7.1-6-7.7l-8.6-1v-3.2l24.6-7.9h2.9V250.8z"/>
	<path fill="#16375C" d="M573.1,212.7c-0.4-1.2-0.6-1.7-0.6-2.7c0-6.7,16-22.3,28.5-22.3c5.8,0,14.8,2.7,20.2,10.2
		c2.9,4,2.9,6.5,2.9,16.5v25.8c0,15.4,0,18.8,5,18.8c2.1,0,4.6-0.2,9.4-4.2l1,2.9c-10.4,8.5-15.8,10.6-19,10.6
		c-7.9,0-8.6-8.7-8.8-11.7c-13.3,10.9-17.1,11.7-22.3,11.7c-11.1,0-17.9-6.4-17.9-15.8c0-11.7,10.4-15.8,22.7-18.8
		c4-1,10.4-3.3,17.1-7.3v-15.2c0-5.4,0-8.5-3.3-12.3c-2.5-3.1-6.5-5.6-10.8-5.6c-6.3,0-11.9,5.4-11.9,9.4c0,1.2,0.2,1.9,1,3.7
		L573.1,212.7z M611.2,230.2c-3.7,2.1-6.7,3.5-11.3,5.4c-11.7,4.8-16.1,6.7-16.1,14.6c0,6.9,5.6,11.3,11.3,11.3
		c3.1,0,5.4-1,16.1-8.5V230.2z"/>
	<path fill="#16375C" d="M648.9,246.5c2.3,11.5,9.6,18.1,18.3,18.1c7.7,0,13.6-5.8,13.6-12.7c0-4.1-1-6.5-6.2-11.7
		c-13.6-13.6-28.8-15-28.8-31c0-12.7,10-21.5,24.6-21.5c5.2,0,10.6,1.2,15.4,3.1l0.4,17.5h-3.3c-1.4-9.8-7.7-16-15.4-16
		c-6.3,0-11.7,4.4-11.7,10.8c0,16.9,35.8,19.8,35.8,43.3c0,12.5-10.4,21.9-23.8,21.9c-3.6,0-6.4-0.6-8.5-1.3
		c-2.1-0.6-3.7-1.2-5.2-1.2c-1.2,0-2.3,0.7-3.3,2.3h-2.9l-2.1-21.5H648.9z"/>
	<path fill="#16375C" d="M783.9,205.6c-2.9-0.2-11.9-1-19.2-2.3c1.1,2.1,3.3,6.2,3.3,12.3c0,14.2-12.3,27.9-33.6,27.9
		c-3.6,0-5.4-0.4-8.9-1.5c-3.1,3.3-11.7,5.4-11.7,9.8c0,4.8,8.3,6.7,27.5,6.9c21.7,0.2,29.2,1.2,35,6.9c4.6,4.6,5.8,9.4,5.8,13.4
		c0,12.5-16.9,31.7-52.5,31.7c-20,0-29.6-8.8-29.6-18.3c0-11.1,11.7-12.9,20.6-23.6c-10.4-1-18.3-7.5-18.3-13.7
		c0-8.8,12.9-9.2,19.6-14.2c-11.7-4.6-18.5-12.9-18.5-23.8c0-16.5,14.8-29.4,33.8-29.4c8.9,0,16.4,2.7,21.5,7.7
		c8.6,0,16.7-1,25.2-1.9V205.6z M740.2,305.3c16.3,0,31.7-10.8,31.7-22.9c0-7.1-5.9-10.8-12.9-11.3c-5-0.6-29.2-0.8-34.8-1.5
		c-5.4,6.3-12.5,9-12.5,16.5C711.7,295.2,724.4,305.3,740.2,305.3z M734.8,191.3c-7.3,0-18.6,4-18.6,21.9c0,11.3,5.8,26.5,20.4,26.5
		c11.1,0,18.5-9.2,18.5-22.5C755,200.8,746.6,191.3,734.8,191.3z"/>
	<path fill="#16375C" d="M829.3,187.7c23.5,0,41.3,17.5,41.3,40.4c0,22.7-17.9,40.2-40.8,40.2c-23.8,0-42.1-17.3-42.1-39.8
		C787.8,201.9,809.3,187.7,829.3,187.7z M832,263.6c11.3,0,24.2-11.5,24.2-30.8c0-21.9-13.4-40.6-29.6-40.6
		c-12.7,0-24.4,13.1-24.4,29.6C802.2,245.2,815.5,263.6,832,263.6z"/>
	<path fill="#16375C" d="M959.8,267.7L937,213.5l-23.1,54.2h-5.4l-28.7-64.6c-2.7-6-5.4-8.8-14.2-9.8v-3.5h37.3v3.5
		c-11.3,0.6-12.1,3.8-8.1,12.9l20.8,46.4l18.8-44.6c-4.2-9.8-7.5-13.3-14.2-14l-4.6-0.6v-3.5h39.8v3.5c-9.4,0.2-12.3,3.1-8.3,12.7
		l18.8,45.8l18.5-45c4.2-10.2,1-13.5-11.2-13.5v-3.5h32.3v3.5c-7.3,0.7-11.9,4.4-15.8,13.8L965,267.7H959.8z"/>
	<g>
		<path fill="#16375C" d="M0,2.9l201.1,0c0,0,0.2,95.3,0,164.5c0,51-62.9,107.2-100.6,109.1C58.8,273.2,0,214.7,0,168V2.9z"/>
		<rect x="99.1" y="72.2" fill="#ADDEF8" width="6.4" height="177.2"/>
		<path fill="#FFD028" d="M141.6,133.3h31.6c9.3,0,10.2,1.3,10.8,3.3c-0.4-3.1-2.4-19-3.8-30.5c-0.4-3-1.4-11.3-5.6-16.2
			c-1.3-1.6-2-2.4-4.8-3.6c0.2-0.6,2.8-7,4.7-12.2c1-2.6-0.1-5.3-2.1-6.5c-1.8-1.1-4-1.1-5.6-1.1c-10.8,0-19.2,0-22.5,0
			c-5.8,0-8.5,3.7-6.7,8.1c1.3,3.4,3.6,9.1,4.6,11.7c-7.1,2.4-9.5,12.1-10.5,20.5c-1.7,14.2-4,33.1-4.2,34.2
			c-0.2,1.8-0.6,3.3,2.4,3.4c5.6,0.4,12.2,0.4,23.2,0.1c1.1,0.6,2.4,1,4.2,0.9c1.8,0,3.1-0.5,4-1.2c4.5-0.2,9.6-0.4,15.5-0.6
			c-5.1-0.1-10-0.3-14.4-0.4c1.6-2,1.4-4.7,1.3-5.3c-0.7,7.4-10.3,6.7-7.9-1.2c-1,0-3.7,0-5.4,1.4c-0.5,1.1-0.3,3.1,0.8,4.6
			c-6.2-0.3-11.4-0.5-15.1-0.7c-1.9-0.1-2.8-1.5-1.9-2.7C138.3,134.2,138.6,133.3,141.6,133.3 M144.5,71.2c5.7,0,14.9,0,20.9,0
			c1.9,0,4.9-0.6,3.2,3.6c-1.5,3.6-3.7,8.7-4.6,10.9c-3.2,0-16,0-16-0.1c-1-2.4-2.5-5.7-4.3-10C142.7,73.2,142.2,71.2,144.5,71.2z"
			/>
		<path fill="#FFFFFF" d="M100.8,248.7c0,2.1-1.4,3.8-3.1,3.8c-1.7,0-3.1-1.7-3.1-3.8v-17.6c0-2.1,1.4-3.8,3.1-3.8
			c1.7,0,3.1,1.7,3.1,3.8V248.7"/>
		<path fill="#E3A124" d="M57.5,39.9c1-0.4,2.4-0.3,3.7-0.3c-1.5-1.2-2.8-1.7-3.6-1.9c-1.9-7-12-5.1-13,1.1
			C44.2,41,36.2,42,27.1,54.3C22.8,59.9,17,64.8,15.2,65.9c-1.8,1.1,2.6,0.8,4.6-1.3c1.9,1.9,5.6-3.8,11.1-4.7
			c1.5-0.2,19.9-3.6,15-14.1c6.5,8.4-4.3,14.4-11.1,15c0.6,0.3,4.1,0.6,4.5,0.8c1,0.4-0.3,1.6,0.5,2.1c2,1.1,5.9,4.8,5.9,4.8
			s2.3-0.8,1.2-1.8c-3-2-3.9-2.6-4.6-3.9c-0.1-0.1-1-1.9,1-2.5c2.9-0.2,12.3-3.6,10.7-15.4C53.8,43,55.1,40.9,57.5,39.9"/>
		<path fill="#16375C" d="M56.1,37.9c0,0.6-0.5,1.1-1,1.1c-0.6,0-1-0.5-1-1.1c0-0.6,0.5-1.1,1-1.1C55.6,36.8,56.1,37.3,56.1,37.9"/>
		<rect x="103.7" y="226.6" fill="#FFFFFF" width="3.4" height="24.9"/>
		<path fill="#FFD028" d="M110.1,255.4c1-1.1,1.6-2.5,1.6-4.1c0-3.3-2.6-5.9-5.9-5.9H95.8c-3.3,0-5.9,2.7-5.9,5.9
			c0,1.5,0.6,2.9,1.5,4c-1.2,1.1-3.4,3.2-4,3.9c6.8,3,19.6,2.7,26.8,0C113.5,258.6,111.2,256.5,110.1,255.4"/>
		<path fill="#ADDEF8" d="M100.7,51.1C100.7,51.3,100.6,51.2,100.7,51.1c-4.4-4-18.4-5.6-27.5-3.3c0.6,1.1,1.3,4.6,1.7,6
			c13.3-4.4,25.7,2,25.7,2c0,0,0-0.1,0-0.1c0,0,0,0.1,0,0.1c0,0,12.4-6.5,25.8-2c0.4-1.4,1.1-4.9,1.7-6
			C119.1,45.5,105,47.2,100.7,51.1"/>
		<rect x="104.7" y="72.2" fill="#FFFFFF" width="2" height="137.3"/>
		<rect x="94.7" y="72.2" fill="#FFFFFF" width="6.4" height="127.4"/>
		<path fill="#16375C" d="M107.1,121.2c0.4-1.5,0.6-5.2,0-6.3c-3,0-7.6,0-10.3,0C103,117.1,107.1,121.2,107.1,121.2"/>
		<path fill="#16375C" d="M84.8,234.7c3.6,0.5,22.7,1.4,22.7,1.4l3.1,8.1C110.6,244.2,93.9,243.8,84.8,234.7"/>
		<path fill="#ADDEF8" d="M163,176.6c-6-3.9-13.2-0.9-21.1-7.5c0,20.4,14.9,24.5,6.5,30c-7.5,4.9-14.7,6.1-22.2,5.5
			c0.6-1,1.8-2.9,2.7-3.8c-9.2-1.2-17.2-0.5-20.6-0.1c-11.5-3.4-24.2-7.6-39.5-7.8c2.8,2.3,5.5,6.2,5.5,13
			c-2.3-9.1-11.8-13.9-16.5-15.7c-1.4-0.5-2.7-0.8-4.1-1c-0.7,0.9-2.2,2.5-4.6,3.4c-1.4-0.8-2.6,0.6-2.4,1c0.1,0.2,0.1,0.4-0.1,0.7
			c-1.4,1.8-5.9,0.9-9.2-0.2c-3.8-1.3-3.7,1.3-2.9,2.7c1.2,2.1,2.4,3.5,2.9,4.7c5.1,10.4,8.9,17.3,20.2,23.8
			c10.8,7.9,24.3,12,38.1,12.5c5,1.8,16.6,5,31,2.7c-2.8-1.9-5.6-3.8-6.6-5.6c18.4-5.3,34.3-17.4,40.8-35.6c0.1-0.2,0.1-0.4,0.2-0.6
			c1.2-4-2.7-9.3-8.2-4.1c4.8-11.4,12.6-6.5,11,0.3c6.3-8.5,14.7-17.6,25.9-21C179.7,168.8,169.6,172.9,163,176.6"/>
		<path fill="#16375C" d="M107.3,158.7c0.4-1.5,0.6-5.2,0-6.3c-3,0-7.6,0-10.3,0C103.2,154.6,107.3,158.7,107.3,158.7"/>
		<path fill="#FFD028" d="M111.7,146.7c0,3.3-2.7,5.9-6,5.9H95.5c-3.3,0-6-2.7-6-5.9c0-3.3,2.7-5.9,6-5.9h10.2
			C109,140.8,111.7,143.4,111.7,146.7"/>
		<path fill="#E3A124" d="M105.5,150.6c-6,0.1-11.1,0-11.1,0s8.4-0.5,13.8-6.2C109.5,145.3,109.8,150.6,105.5,150.6"/>
		<path fill="#16375C" d="M107.4,196.7c0.4-1.5,0.6-5.2,0-6.3c-3,0-7.6,0-10.3,0C103.3,192.6,107.4,196.7,107.4,196.7"/>
		<path fill="#FFD028" d="M111.8,184.5c0,3.3-2.7,5.9-6,5.9H95.5c-3.3,0-6-2.7-6-5.9c0-3.3,2.7-5.9,6-5.9h10.2
			C109.1,178.6,111.8,181.2,111.8,184.5"/>
		<path fill="#E3A124" d="M105.6,188.4c-6,0.1-11.1,0-11.1,0s8.4-0.5,13.8-6.2C109.6,183.1,109.9,188.4,105.6,188.4"/>
		<rect x="91.6" y="81.9" fill="#FFD028" width="18.1" height="17.7"/>
		<path fill="#E3A124" d="M109.7,99.6c-3.1,0.7-2.9,3.3-3,4.2c0,0-7.3,0.1-12.1,0c0-0.3,0.1-3.8-3-4.2
			C91.6,99.6,108.5,99.6,109.7,99.6z"/>
		<rect x="102.1" y="81.9" fill="#E3A124" width="4.9" height="17.9"/>
		<path fill="#FFD028" d="M44,180c-1.9,0.8-3.5,2.6-4.3,4.8c-0.9,2.2-0.9,4.6,0,6.5c0.6,1.4,1.7,2.4,3,2.9c1.3,0.5,2.8,0.4,4.2-0.2
			c1.9-0.8,3.5-2.6,4.3-4.8c1.5-4,0.2-8.2-2.9-9.4C46.9,179.3,45.4,179.4,44,180 M43.5,192c-0.9-0.3-1.4-1.1-1.6-1.7
			c-0.6-1.3-0.6-3,0.1-4.7c0.6-1.6,1.8-2.9,3.1-3.5c0.6-0.2,1.5-0.5,2.3-0.1c1.3,0.5,2.1,2,2.1,3.8c0,0.8-0.2,1.7-0.5,2.5
			c-0.6,1.6-1.8,2.9-3.1,3.5C45.3,192.2,44.4,192.4,43.5,192z"/>
		<path fill="#ADDEF8" d="M46.7,191.4c-1-0.3-3.5-1.1-6.5-1.2c-2.1-0.1-4.2-1.3-4.1-1.9c0.1-0.5,0.7-0.7,1.6-0.8
			c2.1-0.3,6.5-0.1,11.4,0.7C48.6,189.4,47.9,190.5,46.7,191.4"/>
		<path fill="#E53522" d="M54.3,47.5c-0.1,9-7,11.8-9,12.4C46,57.9,48.8,48.5,54.3,47.5"/>
		<path fill="#FFD028" d="M111.8,109c0,3.3-2.7,6-6,6H95.6c-3.3,0-6-2.7-6-6c0-3.3,2.7-5.9,6-5.9h10.2
			C109.1,103.1,111.8,105.8,111.8,109"/>
		<path fill="#E3A124" d="M105.6,113c-6,0.1-11.1,0-11.1,0s8.4-0.5,13.8-6.2C109.7,107.7,110,112.9,105.6,113"/>
		<path fill="#FFFFFF" d="M65.7,195c6.5,4.4,8.7,10.8,8.7,10.8s2.2-5.4-0.8-9.5c5.9-1.7,16.2,1,25.5,4.6c13.6,5.3,23.8,7.1,34.2,5.3
			c10.4-1.8,15.8-3.9,19.2-9.1c1.8-2.8,7-2.2,5.5,2c-1.5,4.2-7.9,16-20,19.3c-12.1,3.2-32.2,8.7-61.8,1.3c-7.9-2-26.6-6.9-34.2-16.7
			c-1.5-2-1.9-5.6-2-6.2c-0.1-0.7,0.4-1.1,2-0.8c5.2,0.9,6.2-1.1,8.2-3.3C52.2,192.3,59.7,191,65.7,195"/>
		<path fill="#0697D5" d="M155.7,198.2c-9.1,17.2-26.6,19.9-44.9,20.5c-7.4,0.2-14.9-0.7-21.3-2.4c5.4,0.5,11,0.1,14.4-1.1
			c-1.3-6.9-13.1-11.9-21.3-12.4c-1.6-1.8-2-4.1-5.8-5.4c2.7,2.4,2.5,5.9,3.8,7.6c6.7,1.4,14.9,3.1,18.9,8.4
			c-1.4,1.8-13.6,0.8-20.2-0.7c-2.9-1.1-5.8-2.8-7.4-5.9c-3.2,3.5-8.2,2.3-13.4-0.3c-0.1-2-1.3-3.8-4-4.3c0.6,0.9,0.7,1.8,0.7,2.5
			c-5.8-3.4-11.4-7.5-14.2-7.3c-4,0.3,8.7,22.5,19.3,24.8c31.7,18.3,84.6,10.2,97.2-20.6C159.3,197.3,157.7,194.4,155.7,198.2z"/>
		<path fill="#FFFFFF" d="M55.6,204.5c0.2,1.9-1.3,3.7-3.4,3.9c-2,0.2-3.9-1.2-4.1-3.1c-0.2-1.9,1.3-3.7,3.4-3.9
			C53.6,201.1,55.4,202.5,55.6,204.5"/>
		<path fill="#16375C" d="M53.9,204.9c0,1-0.9,1.7-2,1.7c-1.1,0-1.9-0.8-1.9-1.7c0-1,0.9-1.7,1.9-1.7
			C53,203.1,53.9,203.9,53.9,204.9"/>
		<path fill="#FFFFFF" d="M144.6,173.3c-2.2,7.5,7.1,17.6,7.1,17.6S147.6,177.8,144.6,173.3"/>
		<path fill="#FFFFFF" d="M151.2,174.9c-3.2,4.4,2.8,14.4,2.8,14.4S153.6,181.3,151.2,174.9"/>
		<path fill="#FFFFFF" d="M161.2,186.3c2.5-5.5,7.6-11,12.9-12.9C163,174.7,160.5,182.1,161.2,186.3"/>
		<path fill="#FFFFFF" d="M100.6,20C95.9,11,89.2,18,77.5,14.3c-2.1,9.6-4.2,26.8-4.7,29.8c8,2.4,15.1-5.1,24.7,1.2
			c-1-12.4,3-22.7,3-22.7S100.5,21,100.6,20"/>
		<path fill="#ADDEF8" d="M100.7,20c-0.9-1.6-1.8-3-3.4-3.9c-1.4,14.8-1.7,18-6.4,26.6c2.9,0.4,5.1,1.4,6.6,2.5
			c-1-12.4,3.2-22.2,3.2-22.2S100.6,20.5,100.7,20z"/>
		<path fill="#FFFFFF" d="M123.8,14.3c-11.7,3.6-18.5-3.4-23.2,5.7c0,3.1,0,26,0,27.7c11.3-10.5,19-1,27.9-3.7
			C128,41.1,125.9,23.9,123.8,14.3"/>
		<rect x="97.4" y="64.6" fill="#FFD028" width="6.5" height="7.6"/>
		<polygon fill="#FFD028" points="100.7,57.4 103.9,63 97.4,63.1 		"/>
		<path fill="#038A3B" d="M45.7,79.8L45.7,79.8C45.7,79.7,45.7,79.8,45.7,79.8"/>
		<path fill="#87BD27" d="M72,117c0,0,9-4.4,9.9-9c-2.8-2.7-9.8-3-9.8-3s8-6.1,7.7-10.6c-4-1.9-11.2-0.8-11.2-0.8
			c3.3-4.6,4.3-8.2,4.1-11.5C68.6,81.6,62.1,84,62.1,84s2.2-7.7,0-11.7c-3.9-1-9.3,5.8-9.3,5.8s-1.9-8.4-6.5-12.9
			c-4.5,4.5-6.5,12.9-6.5,12.9s-5.4-6.8-9.3-5.8c-2.1,4,0.1,11.7,0.1,11.7s-6.5-2.5-10.7-1.8c-0.1,3.2,0.8,6.9,4.2,11.5
			c0,0-7.2-1.1-11.2,0.8c-0.3,4.4,7.7,10.6,7.7,10.6s-7,0.3-9.8,3c0.9,4.6,9.9,9,9.9,9s-5.3,1.1-8.6,4.8c2.1,2.8,6.7,5.4,10.4,6
			c-3.2,2.5-4.9,4.5-5.7,6c5.1,4.1,15.9,4.7,26.7,1.4c0,2.1,0,18.7-2.5,26.3h10.8c-2.5-7.6-2.5-24.2-2.5-26.3
			c10.8,3.4,21.5,2.8,26.7-1.4c-0.8-1.5-2.6-3.5-5.7-6c3.6-0.6,8.3-3.2,10.4-6C77.3,118.1,72,117,72,117"/>
		<path fill="#068E3D" d="M62.2,117.3c1-0.6,6.2-2.1,8.9-6.8c-2.7-2.6-8.9-2.7-8.9-2.7s5.5-3.6,7.4-9.1c-4.7-1.4-9.7,0-9.7,0
			s4-5.7,4.5-10.6c-4.5,0.5-9.4,2.9-9.4,2.9c1.4-3,2.1-7.2,1.5-10.9c-2.3,0.4-4.3,3-5.6,4.7c-1.2-3.7-3.1-4.8-4.4-5.6
			c-2.2,3.3-2.7,5.4-2.4,9.8c0.7-0.7,1.9-1.9,3.9-3c1.2,6.4-1.1,11-1.1,11s2.8-1.8,6.5-2.3c0.2,3.5-1.1,7.1-4.8,11.4
			c0,0,3.3-2,7-2.3c-0.6,4.9-3.6,8.2-6.7,11.1c2.1-1,5.6-0.9,8.1-0.1c-1.3,3.8-4.2,5.6-8.5,8c2.6,0,5.4,0.4,6.9,1.4
			c-1.7,3.2-5.9,4.7-8.8,5.6c6.7,2.6,13.2,3.6,19.6,2.1c-0.4-1.9-2.9-4.2-5.7-5.8c2.6-0.6,6.4-1.4,9.8-4.3
			C68.1,119.7,65.5,118.2,62.2,117.3"/>
		<path fill="#ADDEF8" d="M26.2,262.9c1.5,5.1-2.5,14.9,0.3,20.6c-2.5-0.1-18.1,2.8-20.5,0.8c-2.3-2-8.4-6.4-2.3-9.7
			C9.9,271.3,25.3,265.4,26.2,262.9"/>
		<path fill="#ADDEF8" d="M175.8,262.4c1.8,16.3-0.9,18.1-0.8,22.8c1.5,0.4,14,3,18.4,0.6c4.4-2.4,7.5-8.1,5.4-10.5
			c-2-2.4-12.2-8.8-16.3-9.5C178.5,265.1,176.9,263.6,175.8,262.4"/>
		<path fill="#16375C" d="M195.3,270.3c-6.8-3.6-16.8-5.8-22.5-13.6c-2.1,7.8,3,12.3,2.8,23.8c4.8-8.9,0.8-11.1,1.7-15.4
			c3.9,4.9,9.6,5.6,13.7,7.7c5.2,2.7,8.3,8.6-2.4,8.6c-20.8,0-154.4,0-175.7,0c-11,0-7.8-5.9-2.6-8.6c4-2.1,9.9-2.8,13.7-7.9
			c0.8,4.2-3.2,6.4,1.6,15.3c-0.2-11.5,4.9-15.8,2.9-23.7c-5.7,7.8-15.9,10-22.7,13.6c-5.8,3.1-5.8,5.1-5.8,15c0,6.6,0,15,0,20.6
			c0,3.9,4.5,6.3,10,6.1c25,0,156.1,0,181.1,0c5.4,0.2,10.1-2.1,10.1-6c0-5.6-0.1-14.1,0-20.7C201.3,275,201,273.3,195.3,270.3"/>
		<path fill="#FFFFFF" d="M10.1,290H14l2.7,7.5c0.1,0.2,0.2,0.8,0.4,1.8c0.3-1,0.4-1.6,0.5-1.8l2.6-7.5h3.9l-5.6,13.4h-2.8L10.1,290
			"/>
		<rect x="26.2" y="290" fill="#FFFFFF" width="3.7" height="13.4"/>
		<path fill="#FFFFFF" d="M36.9,290h4.6l4.6,13.4h-3.6l-0.7-2.4h-5.2l-0.7,2.4h-3.6L36.9,290 M41,298.4l-1.4-4.4
			c-0.1-0.2-0.2-0.8-0.5-1.8c-0.2,1-0.4,1.6-0.5,1.8l-1.3,4.4H41z"/>
		<path fill="#FFFFFF" d="M53.3,290h3.9l2.7,7.5c0.1,0.2,0.2,0.8,0.5,1.8c0.2-1,0.4-1.6,0.5-1.8l2.7-7.5h3.9l-5.6,13.4h-2.8
			L53.3,290"/>
		<polyline fill="#FFFFFF" points="69.4,290 77.6,290 77.6,292.9 72.9,292.9 72.9,295.3 77.3,295.3 77.3,298.1 72.9,298.1 
			72.9,300.4 77.6,300.4 77.6,303.4 69.4,303.4 69.4,290 		"/>
		<path fill="#FFFFFF" d="M80.9,290h3.8c0.1,0,0.1,0,0.2,0c1.9,0,3.3,0,4.4,0.9c1,0.8,1.5,1.9,1.5,3.3c0,2.1-1,3.4-3,3.8l3.7,5.4
			h-4.1l-3.1-5.3v5.3h-3.4V290 M85,296.3c1.5,0,2.3-0.5,2.3-1.7c0-1.4-0.7-1.8-2.2-1.8h-0.7v3.5H85z"/>
		<rect x="94" y="290" fill="#FFFFFF" width="3.7" height="13.4"/>
		<polyline fill="#FFFFFF" points="103.5,293.2 100.5,293.2 100.5,290 110.1,290 110.1,293.2 107.1,293.2 107.1,303.4 103.5,303.4 
			103.5,293.2 		"/>
		<path fill="#FFFFFF" d="M115.9,290h4.6l4.6,13.4h-3.6l-0.7-2.4h-5.2l-0.7,2.4h-3.6L115.9,290 M120,298.4l-1.4-4.4
			c-0.1-0.2-0.2-0.8-0.4-1.8c-0.2,1-0.4,1.6-0.5,1.8l-1.3,4.4H120z"/>
		<path fill="#FFFFFF" d="M131.1,300.9c1,0,1.7-0.6,1.7-1.4c0-1.1-0.7-1.4-2.3-1.8c-2.4-0.6-3.6-1.6-3.6-3.7c0-2.5,1.8-4.4,4.6-4.4
			c1.5,0,2.8,0.4,4,1.2l-1.1,2.6c-0.8-0.7-1.7-1.1-2.6-1.1c-0.9,0-1.5,0.5-1.5,1.1c0,1,0.9,1.2,2.1,1.5c2.4,0.6,3.7,1.5,3.7,4
			c0,2.8-2,4.7-5.1,4.7c-1.9,0-3.3-0.6-4.8-2l1.6-2.7C129,300.3,130,300.9,131.1,300.9"/>
		<path fill="#FFFFFF" d="M144.2,290h3.9l2.7,7.5c0.1,0.2,0.2,0.8,0.4,1.8c0.3-1,0.4-1.6,0.5-1.8l2.7-7.5h3.9l-5.6,13.4h-2.8
			L144.2,290"/>
		<rect x="160.3" y="290" fill="#FFFFFF" width="3.7" height="13.4"/>
		<polyline fill="#FFFFFF" points="169.8,293.2 166.8,293.2 166.8,290 176.5,290 176.5,293.2 173.5,293.2 173.5,303.4 169.8,303.4 
			169.8,293.2 		"/>
		<path fill="#FFFFFF" d="M182.2,290h4.6l4.6,13.4h-3.6l-0.7-2.4h-5.2l-0.7,2.4h-3.6L182.2,290 M186.4,298.4L185,294
			c-0.1-0.2-0.2-0.8-0.4-1.8c-0.3,1-0.4,1.6-0.5,1.8l-1.3,4.4H186.4z"/>
		<path fill="#E3A124" d="M107.9,248.1c0.9,1.1,1.5,6-2.8,6.4c-7.4,0.6-11-0.2-11-0.2S104.1,253.1,107.9,248.1"/>
		<path fill="#E3A124" d="M141.3,95.8c0.5-6.1,3.3-7.5,7.3-7.4c2.2,0.1,5.6,0.1,13.7,0c-4.6,0.4-10.2,2.8-11,8.7
			c-0.7,5.5-0.7,24.6-0.9,32.7c-4,0.2-9.4,0-10.5,0.3C140.5,121.8,140.9,101.9,141.3,95.8"/>
		<rect x="100.7" y="64.6" fill="#E3A124" width="2" height="7.6"/>
		<polygon fill="#E3A124" points="102.7,63.1 100.7,57.4 100.7,63 		"/>
	</g>
</g>
</svg>
