<svg width="1010" height="343" viewBox="0 0 1010 343" fill="none" xmlns="http://www.w3.org/2000/svg">
<g clip-path="url(#clip0_548_15020)">
<path d="M170.3 289C106.9 289 61 236 61 170.7C61 105.4 106.9 53.4 170.3 53.4C208.1 53.4 236.5 70 263 94.5L300.4 51.5C268.6 21.3 231.7 0 170.7 0C70.5 0 0 77.1 0 171.7C0 267.2 71.9 342.4 168.4 342.4C230.4 342.4 268.2 319.7 302.7 283.7L265.3 245.9C237 272.4 210.9 289 170.3 289Z" fill="white"/>
<path d="M833.2 5.7H715.4V336.8H833.2C937.3 336.8 1009.1 264.4 1009.1 170.8C1009.1 77.1 937.2 5.7 833.2 5.7ZM833.2 283.8H773.6V58.6H833.2C902.7 58.6 948.1 106.4 948.1 171.6C948.1 237 902.7 283.8 833.2 283.8Z" fill="white"/>
<path d="M687.9 116.8C687.9 49.2 639.2 5.7 562.1 5.7H437.7V336.8H495.9V230.3H555.5C628.3 230.3 687.9 191.5 687.9 116.8ZM628.8 117.1C628.8 149.3 601.4 177.4 557.4 177.4H524.8L495.9 205.9V95.6C495.9 72.9 508.3 58.6 533.2 58.6H557.4C596.9 58.6 628.8 81.5 628.8 117.1Z" fill="white"/>
<path d="M391.8 5.7H333.9V336.8H391.8V5.7Z" fill="white"/>
</g>
<defs>
<clipPath id="clip0_548_15020">
<rect width="1009.1" height="342.4" fill="white"/>
</clipPath>
</defs>
</svg>
