<?xml version="1.0" encoding="utf-8"?>
<!-- Generator: Adobe Illustrator 18.1.0, SVG Export Plug-In . SVG Version: 6.00 Build 0)  -->
<svg version="1.1" id="Layer_1" xmlns="http://www.w3.org/2000/svg" xmlns:xlink="http://www.w3.org/1999/xlink" x="0px" y="0px"
	 viewBox="0 0 907.4 253.9" enable-background="new 0 0 907.4 253.9" xml:space="preserve">
<g>
	<path fill="#FFFFFF" d="M142.3,29c-25.7,0-42.4,18.3-42.4,46.4c0,27.9,16.7,46.2,42.4,46.2c25.9,0,42.6-18.3,42.6-46.2
		C184.9,47.3,168.2,29,142.3,29 M142.3,103.4c-15.3,0-19.8-14.1-19.8-28c0-14.1,4.6-28.2,19.8-28.2c15.4,0,20,14.1,20,28.2
		C162.3,89.3,157.7,103.4,142.3,103.4"/>
	<polygon fill="#FFFFFF" points="238.9,119.1 267.7,31.3 243.3,31.3 225.9,95.6 208.4,31.3 184.1,31.3 212.9,119.1 	"/>
	<path fill="#FFFFFF" d="M51.7,225.8c30,0,40.6-19.7,40.6-42.9v-63.8H82v61.4c0.1,26.2-10.5,36.1-30.3,36.1s-30.5-9.9-30.3-36.1
		v-61.4H11v63.8C11,206.1,21.7,225.8,51.7,225.8"/>
	<rect x="191.4" y="142" fill="#FFFFFF" width="10" height="81.4"/>
	<polygon fill="#FFFFFF" points="255.3,223.5 287,142 275.9,142 249.7,213.5 223.6,142 212.5,142 244.1,223.5 	"/>
	<rect x="489.4" y="142" fill="#FFFFFF" width="10" height="81.4"/>
	<path fill="#FFFFFF" d="M379.6,119.1V72.3c0-17.8,5.2-25.1,17.5-25.1c10.5,0,14.5,7.1,14.5,21.6v50.4h22.6v-54
		c0-21.7-6.1-36.2-30-36.2c-9.5,0-20.3,4.8-25.6,14.6V31.3h-21.4v87.8H379.6"/>
	<path fill="#FFFFFF" d="M471.1,9.6l-22.6,7.8v14H440v16.1h8.6v45.4c0,21.3,12,27.3,25.8,27.3c4,0,8.5-0.1,12.1-0.7v-18.8
		c-2,0.3-3.9,0.5-5.9,0.5c-7.6,0-9.4-2-9.4-18.7v-35h15.3V31.3h-15.3V9.6"/>
	<path fill="#FFFFFF" d="M117.9,223.5V176c0.3-15.9,9.8-27.9,25.7-27.9c16.2,0,20.8,10.6,20.8,24.6v50.8h10v-52.4
		c0-19.4-8.4-31.4-30-31.4c-11.2,0-23.4,7-27,16.8V142h-9.5v81.4H117.9"/>
	<path fill="#FFFFFF" d="M386.4,223.5v-43.4c0-16.9,11.4-30.4,30.5-30.4v-9.9c-15.9,0-25.9,8.4-31,21.5V142h-9.5v81.4H386.4"/>
	<path fill="#FFFFFF" d="M431.5,161.2c0-10.8,9.3-13.4,20.6-13.4c6.1,0,14.2,1.9,20,4.9v-9.6c-7.6-2.5-16.7-3.4-21.2-3.4
		c-15.2,0-29.7,5.8-29.7,21.5c0,26.1,45,21.3,45,41.3c0,10.6-11.2,15.3-21.6,15.3c-8.5,0-16.8-2.3-23.4-5.4v9.9
		c7.5,2.6,15.9,3.5,24.1,3.5c13.4,0,31.2-6,31.2-23.4C476.5,174.6,431.5,177.2,431.5,161.2"/>
	<path fill="#FFFFFF" d="M592.5,223.5c-7.7,18.7-17.2,29.1-29.1,30.4l-3.3-7.8c12.4-1.8,18.2-13.1,22.3-22.6h-5.8l-28.7-73.7h-16.8
		v50c0,8.8,0.3,15.9,7.3,15.9c1.9,0,5.2,0,7.8-0.2v8.4c-2.9,0.2-6,0.3-8.1,0.3c-13,0-17-8.3-17-23.9v-50.4h-10.7V142h10.7v-17.9
		h10.1V142h25l28.7,74.6l29.8-74.6h11.1L592.5,223.5"/>
	<path fill="#FFFFFF" d="M602.1,31.3l-20.8,64.3l-20.9-64.3h-18.7c-15.7,0-22,8.7-24.5,16.1V31.3h-21.4v87.8h22.6V79.7
		c0-19.3,7.7-28.5,23.8-28.8l23.3,68.2h8.9c-3.5,10.4-5.8,15.7-10.8,19.1l7.4,19.1v0c11.1-3.6,20-21.8,24.7-34.9l30-91.1H602.1"/>
	<path fill="#FFFFFF" d="M76,82.9c-3.4,10.7-11,17.8-22.9,17.8c-21.3,0-29.4-18.9-29.4-37.7c0-19.7,8-38.7,29.4-38.7
		c11.3,0,21.1,7.8,23.3,18.2L98,35.1C92,14.7,74,3.5,53.1,3.5C19.7,3.5,0,29.5,0,63c0,32.5,19.7,58.5,53.1,58.5
		c21.4,0,37.7-11.8,44.4-31.2L76,82.9"/>
	<path fill="#FFFFFF" d="M325.7,94.4c-2.6,4.6-9,8.9-16.8,8.9c-12.5,0-19.5-7-20.2-22.2H348c1.6-27-11.9-52.1-39.9-52.1
		c-24.9,0-42,20-42,46.4c0,27.2,16,46.2,42,46.2c15.8,0,27.9-6.4,35.1-21.1L325.7,94.4 M307.5,47.1c10.9,0,16.3,6.5,18,18.7h-36.7
		C289.1,59,293.2,47.1,307.5,47.1"/>
	<path fill="#FFFFFF" d="M349.8,202.2c-4,9.2-11.6,15.3-23.8,15.3c-19.2,0-26.9-17.5-27-32H362c0.8-22.9-9.7-45.8-36.1-45.8
		c-26.1,0-37,21.6-37,43.1c0,23.2,11,43,37,43c17.2,0,27.5-7.4,33-20.5L349.8,202.2 M325.9,148.1c16.2,0,25.6,14,26.1,29h-53.1
		C300.5,162.3,309.5,148.1,325.9,148.1"/>
	<path fill="#FFFFFF" d="M879,133.7c5.5-14.8,4.9-16.4,6.9-23.9c17.7-9.3,21.7-32.1,21.5-34.5c-0.4-6.8,0-3-0.7-0.7
		c-1.9,6.8-8.4,14.4-14.2,18.8c-1.5,0.9-3.2,2.5-5.1,3.2c0.4-6.3,7.3-45.8-8.3-76.2l-0.1,0.1c5,15.3-1.7,32-10.9,43.4
		c-0.2-2.1-3.7-41.7-21.2-61.6l-1.5-1.8c2.7,4.2,5.9,28.3-8.1,51.7c-7.1,10.7-16.8,20-25.3,29.5c-8,10-11.8,19.6-8.1,37
		c1.2,4.7,3.2,11.9,5.4,13.5c1.2,0.5,1.1-1.1,0.6-2.1c-2.1-4.5-5.4-22.6,15.1-46c34.4-39.4,24.8-73.9,24.8-73.9
		c5.5,5.8,14.5,38.5,15.5,56.5c-10.7,12.2-49.2,39.7-43.4,61.4c0.7,2.9,1.9,5.7,3.2,8c-5.1,8.1-6.8,14.2-4.1,22.1
		c-7.7,6.2-16.1,14.6-19.6,24.3c-6.2,2.3-12.1,5.3-17.5,10.1c-2.1-2.4-3.8-4.3-6.4-6.2c1.6-0.9,17-9.2,23.1-15.5
		c5.9-6.1,9.4-14.5,7.2-23.7c-3.9-16.3-40.6-37.7-32.8-47.1c4.1-5,13.2-7.4,18.4-3.7v0c0,0,0,0,0.1,0.1c0,0,0,0,0.1,0.1h0
		c0.3,0.2,0.9,0.6,1.1,0.9c2.4-3.5,4.9-12.6-9.3-12.5c-1.1-2.9-4.6-4-7.7-4.4c-9.1-0.6-17.9,3.4-21.3,11.3
		c-4.3,9.9,8.3,31.8,7.5,45.9c0.5,12-23.8,20.1-23.4,1.3c0.2-8.4,20-31.3,1.6-57.7c-6.9-9.1-14.9-17.5-21.7-26.2
		C695.6,23.4,710.4,0,710.1,0c-24.3,31.1-18.6,56.9-19.3,55.7c-1.6-2.9-15.3-19.1-8.6-40.1c0,0-15,18.7-12.3,72.7
		c-2.6-1.6-18.2-15.6-17.6-26.2c0,0-3.6,23.2,18.4,39.8c1.7,8.5,2.2,15.8,5,24.2c-8.5-3.1-21.7-13-26-22.4
		c-0.6-1.7,2.6,21.2,29,34.4c21.3,36.3,45.1,26.6,49.9,21.8c6.9,2.6,17,17,17.5,19c-14-4.4-36.7-9.6-54.4-10.2
		c-10-10-32.3-30.9-41.8-20.8c-10.2,13,25.3,28.1,43.8,30c5,5.2,12.3,12.4,17.2,18.4c-5.6,1.4-6.5,1.8-14.3,4.5
		c-26.5-21.6-30.5-6.9-30.5-6.9c-4,17.6,30.2,16.7,34.2,15.7c9.8,10.1,24.3,11,31.3,8.8c10.3,9.5,21.3,9.2,24.7,8.4
		c11.3,25.7,30.7,13.1,35.2,1.3c9.8,2.5,18-1.4,25.3-6.6c4.9,1.7,18.8,4.2,31.7-6.4c33,6.3,36.5-11.1,34.8-14.5
		c-4.8-9.8-24.9,1.3-30.6,6c-5.8-2.4-8.4-4-14-5.7c5.8-6.3,12.5-11.9,18.5-17.1c66.8-4.8,55.9-58.4,3.1-9
		c-15.3-0.1-39.1,1.9-55.4,6.3c-0.1-1.3,10.2-14.3,18.9-17.8c16.3,14.6,40.6,0,51.3-18.2c16.1-6,26.9-18,30.9-30.3l0.8-2.1
		C903.5,119.1,891.6,130.4,879,133.7 M651.8,149.3c6.7-9.4,28.1,11.2,35.2,19.1C683,167.8,646,159.8,651.8,149.3 M667.8,195.1
		c1.5-10.6,22.1,2.2,26.6,6.5C687.7,205,668,204.8,667.8,195.1 M881.9,202.1c1,4-11.1,13.2-27,5.5
		C870.3,196.5,881.1,196.9,881.9,202.1 M900.7,157.5c6.6,9.2-23,17-36,17.4C864.7,175,891.6,149,900.7,157.5 M800.4,187.6
		c-0.4,3.5-0.8,4.9-0.6,10.7c-3.4,0.9-7,1.9-9.7,3.8c-1.1-2.8-2.6-5.3-4.4-7.6C785.6,194.5,792.9,189.4,800.4,187.6 M692.3,74.6
		c5.4,8.7,44,37.8,35.9,55.2c-9.6-13.2-32.9-25.8-33.8-27C692.7,94.1,692.1,84.1,692.3,74.6 M725.1,133.7c-1.4,1.3-19.8,9.6-28-15.9
		C706.2,122,717.5,127.3,725.1,133.7 M677.6,31.8c-0.4,5.4,0.2,18.8,12.2,39.7c-0.6,9.9,0.3,20.1,1.6,29.5
		c-6.6-3.2-12.3-7.3-18.6-10.9C672.3,81.7,673.4,40.9,677.6,31.8 M682.8,139.9c9.8,3.5,40.9,17.8,43.3,19.2
		C722.9,162.4,702.5,169.7,682.8,139.9 M730.1,152.9c-12.1-9-31.9-18.2-51.2-25.5c-1.7-4.5-5-21.1-5.2-23.7
		c5.5,4.5,13.7,9.6,20.7,13.1c9,29,28.1,21.1,32,18.5C731.4,140,732.3,146.3,730.1,152.9 M731.8,154.5c3.4-8.2,1.6-14.4-2.5-22.2
		c12.2-16-3.3-38-14.4-49.1c-5.8-6.1-19.5-21.1-20.6-22.8c-2.6-25.8,10-48.7,10.9-50.5c-6.2,13.4-9.4,32.2,26.1,75.9
		c6.3,7.8,14.9,16.5,14.5,27.9c-0.2,10.3-8.5,18.5-7.3,27.8c0.9,6.1,4.3,11.3,10.9,12.6c7,1.3,12.8-0.7,17.2-5.6
		c14.4-18.6-7.8-32.1-7.9-50.7c0-7,4.1-11.3,10.3-13.6c4.3-1.2,10-2.5,13.5,0.9c-1.2,0.1-3.7,0.6-6.7,2.1l0,0.1
		c-0.4-0.6-1-0.9-1.8-0.9c-1.2,0-2.1,1-2.1,2.1c0,0.3,0.1,0.6,0.2,0.9c0.3,0.8,1.1,1.4,2.3,1.2c0,0,0.1,0,0.1,0
		c0.4-0.1,0.9-0.3,1.4-0.6c2.8-1.7,6.2-2.3,7.8-2.5v0c13.4-1,9.7,6.2,9.7,6.2s-10.4-5.8-20.5,3.7c-15,16.7,53.8,49.6,2.2,87.1
		c-2.2-1.9-8.8-6.4-13.2-8.2c-0.4,0.5-0.6,0.9-0.9,1.4c4.4,2.1,8.9,4.8,12.4,7.9c-3.2,2.1-4.8,3.7-7.3,6.1
		c-4.6-4.6-10-8.5-16.7-11.3C746.4,170.2,739.7,161.5,731.8,154.5 M750.2,185.6c5,1.2,10.1,4.8,14.3,7.9c-2.5,2.7-3.6,4.4-5,7.3
		c-2.6-2-4.7-2.9-9.4-4.5C750.6,192.9,750.6,189,750.2,185.6 M698.5,178.6c11,0.9,42,3.3,48.9,6.2c1,3.2,1,7.6,0.7,10.8
		c-10.8-2.6-23.6-2.9-34.1,0.1C714,195.8,703.3,184,698.5,178.6 M703.3,209.5c1.2-0.1,10.7-2,15.3-3.1c3.5,3.4,7.7,7.3,11.4,10.6
		C729.9,217,713.9,219.7,703.3,209.5 M721.1,205.6c8.1-2.2,17.1-5.4,26.1-5.5c0,1.2-7.4,12.7-15.1,16.2
		C728.4,212.8,721.1,205.6,721.1,205.6 M756,224.8c-8.2,1.2-16.9-2.7-22.5-7.1c11.8-6.6,15.2-16.5,16.1-17.5c3.2,0.4,6,1.5,8.6,3
		C755.8,208.4,753.6,217.4,756,224.8 M760.4,204.5c10,9.5,1.9,17.1-1.3,19.3C759.1,223.8,756.4,214.7,760.4,204.5 M759.9,225.8
		c13.3-9.9,6.3-19,1.4-23.5c1.1-2.1,2.3-4.6,4.8-6.9c2.9,2.6,4,6.5,4.4,10.8c0.6,0,0.6,0,1.8,0c0.3-4.7-1.8-9.2-4.5-12.7
		c1.7-1.5,6.4-5.6,7.9-6.3c2.4,2.1,4.4,4.2,6.7,6.9c0,0-5.7,5.6-5.4,12.2l1.7,0.1c0.8-3.5,0.5-5.8,5.3-10.4c1.9,2.3,3.4,4.6,4.2,7.3
		c-2.8,2.3-14.2,12.3-0.2,23.5C773,249.4,760,226.9,759.9,225.8 M788.8,225c-11.4-10-1.4-18.6,0.2-19.3
		C790.8,211.4,791,219.5,788.8,225 M791.8,226.2c2.3-7,2-14.6-0.6-21.7c0.4-0.3,6.1-2.5,8.9-2.3c5,13.4,14,17.8,14.8,18.5
		C808.5,225.6,799.9,228.2,791.8,226.2 M816.3,219.5c0,0-9.6-5.1-14-17.4c8.6,0.7,18.1,4.9,25.8,7.5
		C828.1,209.6,819.9,216.4,816.3,219.5 M845.6,214.7c-5.6,5-16.6,8.4-27.2,5.6l12.1-9.7C835.6,212.5,840.4,213.2,845.6,214.7
		 M852.7,184.3c-5.1,4.9-11.5,10.7-16.9,16c-10.5-3.4-22.8-4.7-33.9-2.5c0-3.8,0.2-7.1,1.4-10.8C818.6,184,836.4,184.8,852.7,184.3
		 M869,78c2.8-3.3,8.6-13.4,9.4-15.7c4.4-10.4,4.6-22.1,4.4-26.8c1.5,4.7,2.3,9.7,2.9,14.6c2,15.4,0.9,32-1,47.7
		c-6.3,4.1-12.8,6.9-19.4,9.8C867.3,98,869.1,88.7,869,78 M866.4,80.9c-0.4,10-1.6,18.9-4.3,27.9c-3.2,2-29.4,15-35.7,24.9
		C820.1,114.8,856.3,93.7,866.4,80.9 M858.5,123.8c-2.4,5.3-6,11.8-11.1,14.7c-5,3.1-13.4,2.9-18.2-0.8
		C837,131.6,849.2,127.4,858.5,123.8 M826.4,162.8c13.3-5.5,31-11.7,44.8-16C865.5,156.4,842.1,175.6,826.4,162.8 M874.8,135.1
		c-12.7,4-25.7,8.1-37.9,13.7c-4.8,2-9.6,5-14.1,7.9c-1.9-6.5,0-13.8,5-17.6c3.8,2.8,8.5,4.2,13.7,3.5c10.2-1.2,15.9-10.4,19.9-19.9
		c7.3-3.4,14.7-6.8,21.4-11.2c-1.3,7.6-4.1,15.4-6.6,22.6C875.8,134.7,876,134.8,874.8,135.1"/>
</g>
</svg>
