<?xml version="1.0" encoding="utf-8"?>
<!-- Generator: Adobe Illustrator 26.2.1, SVG Export Plug-In . SVG Version: 6.00 Build 0)  -->
<svg version="1.1" id="Layer_1" xmlns="http://www.w3.org/2000/svg" xmlns:xlink="http://www.w3.org/1999/xlink" x="0px" y="0px"
	 viewBox="0 0 1009.1 246.4" style="enable-background:new 0 0 1009.1 246.4;" xml:space="preserve">
<style type="text/css">
	.st0{display:none;}
	.st1{display:inline;fill:#878787;}
	.st2{fill:#FFFFFF;}
	.st3{fill-rule:evenodd;clip-rule:evenodd;fill:#FFFFFF;}
</style>
<g class="st0">
	<path class="st1" d="M77.2,122.3l2.3,1.2c2.1,1,3.7,1.6,4.7,3.6c0.1,0.5,1.1,5.8,1.8,8c-1.8,0.5-4,0.2-6.1-1
		c-2.5-1.3-4-3.7-4.4-6.1c0-0.1,0-0.3,0-0.3l-0.1-0.7l-1.2-5.6l-0.4-2C74.8,120.5,75.9,121.5,77.2,122.3 M84.9,85.5
		c-1.9-0.4-3.6-1.7-4.9-3.6c-1.4-2.3-2-5.1-1.2-7.4c0-0.1,0.1-0.3,0.1-0.3l0.3-0.7c0.6-1.8,1-3.7,1.4-5.5l0.6-2
		c0.4,1.5,1,2.9,1.8,4.2l1.6,2.1c1.5,1.8,2.5,3.1,2.5,5.2C86.8,78.1,85.5,83.3,84.9,85.5 M82.6,110.3c-1.9,0-4-0.8-5.7-2.4
		c-1.9-1.9-3-4.5-2.9-6.9c0-0.1,0-0.3,0-0.3l0-0.8c0.2-1.9,0.2-3.8,0.1-5.7l0.1-2.1c0.8,1.3,1.7,2.6,2.9,3.7l2,1.7
		c1.8,1.4,3.1,2.4,3.6,4.5C82.8,102.7,82.3,108.1,82.6,110.3 M90.3,78.6c1.2-1.7,2.9-2.1,5.1-2.5l2.4-0.5c1.4-0.4,2.7-0.9,4-1.5
		l-0.8,1.5c-0.7,1.3-1.4,2.7-1.9,4.2l-0.2,0.6l-0.1,0.2c-0.7,1.9-2.2,3.6-4.6,4.7c-2,1-4.2,1.3-6,0.9C88.8,84.1,90.1,79,90.3,78.6
		 M89.2,57.3c-1-2.6-0.7-5.4,0.6-7.5c0-0.1,0.1-0.2,0.1-0.2l0.4-0.7l2.7-5l1-1.8c0.1,1.5,0.3,3.1,0.8,4.5l1,2.4
		c1,2.1,1.8,3.6,1.2,5.7c-0.3,0.4-3,5.2-3.9,7.2C91.4,61.1,90,59.5,89.2,57.3 M100,56.4c1.6-1.4,3.2-1.4,5.5-1.3l2.6,0.1
		c1.5,0,2.9-0.2,4.2-0.5l-1.1,1.3c-1.1,1.1-2.1,2.3-2.9,3.7l-0.3,0.5l-0.1,0.2c-1,1.7-3.1,3-5.6,3.6c-2.1,0.5-4.3,0.3-6-0.5
		C97.1,61.4,99.7,56.8,100,56.4 M103.8,35.5c-0.3-2.7,0.6-5.4,2.3-7.2l0.2-0.2l0.5-0.5c1.4-1.3,2.6-2.8,3.8-4.3l1.4-1.5
		c-0.3,1.5-0.4,3.1-0.2,4.6l0.4,2.6c0.5,2.3,0.8,3.9-0.2,5.8c-0.3,0.4-4.1,4.4-5.4,6.2C105.2,39.7,104,37.7,103.8,35.5 M114.5,37.1
		c1.8-1,3.5-0.6,5.7,0l2.4,0.6c1.5,0.3,2.8,0.4,4.2,0.5l-1.4,1c-1.2,0.9-2.5,1.8-3.7,2.9l-0.4,0.4l-0.2,0.2
		c-1.3,1.5-3.6,2.3-6.2,2.2c-2.2-0.1-4.2-0.7-5.7-1.9C110.6,41.3,114.2,37.5,114.5,37.1 M123.2,17.6c0.3-2.7,1.8-5.2,3.9-6.5
		l0.2-0.1l0.7-0.4l4.6-3.3l1.7-1.1c-0.6,1.4-1.1,2.9-1.3,4.4l-0.2,2.6c-0.1,2.4-0.1,4-1.5,5.7c-0.5,0.2-4.9,3.3-6.7,4.7
		C123.5,22,122.9,19.9,123.2,17.6 M138.7,22.9l2.2,1.2c1.3,0.7,2.7,1.1,4,1.5l-1.6,0.7c-1.5,0.5-2.9,1.1-4.2,2l-0.5,0.3l-0.2,0.1
		c-1.7,1-4.1,1.3-6.6,0.7c-2.1-0.5-4-1.7-5.2-3.1c1.7-1.3,6-4.4,6.5-4.6C135.2,21.1,136.7,21.8,138.7,22.9 M142.5,12.2
		c0.1-2.4,4.2-6,6.8-7.1c1.6-0.7,3.4-1,5.4-1.3l2.1-0.4c0,0,1.7-0.5,2.5-0.7c-0.6,1.1-1.1,2.2-1.7,3.3c-1.4,2.9-2.7,5.6-5.1,7.6
		c-1.7,1.4-6.1,2-8.5,0.8C142.9,14,142.5,13.3,142.5,12.2L142.5,12.2z M86.1,102.3c0.6-2,2.2-2.7,4.3-3.6l2.3-1.1
		c1.3-0.7,2.5-1.5,3.5-2.3l-0.3,1.6c-0.4,1.5-0.8,3-1,4.5l0,0.6v0.2c-0.1,2-1.3,4-3.4,5.7c-1.7,1.4-3.6,2.2-5.6,2.3
		C85.8,108.1,86.2,102.9,86.1,102.3 M90.9,121.9l2-1.6c1.1-1,2.1-2,2.9-3.1l0,1.7c0,1.5-0.2,3.1,0.2,4.6l0.1,0.6l0,0.2
		c0.4,1.9-0.5,4.3-1.9,6.3c-1.3,1.7-3.1,3-4.9,3.5c-0.7-2.1-1.6-7.2-1.7-7.7C87.9,124.4,89,123.3,90.9,121.9 M95,158.3
		c-1.7,0.9-3.8,1.1-6.1,0.4c-2.6-0.8-4.9-2.6-5.8-4.9c0-0.1-0.1-0.3-0.1-0.3l-0.3-0.7c-0.7-1.8-1.8-3.4-2.5-5.1l-0.8-1.9
		c1.3,0.9,2.6,1.6,4.1,2.1l2.6,0.6c2.3,0.4,4,0.7,5.3,2.4C91.6,151.5,94,156.3,95,158.3 M96.8,144.4l1.5-2c0.9-1.2,1.6-2.5,2.1-3.7
		l0.4,1.6c0.2,1.5,0.7,3,1.3,4.5l0.3,0.6l0.1,0.2c0.7,1.9,0.6,4.2-0.4,6.6c-0.9,2-2.3,3.6-4,4.6c-1-1.9-3.4-6.6-3.5-7.1
		C94.4,147.5,95.4,146.1,96.8,144.4 M109.3,178.8c-1.4,1.2-3.6,2-5.9,1.8c-2.7-0.2-5.3-1.5-6.8-3.4l-0.2-0.2l-0.4-0.6
		c-1.1-1.6-2.4-3-3.6-4.4l-1.3-1.6c1.4,0.6,3,0.9,4.5,1h2.6c2.3-0.1,4-0.2,5.7,1.1C104.5,172.8,107.8,177.1,109.3,178.8
		 M107.8,164.9l1-2.3c0.6-1.4,0.8-2.7,1.2-4l0.8,1.5c0.7,1.4,1.4,2.8,2.3,4.1l0.4,0.5l0.1,0.2c1.2,1.6,1.7,3.9,1.2,6.5
		c-0.4,2.2-1.4,4-2.8,5.3c-1.5-1.6-4.7-5.8-5.1-6.1C106.2,168.5,106.8,166.9,107.8,164.9 M121.5,190.5c0.4,0.4,4.6,3.7,6.5,5
		c-1.1,1.5-3,2.7-5.3,3.1c-2.8,0.6-5.4-0.3-7.4-1.8l-0.2-0.2l-0.6-0.5l-4.6-3.4l-1.6-1.3c1.5,0.2,3.1,0.2,4.6-0.1l2.5-0.6
		C117.8,190.2,119.5,189.6,121.5,190.5 M123.3,182.3l0.5-2.5c0.2-1.5,0.3-2.9,0.2-4.2l1.1,1.3c0.9,1.2,1.9,2.5,3.1,3.5l0.5,0.4
		l0.2,0.1c1.6,1.2,2.4,3.6,2.6,6c0.1,2.2-0.4,4.3-1.5,5.8c-1.9-1.2-6-4.5-6.3-4.8C122.5,186.1,122.7,184.5,123.3,182.3 M142.5,204
		c0.4,0.4,5.4,2.4,7.5,3.3c-0.7,1.7-2.2,3.3-4.4,4.2c-2.5,1-5.4,1.2-7.6,0c-0.1-0.1-0.2-0.1-0.2-0.1l-0.7-0.4
		c-1.7-0.9-3.5-1.5-5.2-2.3l-1.9-0.9c1.5-0.2,3-0.5,4.5-1.1l2.4-1.2C139,204.5,140.4,203.6,142.5,204 M141.5,189l1.3,1
		c1.2,1,2.5,1.8,3.9,2.6l0.6,0.3l0.2,0.1c1.8,1,3.3,2.7,4,5.2c0.6,2.1,0.6,4.3-0.1,6c-2-0.9-6.9-2.9-7.3-3.2
		c-1.5-1.5-1.6-3.1-1.7-5.4l-0.1-2.5C142.1,191.7,141.8,190.3,141.5,189 M228.5,198.2c0.7-2.5,2.2-4.2,4-5.2l0.2-0.1l0.6-0.3
		c1.4-0.7,2.7-1.6,3.9-2.6l1.3-1c-0.4,1.3-0.6,2.7-0.8,4.2l-0.1,2.5c-0.1,2.2-0.2,3.9-1.7,5.4c-0.4,0.4-5.3,2.3-7.3,3.2
		C227.9,202.4,227.9,200.3,228.5,198.2 M243.1,205.6l2.4,1.2c1.5,0.6,2.9,0.9,4.5,1.1l-1.9,0.9c-1.7,0.8-3.6,1.4-5.3,2.3l-0.7,0.4
		c0,0-0.2,0.1-0.2,0.1c-2.1,1.2-5.1,1-7.6,0c-2.1-0.9-3.7-2.5-4.4-4.2c2.1-0.9,7.1-3,7.5-3.3C239.5,203.6,241,204.5,243.1,205.6
		 M248.5,186.8c0.2-2.5,1-4.8,2.6-6l0.2-0.1l0.5-0.4c1.2-1,2.2-2.3,3.1-3.5l1.1-1.3c-0.1,1.3,0,2.8,0.2,4.2l0.5,2.5
		c0.5,2.3,0.7,3.8-0.4,5.6c-0.4,0.4-4.5,3.6-6.3,4.8C248.9,191.1,248.4,189,248.5,186.8 M258.5,190.5c2-0.9,3.7-0.3,5.9,0.3l2.5,0.6
		c1.5,0.2,3.1,0.2,4.6,0.1l-1.6,1.3l-4.5,3.4l-0.6,0.5l-0.2,0.2c-1.9,1.5-4.6,2.3-7.4,1.8c-2.3-0.4-4.2-1.6-5.3-3.1
		C253.9,194.2,258.1,190.8,258.5,190.5 M265.3,171.2c-0.5-2.6-0.1-4.9,1.2-6.5l0.1-0.2l0.4-0.5c0.9-1.3,1.6-2.7,2.3-4.1l0.8-1.5
		c0.3,1.4,0.6,2.7,1.2,4l1,2.3c1,2,1.6,3.6,0.9,5.6c-0.3,0.4-3.5,4.5-5.1,6.1C266.6,175.2,265.7,173.4,265.3,171.2 M275.9,172.5
		c1.7-1.3,3.4-1.2,5.7-1.1h2.6c1.6-0.1,3.2-0.4,4.5-1l-1.3,1.6c-1.2,1.4-2.5,2.8-3.6,4.4l-0.4,0.6l-0.2,0.2
		c-1.5,1.9-4.1,3.2-6.8,3.4c-2.3,0.2-4.4-0.6-5.9-1.8C272.2,177.1,275.5,172.8,275.9,172.5 M277.9,152.1c-1-2.3-1.1-4.7-0.4-6.6
		l0.1-0.2l0.3-0.6c0.6-1.5,1.1-2.9,1.3-4.5l0.4-1.6c0.6,1.2,1.3,2.5,2.2,3.7l1.5,2c1.4,1.8,2.4,3.1,2.2,5.2
		c-0.1,0.5-2.4,5.2-3.5,7.1C280.2,155.8,278.8,154.1,277.9,152.1 M288.5,150.9c1.4-1.7,3-2,5.3-2.4l2.6-0.6c1.5-0.5,2.8-1.2,4.1-2.1
		l-0.8,1.9c-0.8,1.7-1.8,3.3-2.5,5.1l-0.3,0.7c0,0-0.1,0.2-0.1,0.3c-0.9,2.3-3.1,4.1-5.8,4.9c-2.2,0.7-4.4,0.5-6.1-0.4
		C286,156.3,288.4,151.5,288.5,150.9 M290.7,134.2c-1.8-0.5-3.6-1.8-4.9-3.5c-1.5-2-2.4-4.3-2-6.3l0-0.2l0.1-0.6
		c0.4-1.5,0.2-3.1,0.2-4.6l0-1.7c0.8,1.1,1.8,2.1,2.9,3.1l2,1.6c1.9,1.4,3,2.4,3.3,4.5C292.3,127,291.4,132.1,290.7,134.2
		 M295.8,127c0.9-1.9,2.6-2.6,4.7-3.6l2.3-1.2c1.3-0.8,2.5-1.8,3.6-2.9l-0.4,2l-1.2,5.6l-0.1,0.7c0,0,0,0.2-0.1,0.3
		c-0.5,2.4-2,4.8-4.4,6.1c-2,1.2-4.2,1.5-6.1,1C294.7,132.9,295.7,127.6,295.8,127 M293,77.6c-0.1-2.1,1-3.4,2.5-5.2l1.6-2.1
		c0.9-1.3,1.4-2.7,1.8-4.2l0.6,2c0.4,1.8,0.8,3.7,1.3,5.5l0.3,0.7c0,0,0.1,0.2,0.1,0.3c0.8,2.3,0.2,5.2-1.2,7.4
		c-1.3,1.9-3,3.2-4.9,3.6C294.5,83.3,293.2,78.1,293,77.6 M294,110.3c-1.9-0.1-3.9-0.9-5.6-2.3c-2-1.6-3.3-3.7-3.4-5.7l0-0.2l0-0.6
		c-0.2-1.6-0.6-3.1-1-4.5l-0.4-1.6c1,0.8,2.2,1.7,3.5,2.3l2.3,1.1c2.1,0.9,3.7,1.7,4.3,3.6C293.8,102.9,294.2,108.1,294,110.3
		 M285.7,85.3c-2.4-1.1-3.9-2.9-4.6-4.7l-0.1-0.2l-0.2-0.6c-0.5-1.5-1.2-2.9-1.9-4.2l-0.8-1.5c1.3,0.6,2.6,1.1,4,1.5l2.4,0.5
		c2.2,0.4,3.8,0.8,5.1,2.5c0.2,0.5,1.5,5.5,2,7.7C289.8,86.6,287.6,86.3,285.7,85.3 M282.9,54.7c-0.5-2.1,0.3-3.6,1.2-5.7l1-2.4
		c0.5-1.5,0.7-3,0.8-4.5l1,1.8l2.7,5l0.4,0.7c0,0,0.1,0.2,0.1,0.2c1.2,2.1,1.6,4.9,0.6,7.5c-0.8,2.2-2.2,3.8-3.9,4.7
		C285.9,59.9,283.3,55.1,282.9,54.7 M277.7,63.9c-2.4-0.6-4.5-1.8-5.6-3.6l-0.1-0.2l-0.3-0.5c-0.7-1.4-1.8-2.5-2.9-3.7l-1.1-1.3
		c1.3,0.3,2.7,0.5,4.2,0.5l2.6-0.1c2.3-0.1,3.9-0.1,5.4,1.3c0.3,0.4,2.9,5,3.7,7C282,64.2,279.8,64.4,277.7,63.9 M267.9,34.7
		c-1-1.9-0.7-3.5-0.2-5.8l0.4-2.6c0.2-1.5,0.1-3.2-0.2-4.6l1.4,1.5c1.2,1.5,2.4,3,3.8,4.3l0.6,0.5l0.2,0.2c1.7,1.8,2.5,4.5,2.3,7.2
		c-0.2,2.3-1.3,4.2-2.8,5.4C272,39.1,268.3,35.1,267.9,34.7 M265,44.9c-2.6,0.1-4.9-0.7-6.2-2.2l-0.2-0.2l-0.4-0.4
		c-1.1-1.1-2.4-2-3.7-2.9l-1.3-1c1.4-0.1,2.8-0.1,4.2-0.5l2.4-0.6c2.2-0.6,3.8-1,5.7,0c0.3,0.4,3.9,4.2,5.2,6
		C269.2,44.2,267.2,44.8,265,44.9 M248.6,18.8c-1.4-1.6-1.4-3.3-1.5-5.7l-0.2-2.6c-0.2-1.5-0.7-3-1.3-4.4l1.7,1.1l4.7,3.3l0.6,0.4
		l0.2,0.1c2.1,1.3,3.6,3.7,3.9,6.5c0.3,2.3-0.3,4.4-1.4,5.9C253.6,22.1,249.1,19,248.6,18.8 M248.1,29.4c-2.5,0.6-4.9,0.3-6.6-0.7
		l-0.2-0.1l-0.5-0.3c-1.3-0.9-2.7-1.5-4.2-2l-1.6-0.7c1.3-0.3,2.7-0.8,4-1.5l2.2-1.2c2-1.1,3.5-1.8,5.5-1.2c0.5,0.2,4.8,3.2,6.5,4.6
		C252.1,27.7,250.2,28.8,248.1,29.4 M237.4,12.3c0,1-0.5,1.7-1.4,2.2c-2.4,1.2-6.9,0.5-8.5-0.8c-2.5-2-3.8-4.7-5.1-7.6
		c-0.5-1.1-1.1-2.2-1.7-3.3c0.8,0.2,2.5,0.7,2.5,0.7l2.1,0.4c1.9,0.3,3.8,0.6,5.4,1.3C233.2,6.2,237.4,9.8,237.4,12.3L237.4,12.3z
		 M297.3,102.2c0.6-2.1,1.8-3.1,3.7-4.5l2-1.7c1.1-1.1,2-2.3,2.8-3.7l0.1,2.1c0,1.9-0.1,3.8,0.1,5.7l0,0.8c0,0,0,0.2,0,0.3
		c0.1,2.4-1,5.1-2.9,6.9c-1.7,1.6-3.8,2.4-5.7,2.4C297.6,108.1,297.2,102.7,297.3,102.2 M87.1,136.7c1.1,3.9,2.4,7.8,3.9,11.5
		c-2.1-1.3-4.6-1.3-7-2.1c-2.9-1-6.6-3.2-8.1-6.5c0,5.2,3.7,9.9,5.6,14.6c2.3,6.1,10.3,8.6,15,5.5c2,3.5,4.1,7,6.5,10.2
		c-2.3-0.7-4.7-0.2-7.3-0.4c-3.2-0.2-7-1.7-9.4-4.4c1.3,5,6,8.7,8.8,12.9c3.8,5.3,12,5.9,15.9,1.8c2.7,3,5.7,5.8,8.7,8.5
		c-2.4-0.2-4.6,0.8-7.2,1.2c-3.2,0.5-7.3,0-10.2-2.2c2.4,4.6,7.8,7.1,11.6,10.5c4.8,4.4,13.1,3,15.9-1.8c3.3,2.3,6.8,4.3,10.5,6.2
		c-2.4,0.4-4.3,2-6.7,2.9c-2.9,1.1-7.1,1.7-10.4,0.2c3.4,3.9,9.2,5.2,13.7,7.6c5.8,3.1,13.5-0.1,15-5.5c3.9,1.5,7.8,2.7,11.9,3.7
		l6.2,1.5c3.8,0.9,8.8,2.3,14.3,4c-14.3,3.6-29.4,7.8-36,11.2l5.9,4c6.9-3.6,22-9.1,35.6-13.4c13.7,4.4,28.7,9.9,35.6,13.4l5.9-4
		c-6.6-3.4-21.6-7.6-36-11.2c5.5-1.7,10.5-3.1,14.3-4l6.2-1.5c4.1-1,8.1-2.3,11.9-3.7c1.5,5.4,9.3,8.6,15,5.5
		c4.5-2.4,10.4-3.6,13.7-7.6c-3.3,1.5-7.5,0.9-10.4-0.2c-2.4-1-4.3-2.5-6.7-2.9c3.6-1.9,7.1-4,10.5-6.2c2.8,4.8,11.1,6.3,15.9,1.8
		c3.8-3.4,9.2-5.9,11.6-10.5c-2.9,2.2-7,2.7-10.2,2.2c-2.6-0.4-4.7-1.4-7.2-1.2c3.1-2.6,6-5.5,8.7-8.5c3.9,4.1,12.2,3.5,15.9-1.8
		c2.9-4.2,7.5-7.9,8.8-12.9c-2.4,2.7-6.2,4.2-9.4,4.4c-2.6,0.2-5-0.3-7.3,0.4c2.4-3.3,4.5-6.7,6.5-10.2c4.7,3.1,12.7,0.7,15-5.5
		c1.9-4.7,5.6-9.4,5.6-14.6c-1.5,3.3-5.2,5.5-8.1,6.5c-2.4,0.8-4.9,0.8-7,2.1c1.5-3.7,2.8-7.6,3.9-11.5c5.3,1.9,12.6-2.3,13.4-8.8
		c0.7-5,3.2-10.4,2-15.5c-0.8,3.5-3.6,6.6-6.4,8.2c-2.3,1.4-4.6,2-6.4,3.8c0.6-4,1-8.1,1.2-12.2c5.6,0.7,11.6-5.1,11-11.6
		c-0.6-5.1,0.7-10.9-1.7-15.5c-0.1,3.6-1.9,7.2-4.3,9.4c-1.9,1.9-4,3-5.3,5.1c-0.3-4.1-0.9-8.1-1.7-12.1c5.6-0.6,10.1-7.6,8-13.8
		c-1.7-4.8-1.9-10.7-5.2-14.7c0.9,3.5-0.3,7.5-1.9,10.2c-1.4,2.2-3.3,3.8-4,6.1c-1.3-3.8-2.7-7.6-4.4-11.3c5.2-1.9,8.1-9.8,4.4-15.3
		c-2.7-4.3-4.3-10-8.5-13.1c1.7,3.2,1.5,7.3,0.5,10.3c-0.8,2.4-2.2,4.4-2.4,6.8c-2.1-3.4-4.5-6.7-7-9.9c4.7-3.2,5.5-11.4,0.8-15.9
		c-3.7-3.5-6.6-8.7-11.4-10.8c2.3,2.8,3.2,6.8,2.9,10c-0.3,2.6-1.2,4.8-0.8,7.2c-2.9-2.8-5.9-5.5-9.1-8c3.8-4.1,2.8-12.3-2.9-15.6
		c-4-2.6-9.1-7.2-12.8-7.7c2.4,2.1,3.7,5.6,4.4,8.9c0.4,2.6,0,5,1,7.3c-2.3-1.4-4.7-2.7-7.2-4c0.2-0.5,0.3-1.1,0.3-1.7
		c-0.1-3.3-5-7.4-7.8-8.6c-2.5-1-5.3-1.3-7.9-1.8c-2.3-0.4-4.6-1.6-6.8-1.8c4.1,4.5,4.7,11,9.7,15c2.4,1.9,8.4,2.7,11.3,0.5
		c2.5,1.3,5,2.7,7.4,4.2c-2.5,0.1-4.4,1.7-6.7,2.9c-2.5,1.5-6.4,2.2-9.6,1.3c4.1,3.8,8,3.4,11.6,6.1c4.1,2.8,11.5,1.4,14.8-3.3
		c3.2,2.5,6.3,5.3,9.2,8.1c-2.5-0.5-4.8,0.6-7.3,1.2c-3,0.7-6.7,0.9-9.2-0.3c2.2,3.5,6.7,4.9,9.5,8c3.3,3.7,10.9,4,15.1,0.2
		c2.6,3.2,4.9,6.6,7.1,10.1c-2.3-1.1-4.8-0.5-7.4-0.5c-3,0-6.6-0.7-8.9-2.4c1.4,3.8,5.4,6.3,7.4,9.9c2.4,4.3,9.7,6.4,14.7,3.7
		c1.7,3.7,3.2,7.5,4.5,11.4c-2-1.5-4.5-1.6-7-2.2c-3.1-0.7-6.3-2.2-8.1-4.4c0.4,4.1,3.8,7.4,4.8,11.4c1.2,4.7,7.9,8.4,13.4,7
		c0.8,3.9,1.3,8,1.7,12c-1.6-1.9-4.1-2.5-6.3-3.7c-2.6-1.4-5.7-3.6-6.8-6.2c-0.5,4,1.9,8,2.1,12.2c0.1,4.9,5.7,10.1,11.3,9.9
		c-0.1,4.1-0.5,8.1-1.1,12c-1.1-2.2-3.4-3.3-5.3-5c-2.3-2-4.5-4.8-5.2-7.6c-1.4,3.8,0,8.3-0.8,12.3c-0.9,4.8,3.2,11.1,8.8,12.2
		c-1.1,3.9-2.4,7.8-3.9,11.5c-0.5-2.4-2.4-4-3.9-6.1c-1.9-2.5-3.2-5.7-3.3-8.6c-2.3,3.3-1.9,8.1-3.7,11.8
		c-2.1,4.4,0.6,11.5,5.7,13.9c-2,3.6-4.2,7.1-6.6,10.4c0.1-2.5-1.4-4.6-2.4-7c-1.1-2.8-2-6.4-1.2-9.1c-3.1,2.7-3.8,7.4-6.4,10.6
		c-3.2,3.8-2.2,11.4,2.3,14.9c-2.8,3-5.7,5.9-8.8,8.5c0.6-2.4-0.4-4.8-0.8-7.3c-0.4-3-0.4-6.6,1-9.1c-3.6,2-5.4,6.3-8.7,8.9
		c-3.8,3.1-4.8,10.5-1.2,15c-3.4,2.3-6.9,4.4-10.6,6.2c1.2-2.2,0.8-4.6,1-7.2c0.2-3.1,1.2-6.5,3-8.7c-4,1.1-6.7,4.9-10.5,6.6
		c-4.5,2-7.1,9.1-4.7,14.3c-3.8,1.4-7.7,2.7-11.7,3.7l-6.1,1.5c-4.9,1.1-11.9,2.8-19.4,4.6c-7.5-1.8-14.4-3.4-19.4-4.6l-6.1-1.5
		c-4-1-7.9-2.2-11.8-3.7c2.3-5.1-0.3-12.3-4.7-14.3c-3.8-1.7-6.5-5.5-10.5-6.6c1.9,2.2,2.9,5.5,3,8.7c0.2,2.6-0.2,5,1,7.2
		c-3.7-1.9-7.2-4-10.6-6.2c3.5-4.5,2.6-11.9-1.2-15c-3.3-2.5-5.1-6.9-8.7-8.9c1.3,2.5,1.4,6.2,0.9,9.1c-0.4,2.5-1.4,4.9-0.8,7.3
		c-3.1-2.7-6-5.5-8.8-8.5c4.4-3.5,5.4-11.1,2.3-14.9c-2.6-3.2-3.3-7.9-6.4-10.6c0.8,2.7,0,6.3-1.2,9.1c-1,2.4-2.4,4.4-2.4,7
		c-2.4-3.3-4.6-6.8-6.6-10.4c5.1-2.4,7.8-9.5,5.7-13.9c-1.8-3.7-1.4-8.4-3.7-11.8c-0.1,2.9-1.4,6.1-3.3,8.6c-1.6,2.1-3.4,3.7-4,6.1
		c-1.5-3.7-2.8-7.6-3.9-11.5c5.6-1.2,9.7-7.4,8.8-12.2c-0.9-4,0.6-8.5-0.8-12.3c-0.7,2.8-2.9,5.6-5.2,7.6c-1.9,1.6-4.2,2.8-5.3,5
		c-0.6-3.9-1-8-1.1-12c5.7,0.2,11.3-5,11.3-9.9c0.1-4.1,2.6-8.1,2-12.2c-1.2,2.6-4.2,4.8-6.8,6.2c-2.2,1.2-4.7,1.8-6.3,3.7
		c0.3-4.1,0.9-8.1,1.7-12c5.4,1.4,12.1-2.3,13.4-7c1-4,4.4-7.3,4.8-11.4c-1.8,2.2-5.1,3.7-8.1,4.4c-2.5,0.6-5,0.7-7,2.2
		c1.3-3.9,2.8-7.7,4.5-11.4c5,2.7,12.3,0.6,14.7-3.7l7.4-9.9c-2.3,1.7-5.9,2.4-8.9,2.4c-2.6,0-5.1-0.6-7.4,0.5
		c2.2-3.5,4.5-6.9,7.1-10.1c4.2,3.8,11.9,3.5,15.1-0.2c2.8-3.1,7.3-4.5,9.5-8c-2.5,1.3-6.2,1-9.2,0.3c-2.5-0.6-4.8-1.7-7.3-1.2
		c2.9-2.9,6-5.6,9.2-8.1c3.3,4.7,10.7,6,14.8,3.3c3.6-2.6,7.5-2.3,11.6-6.1c-3.2,0.9-7.1,0.2-9.6-1.3c-2.3-1.2-4.3-2.7-6.7-2.9
		c2.4-1.5,4.9-2.9,7.4-4.1c2.9,2.2,8.9,1.4,11.2-0.5c5-4,5.6-10.5,9.7-15c-2.2,0.2-4.5,1.3-6.8,1.8c-2.6,0.5-5.4,0.7-7.9,1.8
		c-2.9,1.2-7.7,5.3-7.8,8.6c0,0.7,0.1,1.3,0.3,1.8c-2.4,1.2-4.8,2.6-7.1,4c0.9-2.3,0.6-4.7,1-7.3c0.7-3.2,2-6.8,4.4-8.9
		c-3.7,0.5-8.8,5.1-12.8,7.7c-5.7,3.3-6.8,11.6-2.9,15.6c-3.2,2.5-6.2,5.2-9.1,8c0.3-2.3-0.6-4.6-0.8-7.2c-0.3-3.2,0.6-7.1,2.9-10
		c-4.8,2.1-7.7,7.3-11.3,10.8c-4.7,4.5-3.9,12.7,0.8,15.9c-2.5,3.2-4.8,6.5-7,9.9c-0.2-2.4-1.6-4.3-2.4-6.8c-1-3-1.2-7.2,0.5-10.3
		c-4.2,3.1-5.8,8.8-8.5,13.1C84.8,54,87.6,62,92.9,63.9c-1.7,3.7-3.2,7.4-4.4,11.3c-0.8-2.3-2.6-3.9-4-6.1
		c-1.6-2.6-2.8-6.6-1.9-10.2c-3.3,4-3.6,9.9-5.2,14.7c-2.1,6.2,2.3,13.2,8,13.8c-0.8,4-1.3,8-1.7,12.1c-1.3-2.1-3.4-3.2-5.3-5.1
		c-2.4-2.2-4.3-5.8-4.3-9.4c-2.4,4.7-1.1,10.5-1.7,15.5c-0.6,6.5,5.4,12.3,11,11.6c0.2,4.1,0.6,8.2,1.2,12.2c-1.7-1.8-4-2.4-6.4-3.8
		c-2.8-1.6-5.6-4.7-6.4-8.2c-1.3,5.1,1.3,10.4,2,15.5C74.5,134.4,81.8,138.6,87.1,136.7"/>
	<path class="st1" d="M191.2,117.3c8.5,10.7,11.6,17.3,11.4,22c-0.2,5-2.9,9-5.6,14.4c-2.8,5.6-5.5,13.7-4.5,20.4
		c1-2.2,1.6-4.2,2.2-6.1c0.8-3,1.6-5.8,3.8-8.7c2.6-3.3,6.3-4.8,10.5-4.7c5.7,0,9.8,3.4,9.6,9.4c-0.3,7.7-7.1,8.9-10.3,9.6
		c-0.9,0.2-1.5,1.2-1.5,2.9c-1-0.2-1.3-0.8-1.4-1.5c-0.1-1.1,0.8-2.3,1.6-3.2c0.6-0.8,1-1.6,1.1-2.4c0.2-2.1-1.4-3.9-4-3.8
		c-3.7,0.2-7.3,3.3-10.1,9.1c-0.3,0.5-0.4,1.5-0.5,2.5h0.4c1.1,0,1.9,0.8,1.9,1.8v0c0,1-0.9,1.8-1.9,1.8h-0.7v0.5
		c0,0.4-0.1,0.8-0.3,1.1c1.8,0.4,3.9,0.2,5.9,1.3c1.5,0.7,1.9,1.9,2.5,2.8c0.4,0.7,1.2,1.3,2.4,1.4c1.5,0.1,3.2-0.7,3.9-1.2
		c-0.3,3-2.8,5.2-6,5.3c-4.8,0.2-4.3-3.6-7-6.5c-0.6-0.6-1.8-1.2-2.6-1.9c-0.1-0.1-0.7-0.7-0.7-0.7c0,0-0.5,0.6-0.6,0.7
		c-0.8,0.7-2.1,1.3-2.7,1.9c-2.7,2.9-2.2,6.7-7,6.5c-3.2-0.1-5.7-2.3-6-5.3c0.7,0.5,2.4,1.3,3.9,1.2c1.2-0.1,2-0.7,2.5-1.4
		c0.6-0.9,1-2,2.5-2.8c2-1,4.1-0.8,5.9-1.3c-0.2-0.3-0.3-0.7-0.3-1.1v-0.5h-0.7c-1.1,0-1.9-0.8-1.9-1.8c0-1,0.9-1.8,1.9-1.8h0.4
		c0-1-0.2-1.9-0.5-2.5c-2.8-5.8-6.4-8.9-10.1-9.1c-2.6-0.1-4.2,1.7-4,3.8c0.1,0.8,0.4,1.7,1.1,2.4c0.8,0.9,1.7,2.1,1.6,3.2
		c-0.1,0.7-0.4,1.3-1.4,1.5c0.1-1.7-0.6-2.7-1.5-2.9c-3.2-0.7-10-1.9-10.3-9.6c-0.2-5.9,3.9-9.4,9.6-9.4c4.1,0,7.9,1.5,10.5,4.7
		c2.3,2.9,3,5.7,3.9,8.7c0.5,1.9,1.1,3.9,2.1,6.1c0.9-6.7-1.7-14.8-4.5-20.4c-2.7-5.4-5.4-9.4-5.6-14.4
		C179.6,134.5,182.7,128,191.2,117.3 M177.6,139.4c0.2,4.6,2.2,8.3,4.4,12.6l1.4,2.7c0.3,0.5,0.5,1.1,0.8,1.7
		c-2.8-2.6-6.4-4.1-10.7-4c-3.6,0-6.8,1.2-8.9,3.4c-1.9,2-2.9,4.7-2.9,7.7c0,0.2,0,0.3,0,0.5c0.3,9.1,8.2,10.8,11.6,11.6l0,0
		c0,0.1,0.1,0.2,0.1,0.6c0,0-0.1,2.9-0.1,2.9l2.7-0.5c1.8-0.3,3-1.6,3.2-3.5c0.2-2.1-1.3-3.9-2.1-4.8c-0.3-0.4-0.5-0.8-0.5-1.2
		c0-0.4,0.1-0.7,0.3-1c0.3-0.3,0.8-0.4,1.4-0.4c2.9,0.1,5.8,3,8.1,7.8c-1.2,0.7-2,1.9-2,3.4c0,0.7,0.2,1.3,0.5,1.9
		c-0.7,0.2-1.5,0.4-2.2,0.8c-1.8,0.9-2.6,2.2-3.1,3.1l-0.3,0.5c-0.2,0.3-0.5,0.4-0.7,0.4c-0.8,0-2-0.5-2.5-0.8l-4-2.6l0.5,4.7
		c0.4,4.1,3.9,7.1,8.2,7.3c4.6,0.2,6.1-2.7,7.2-4.7c0.5-0.9,0.9-1.8,1.6-2.5l0.9-0.6c0,0,0.4-0.3,0.7-0.5c0.4,0.3,0.7,0.5,0.7,0.5
		l0.9,0.6c0.7,0.7,1.1,1.6,1.6,2.5c1.1,2.1,2.5,4.9,7.2,4.7c4.3-0.2,7.8-3.3,8.2-7.3l0.5-4.7l-4,2.6c-0.6,0.4-1.8,0.9-2.5,0.8
		c-0.2,0-0.5-0.1-0.7-0.4c0,0-0.3-0.5-0.3-0.5c-0.5-0.9-1.3-2.2-3.1-3.1c-0.8-0.4-1.5-0.6-2.2-0.8c0.3-0.6,0.6-1.2,0.6-1.9
		c0-1.5-0.8-2.7-2-3.4c2.3-4.8,5.3-7.6,8.1-7.8c0.6,0,1.1,0.1,1.4,0.4c0.2,0.2,0.3,0.6,0.3,1c0,0.4-0.2,0.8-0.5,1.2
		c-0.8,0.9-2.3,2.7-2.1,4.8c0.2,1.9,1.4,3.2,3.2,3.5l2.7,0.5c0,0-0.1-2.9-0.1-2.9c0-0.4,0.1-0.5,0.1-0.6l0,0
		c3.4-0.7,11.3-2.5,11.6-11.6c0-0.2,0-0.3,0-0.5c0-3.1-1-5.8-2.9-7.7c-2.1-2.2-5.3-3.4-8.9-3.4c-4.3,0-7.9,1.4-10.7,4
		c0.3-0.6,0.5-1.2,0.8-1.7l1.4-2.7c2.3-4.3,4.2-8,4.5-12.6c0-0.2,0-0.4,0-0.6c0-5.5-3.7-12.6-11.8-22.9l-1.8-2.2l-1.8,2.2
		c-8.2,10.3-11.9,17.4-11.9,22.9C177.6,139,177.6,139.2,177.6,139.4"/>
	<path class="st1" d="M213.4,75.4c4.1,0,7.9,1.5,10.5,4.7c2.3,2.9,3,5.7,3.9,8.7c0.5,1.9,1.1,3.9,2.2,6.1c0.9-6.7-1.7-14.8-4.5-20.4
		C222.6,69,220,65,219.7,60c-0.2-4.7,2.8-11.3,11.4-22c8.5,10.7,11.6,17.3,11.4,22c-0.2,5-2.9,9-5.6,14.4
		c-2.8,5.6-5.5,13.7-4.5,20.4c1.1-2.2,1.6-4.2,2.1-6.1c0.8-3,1.6-5.8,3.9-8.7c2.6-3.3,6.4-4.8,10.5-4.7c5.7,0,9.8,3.4,9.6,9.4
		c-0.3,7.7-7.1,8.9-10.3,9.6c-0.9,0.2-1.5,1.2-1.5,2.9c-1-0.2-1.3-0.8-1.4-1.5c-0.1-1.1,0.8-2.3,1.6-3.2c0.7-0.8,1-1.6,1.1-2.4
		c0.2-2.1-1.4-3.9-4-3.8c-3.7,0.2-7.3,3.3-10.1,9.1c-0.3,0.5-0.5,1.5-0.5,2.5h0.4c1.1,0,1.9,0.8,1.9,1.8c0,1-0.9,1.8-1.9,1.8H233
		v0.5c0,0.4-0.1,0.8-0.3,1.1c1.8,0.5,3.9,0.2,5.9,1.3c1.5,0.8,1.9,1.9,2.5,2.8c0.4,0.7,1.2,1.3,2.4,1.4c1.5,0.1,3.2-0.7,3.9-1.2
		c-0.3,3-2.8,5.2-6,5.3c-4.8,0.2-4.3-3.6-7-6.5c-0.6-0.6-1.8-1.2-2.6-1.9c-0.1-0.1-0.7-0.7-0.7-0.7c0,0-0.5,0.6-0.6,0.7
		c-0.8,0.7-2.1,1.3-2.6,1.9c-2.7,2.9-2.2,6.7-7,6.5c-3.2-0.1-5.7-2.3-6-5.3c0.7,0.5,2.4,1.3,3.9,1.2c1.2-0.1,2-0.7,2.4-1.4
		c0.6-0.9,1-2,2.5-2.8c2-1,4.1-0.8,5.9-1.3c-0.2-0.3-0.3-0.7-0.3-1.1v-0.5h-0.7c-1.1,0-1.9-0.8-1.9-1.8c0-1,0.9-1.8,1.9-1.8h0.4
		c0-1-0.2-1.9-0.5-2.5c-2.8-5.8-6.4-8.9-10.1-9.1c-2.6-0.1-4.2,1.7-4,3.8c0.1,0.8,0.4,1.7,1.1,2.4c0.8,0.9,1.7,2.1,1.6,3.2
		c-0.1,0.7-0.3,1.3-1.4,1.5c0.1-1.7-0.6-2.7-1.5-2.9c-3.2-0.7-10-1.9-10.3-9.6C203.5,78.8,207.7,75.4,213.4,75.4 M213.1,96.4
		C213.1,96.4,213.1,96.4,213.1,96.4c0.1,0.1,0.1,0.3,0.1,0.6c0,0-0.1,2.9-0.1,2.9l2.8-0.5c1.8-0.3,3-1.6,3.2-3.5
		c0.2-2.1-1.2-3.8-2.1-4.8c-0.3-0.4-0.5-0.8-0.5-1.2c0-0.4,0.1-0.7,0.3-0.9c0.3-0.3,0.8-0.5,1.4-0.4c2.9,0.1,5.8,3,8.1,7.8
		c-1.2,0.7-2,1.9-2,3.4c0,0.7,0.2,1.3,0.6,1.9c-0.7,0.2-1.5,0.4-2.2,0.8c-1.8,0.9-2.6,2.2-3.1,3.1l-0.3,0.5
		c-0.2,0.3-0.5,0.4-0.7,0.4c-0.8,0-2-0.4-2.5-0.8l-4-2.5l0.5,4.7c0.4,4.1,3.9,7.1,8.2,7.3c4.6,0.2,6.1-2.6,7.2-4.7
		c0.5-0.9,0.9-1.8,1.6-2.5l0.9-0.6c0,0,0.4-0.3,0.7-0.5c0.4,0.3,0.7,0.5,0.7,0.5l0.9,0.6c0.7,0.7,1.1,1.6,1.6,2.5
		c1.1,2.1,2.5,4.9,7.2,4.7c4.3-0.2,7.7-3.3,8.2-7.3l0.5-4.7l-4,2.5c-0.6,0.4-1.8,0.9-2.6,0.8c-0.2,0-0.5-0.1-0.7-0.4l-0.3-0.5
		c-0.5-0.9-1.3-2.2-3.1-3.1c-0.8-0.4-1.5-0.6-2.2-0.8c0.3-0.6,0.5-1.2,0.5-1.9c0-1.5-0.8-2.7-2-3.4c2.3-4.8,5.3-7.6,8.1-7.8
		c0.6,0,1.1,0.1,1.4,0.4c0.2,0.2,0.3,0.6,0.3,0.9c0,0.4-0.2,0.8-0.5,1.2c-0.8,0.9-2.3,2.7-2.1,4.8c0.2,1.9,1.4,3.2,3.2,3.5l2.7,0.5
		c0,0-0.1-2.9-0.1-2.9c0-0.4,0.1-0.5,0.1-0.6c0,0,0,0,0,0c3.4-0.7,11.3-2.5,11.6-11.6c0-0.2,0-0.3,0-0.5c0-3.1-1-5.7-2.9-7.7
		c-2.1-2.2-5.3-3.4-8.9-3.5c-4.3,0-7.9,1.4-10.7,4c0.3-0.6,0.5-1.2,0.8-1.7l1.4-2.7c2.3-4.3,4.2-8,4.4-12.6c0-0.2,0-0.4,0-0.6
		c0-5.5-3.7-12.6-11.9-22.9l-1.8-2.2l-1.8,2.2c-8.2,10.3-11.9,17.4-11.9,22.9c0,0.2,0,0.4,0,0.6c0.2,4.6,2.2,8.3,4.4,12.6l1.4,2.7
		c0.3,0.5,0.5,1.1,0.8,1.7c-2.8-2.6-6.4-4.1-10.7-4c-3.6,0-6.8,1.2-8.9,3.5c-1.9,2-2.9,4.7-2.9,7.7c0,0.2,0,0.4,0,0.5
		C201.8,93.9,209.7,95.7,213.1,96.4"/>
	<path class="st1" d="M152.6,94.9c1-2.2,1.6-4.2,2.1-6.1c0.8-3,1.6-5.8,3.8-8.7c2.6-3.3,6.3-4.8,10.5-4.7c5.7,0,9.8,3.4,9.6,9.4
		c-0.3,7.7-7.1,8.9-10.3,9.6c-0.9,0.2-1.5,1.2-1.5,2.9c-1-0.2-1.3-0.8-1.4-1.5c-0.1-1.1,0.8-2.3,1.6-3.2c0.7-0.8,1-1.6,1.1-2.4
		c0.2-2.1-1.4-3.9-4-3.8c-3.7,0.2-7.3,3.3-10.1,9.1c-0.3,0.5-0.4,1.5-0.5,2.5h0.4c1.1,0,1.9,0.8,1.9,1.8c0,1-0.9,1.8-1.9,1.8h-0.7
		v0.5c0,0.4-0.1,0.8-0.3,1.1c1.8,0.5,3.9,0.2,5.9,1.3c1.5,0.8,1.9,1.9,2.5,2.8c0.5,0.7,1.2,1.3,2.4,1.4c1.5,0.1,3.2-0.7,3.9-1.2
		c-0.3,3-2.8,5.2-6,5.3c-4.8,0.2-4.3-3.6-7-6.5c-0.6-0.6-1.8-1.2-2.6-1.9c-0.1-0.1-0.7-0.7-0.7-0.7s-0.5,0.6-0.6,0.7
		c-0.8,0.7-2.1,1.3-2.6,1.9c-2.7,2.9-2.2,6.7-7,6.5c-3.2-0.1-5.7-2.3-6-5.3c0.7,0.4,2.4,1.3,3.9,1.2c1.2-0.1,2-0.7,2.5-1.4
		c0.6-0.9,1-2,2.5-2.8c2-1,4.1-0.8,5.9-1.3c-0.2-0.3-0.3-0.7-0.3-1.1v-0.5h-0.7c-1.1,0-1.9-0.8-1.9-1.8c0-1,0.9-1.8,1.9-1.8h0.4
		c0-1-0.2-1.9-0.5-2.5c-2.8-5.8-6.4-8.9-10.1-9.1c-2.6-0.1-4.2,1.7-4,3.8c0.1,0.8,0.4,1.7,1.1,2.4c0.8,0.9,1.7,2.1,1.6,3.2
		c-0.1,0.7-0.4,1.3-1.4,1.5c0.1-1.7-0.6-2.7-1.5-2.9c-3.2-0.7-10-1.9-10.3-9.6c-0.2-5.9,3.9-9.4,9.6-9.4c4.1,0,7.9,1.5,10.5,4.7
		c2.3,2.9,3,5.7,3.9,8.7c0.5,1.9,1.1,3.9,2.2,6.1c0.9-6.7-1.7-14.8-4.5-20.4C142.9,69,140.2,65,140,60c-0.2-4.7,2.8-11.3,11.4-22
		c8.5,10.7,11.6,17.3,11.4,22c-0.2,5-2.9,9-5.6,14.4C154.3,80,151.6,88.1,152.6,94.9 M160.5,72.8c2.3-4.3,4.2-8,4.4-12.6
		c0-0.2,0-0.4,0-0.6c0-5.5-3.7-12.6-11.8-22.9l-1.8-2.2l-1.8,2.2c-8.2,10.3-11.8,17.4-11.8,22.9c0,0.2,0,0.4,0,0.6
		c0.2,4.6,2.2,8.3,4.4,12.6l1.4,2.7c0.3,0.5,0.5,1.1,0.8,1.7c-2.8-2.6-6.4-4.1-10.7-4c-3.6,0-6.8,1.2-8.9,3.5
		c-1.9,2-2.9,4.7-2.9,7.7c0,0.2,0,0.3,0,0.5c0.3,9.1,8.2,10.8,11.6,11.6c0,0,0,0,0.1,0c0,0.1,0.1,0.2,0.1,0.6c0,0-0.1,2.9-0.1,2.9
		l2.7-0.5c1.8-0.3,3-1.6,3.2-3.5c0.2-2.1-1.3-3.9-2.1-4.8c-0.3-0.4-0.5-0.8-0.5-1.2c0-0.4,0.1-0.7,0.3-0.9c0.3-0.3,0.8-0.5,1.4-0.4
		c2.9,0.1,5.8,3,8.1,7.8c-1.2,0.7-2,1.9-2,3.4c0,0.7,0.2,1.3,0.6,1.9c-0.7,0.2-1.5,0.4-2.2,0.8c-1.8,0.9-2.6,2.2-3.1,3.1l-0.3,0.5
		c-0.2,0.3-0.5,0.4-0.7,0.4c-0.8,0-2-0.5-2.6-0.8l-4-2.5l0.5,4.7c0.4,4.1,3.9,7.1,8.2,7.3c4.6,0.2,6.1-2.6,7.2-4.7
		c0.5-0.9,0.9-1.8,1.6-2.5c0,0,0.9-0.6,0.9-0.6s0.4-0.3,0.7-0.5c0.4,0.3,0.7,0.5,0.7,0.5l0.9,0.6c0.7,0.7,1.1,1.6,1.6,2.5
		c1.1,2.1,2.5,4.9,7.2,4.7c4.3-0.2,7.8-3.3,8.2-7.3l0.5-4.7l-4,2.5c-0.6,0.4-1.7,0.9-2.5,0.8c-0.2,0-0.5-0.1-0.7-0.4
		c0,0-0.3-0.5-0.3-0.5c-0.5-0.9-1.3-2.2-3.1-3.1c-0.8-0.4-1.5-0.6-2.2-0.8c0.3-0.6,0.5-1.2,0.5-1.9c0-1.5-0.8-2.7-2-3.4
		c2.3-4.8,5.3-7.6,8.2-7.8c0.6,0,1.1,0.1,1.3,0.4c0.2,0.2,0.4,0.6,0.3,0.9c0,0.4-0.2,0.8-0.5,1.2c-0.9,1-2.3,2.7-2.1,4.8
		c0.2,1.9,1.4,3.2,3.2,3.5l2.8,0.5c0,0-0.1-2.9-0.1-2.9c0-0.4,0.1-0.5,0.1-0.6l0,0c3.4-0.7,11.3-2.5,11.6-11.6c0-0.2,0-0.3,0-0.5
		c0-3.1-1-5.7-2.9-7.7c-2.1-2.2-5.3-3.4-8.9-3.5c-4.3,0-7.9,1.4-10.7,4c0.3-0.6,0.5-1.2,0.8-1.7L160.5,72.8z"/>
	<path class="st1" d="M927.5,160.8l9.9-5.2v-1h-23.8v1l9.2,4.9L907,204.4h-0.3l-17.3-45l10.6-3.8v-1h-31.8v1l9.3,3.8l24,58.2
		l-3.3,7.5c-2.1,4.6-5.9,11.8-8.8,14.2c-2.9-4-5.2-6.1-9.5-6.1c-3.8,0-6.4,2.9-6.4,6.4c0,3.5,3.2,6.7,9.3,6.7
		c7.4,0,13.5-6.4,18.7-19.6L927.5,160.8z M868.8,211.8l-0.3-1c-2.6,0.4-6,0.8-8.2,0.8c-4.5,0-8.2-0.6-10-1.8
		c-2.9-1.9-3.9-4.9-3.9-10.3v-39.4h22v-5.2h-22v-16.6h-1l-8.9,13.7l-10.7,7.2v0.8h10.6v43.5c0,9.9,2.8,14.6,12.8,14.6
		C855.7,218.2,862.7,215.6,868.8,211.8 M801,161.9v50.9l-10.6,3.3v1h30.8v-1l-10.2-3.3v-60.1l-0.6-0.4l-19.2,4.6v0.8L801,161.9z
		 M799.3,131.7c0,4.2,3.1,7,6.6,7c4.5,0,7-3.1,7-7.3c0-4-3.2-6.8-6.7-6.8C801.8,124.6,799.3,127.6,799.3,131.7 M781.9,197.3
		c0-21.5-35-15.2-35-31.8c0-5.9,5.6-10.6,12.1-10.6c7.4,0,13.7,5.9,18.3,16.3l1.2-0.3l-0.4-15.5c-3.9-1.5-11.1-3.2-16.6-3.2
		c-13.4,0-21.9,8.6-21.9,19.6c0,20.9,34.3,15.5,34.3,31.2c0,7.8-5.3,13.4-13.7,13.4c-8.2,0-15.9-6.7-20.3-18.8l-1.3,0.1v17
		c6.4,2.8,12.7,4.3,19.6,4.3C772,219.2,781.9,210.3,781.9,197.3 M732,159.8c0-4-2.9-7.4-8.5-7.4c-6.4,0-13.8,6.1-18.2,14.8h-0.3
		v-14.5l-0.6-0.4l-19.1,4.6v0.8l9.6,4.2v50.9l-10,3.3v1h30.5v-1l-10.5-3.3v-41.7c2-5.2,8.1-10.3,13.2-10.7c1,4.2,3.3,6.5,7.1,6.5
		C729.3,166.9,732,164,732,159.8 M630.7,176.5c1-12.4,10.3-21.9,19.2-21.9c9.1,0,14.2,9.2,14.8,21.5L630.7,176.5z M676.4,178.6
		c0-15.5-8.6-26.2-25.9-26.2c-17.3,0-30.8,14.8-30.8,34.4c0,19.4,12.7,32.5,30.5,32.5c9.1,0,16.9-4.3,25.5-12.5l-0.6-1.1
		c-7.7,4.3-13.9,5.9-20.8,5.9c-16,0-24.5-13.1-23.8-32.9H676.4z M569.6,159.4l10.6-3.8v-1h-31.9v1l9.5,3.8l24.8,59.2h1.7l24.5-57.8
		l10.2-5.2v-1h-24.5v1l9.6,4.9l-8.9,23.8l-7.9,19.5h-0.3L569.6,159.4z M525.7,161.9v50.9l-10.6,3.3v1h30.8v-1l-10.2-3.3v-60.1
		l-0.6-0.4l-19.2,4.6v0.8L525.7,161.9z M524.1,131.7c0,4.2,3.1,7,6.5,7c4.5,0,7-3.1,7-7.3c0-4-3.2-6.8-6.7-6.8
		C526.6,124.6,524.1,127.6,524.1,131.7 M499.3,171.8c0-9.9-3.8-19.4-16.3-19.4c-7.5,0-15.5,3.9-23.8,11.7h-0.3v-11.4l-0.6-0.4
		l-19.1,4.6v0.8l9.6,4.2v50.9l-10,3.3v1h29.5v-1l-9.5-3.3v-46.4c5.6-3.2,10.6-5.9,16.4-5.9c10,0,13.9,6.7,13.9,17.3v35l-9.6,3.3v1
		h29.7v-1l-10-3.3V171.8z M419.4,133.6v51.6c0,14.8-7.7,27.4-24.4,27.4c-18.1,0-28-7.7-28-27.3v-53l14.6-2.5v-1.5h-41.8v1.5
		l14.6,2.5v55.9c0,20.6,12.4,31.2,34.6,31.2c19.6,0,33.7-13.4,33.7-31.2v-54.6l11.3-3.8v-1.5h-25.9v1.5L419.4,133.6z"/>
	<path class="st1" d="M766.2,40.4c0-4-2.9-7.4-8.5-7.4c-6.4,0-13.8,6.1-18.3,14.8h-0.3V33.3l-0.6-0.4l-19.1,4.6v0.8l9.6,4.2v50.9
		l-10,3.3v1h30.5v-1l-10.5-3.3V51.7c2-5.2,8.1-10.3,13.2-10.7c1,4.2,3.3,6.5,7.1,6.5C763.6,47.5,766.2,44.6,766.2,40.4 M664.9,57.1
		c1-12.4,10.3-21.9,19.2-21.9c9.1,0,14.2,9.2,14.8,21.5L664.9,57.1z M710.6,59.2c0-15.5-8.6-26.2-25.9-26.2s-30.8,14.8-30.8,34.4
		c0,19.4,12.7,32.5,30.5,32.5c9.1,0,16.9-4.3,25.5-12.5l-0.6-1.1c-7.7,4.3-13.9,5.9-20.8,5.9c-16,0-24.5-13.1-23.8-32.9H710.6z
		 M638,52.4c0-9.9-3.8-19.4-16.3-19.4c-7.5,0-15.5,3.9-23.8,11.7h-0.3V33.3l-0.6-0.4L578,37.4v0.8l9.6,4.2v50.9l-10,3.3v1h29.5v-1
		l-9.5-3.3V46.9c5.6-3.2,10.6-5.9,16.4-5.9c10,0,13.9,6.7,13.9,17.3v35l-9.6,3.3v1h29.7v-1l-10-3.3V52.4z M573.8,92.4l-0.3-1
		c-2.6,0.4-6,0.8-8.2,0.8c-4.5,0-8.2-0.6-10-1.8c-2.9-2-3.9-4.9-3.9-10.3V40.7h22v-5.2h-22V18.9h-1l-8.9,13.7l-10.7,7.2v0.8h10.6
		v43.5c0,9.9,2.8,14.6,12.8,14.6C560.7,98.8,567.7,96.1,573.8,92.4 M527.4,40.4c0-4-2.9-7.4-8.5-7.4c-6.4,0-13.8,6.1-18.3,14.8h-0.3
		V33.3l-0.6-0.4l-19.1,4.6v0.8l9.6,4.2v50.9l-10,3.3v1h30.5v-1l-10.4-3.3V51.7c1.9-5.2,8.1-10.3,13.2-10.7c1,4.2,3.3,6.5,7.1,6.5
		C524.8,47.5,527.4,44.6,527.4,40.4 M454.9,87.3c-4.7,3.5-10,5.4-14.5,5.4c-7.2,0-11.6-3.3-11.6-9.8c0-7.5,8.1-16.2,26.1-16.2V87.3z
		 M465,52.9c0-12.8-6-19.8-18.5-19.8c-11.7,0-25.9,7.1-25.9,15c0,3.6,2.1,6.4,6.3,6.4c3.9,0,6.1-2.8,6.1-6.3c0-2.6-1.5-5.4-4-7.5
		c3.2-1.3,7.3-2,11-2c9.1,0,15,5.6,15,15.3v9.5c-21.7,2.5-36.8,8.8-36.8,21.3c0,8.9,5.9,14.9,14.9,14.9c7.5,0,15.5-4.3,21.9-10.7
		h0.3c0,7.4,2.6,10.7,7.9,10.7c4.6,0,9.6-2,13.7-4l-0.1-1c-8.5,1-11.7-0.7-11.7-5.2V52.9z M399.8,32.8c0,14.5-7.9,22.3-21.5,22.3
		c-4.2,0-7.7-0.3-10.2-0.7V12.4c2.9-0.3,6.1-0.6,9.6-0.6C390.9,11.8,399.8,19.6,399.8,32.8 M413.4,33.3c0-13.7-10.6-24.4-31.9-24.4
		h-40.3v1.5l14.6,2.5v80.7l-14.6,2.5v1.5h41.5v-1.5l-14.6-2.5V57.2c4.5,0.7,9.5,1.1,14.1,1.1C402.4,58.3,413.4,45.7,413.4,33.3"/>
</g>
<g>
	<path class="st2" d="M920.9,69.3c-0.5-0.1-0.9,2.7-1.9,3.4c-1.4,0.1-3.2-0.8-3.6-0.5c-0.4,0.4,2.5,3,2.6,3.9
		c0.1,1.4-1.4,3.9-0.9,4.3c0.4,0.2,2-1,3.4-1.4c1,0.5,2.1,2.2,2.4,1.9c0.3-0.2-0.2-3-0.1-3.4c0.1-0.5,3.3-2,3.2-2.5
		c-0.1-0.5-3.1-0.5-4-1.7C921.7,73.1,921.3,69.4,920.9,69.3z"/>
	<path class="st2" d="M994.7,74.8c-1.1-0.5-2.4-0.8-3.5-1.6c0-1.2,0.2-1.8,0.1-2.7c-0.1-1-0.8-1.7-0.7-2.7c0.1-0.7,1.2-1.7,1.7-2.4
		c3.9-5.5,7.4-12.9,6.2-22.2c-1.1-9.1-7.1-15.6-13.2-20c-6.2-4.5-14.2-8.2-23.9-9.1c-10-1-20.1,0.3-27.8,4.2
		c3.3-0.7,6.1-1.3,9.3-1.7c11-1.3,21.2,0.9,28.6,4.1c4.8,2.1,9.6,5.2,13.1,9.2c2.6,3,4.5,6.6,5.9,10.8c0.5,1.4,1.1,2.8,1.4,4.2
		c0.3,2.1,0.4,4.6,0.5,6.6c0,5.2-1.9,11.9-4.2,15.5c-0.1,0.2-0.3,0.5-0.5,0.7c-4.5,5.6-15.6,8-25.3,7.6c-7.6-0.3-14.8-1.8-20.9-4
		c-2-0.7-4.4-1.4-5.8-2.5c-2-1.6-2-5.2-0.6-7.4c1.4-2.2,4.4-2.7,5.6-5.2c0.3-0.6,0.2-1.7,0.7-2.6c0.4-0.8,1.9-1.1,1.9-2
		c0-0.3-0.6-1-0.7-1.2c-1-1.8-1.2-3.9-1.9-5.7c-1-2.5-2.7-5-4.7-6.5c-3.3-2.4-8.8-2.8-8.7-8.4c-1.8,0.3-1.1,3.2-1.5,4.7
		c-6.7,0.7-10.9-4.1-9.6-11.2c-1,0.4-1.6,2-1.8,3.6c-0.2,1.7,0.4,3.4,0.1,4.7c-1.6,0.1-3.2-1-4.2-1.8c-0.4-0.3-0.7-1-1.1-0.8
		c2.2,4.7,7.4,6.3,13.7,7.4c5.2,0.9,10.4,1.8,12.7,4.7c0.6,0.7,1.3,2.2,1.1,3.4c-0.4,2.5-3.7,1.4-4.8,3.4c2.5-0.7,4.3,0.3,4.5,2.4
		c0.5,3.7-2.7,9.1-5.6,11c-1.7,1.1-3.9,1.4-5.9,0.3c0.4,1.1,1.2,1.3,1,2.6c-0.3,2.6-4.5,2.8-7.7,2.6c-7.3-0.5-12.5-3.7-17.9-7.4
		c-2.5-1.7-4.8-3.3-7.9-4.8c-1.4-0.6-8.7-3.7-9.4-0.8c-0.2,1,0.9,2.8,1.5,3.6c3.8,5.4,9.5,7.4,16.8,8.7c4.2,0.8,9.3,1.3,10.7,4.8
		c0.8,2.2,0.3,5.7,0,8.3c-0.3,2.5-0.7,5.1-0.7,7.8c0.8,5.6,1.2,13.6-1.5,17.7c-0.2,0.4-0.7,1.2-1.2,1.8c-1.1,1.3-2.9,2.8-4.7,4
		c-5.9,4-12.7,8.4-16.6,14.9c-2.4,4.1-3.6,7.6-4.8,13.3c-0.7,3.5-0.8,8-1.4,11.6c-0.2,1.1-0.4,2.4-0.8,3.3
		c-1.7,3.5-7.7,4.8-11.5,6.7c-3.6,1.8-7.1,4.2-9.9,6.6c-4.8,4.1-7.5,7.7-11.5,12.4c-1.3,1.5-2.5,3-4.1,4c-1.9,1.1-5.1,1.4-5.7,3.3
		c-0.8,2.6,2.1,4.3,2.6,6.6c0.3,1.4,0,2.9,0.3,4.1c0.5,1.9,2,4.2,3.3,5.2c0.6,0.5,1.8,1.1,2.8,0.6c-0.2-2.3-2-3.7-2.5-5.8
		c-0.6-2.9,0.4-7.1,1.5-9.2c1.4-2.7,3.6-3.8,5.7-5.3c3.2-2.4,7.2-5.1,10.4-7.3c4.6-3,9.1-5.8,14.1-8.3c2.1-1,4.5-2.6,6.9-3.7
		c1.9-0.9,3.4-2.1,4.9-3.6c1.4-1.5,3-3.5,3.7-4.7c2.2-3.3,4-6.5,6-9.6c1.5-2.3,3.4-5.3,4.4-7.3c0.7-1.3,1.7-3,2-3.7
		c1-2.3,2.1-4.3,3.6-6.2c5,1.4,10.2,2.9,17.2,3.3c5.4,0.3,11-0.2,15.4-0.6c1.5-0.1,3.4-0.2,4.7,0.2c1.4,0.5,2.2,2,3.2,3.5
		c2.5,3.9,5.5,7.3,8.7,10.6c2.1,2.1,4.3,4.1,6.6,5.7c2,1.4,4.4,2.7,6,3.6c1.9,1.1,3.8,2.2,4.7,4.2c0.9,2,0.2,5.8,2,6.6
		c0.9,0.4,1.9,0,2.5,0c1.1-0.5,2-1.2,3.3-1.6c3-1,6.8,0.2,10,0.1c0.8,0,3.2-0.4,3.1-1.5c-0.1-0.9-2.7-0.9-3.9-1
		c-1.9-0.2-3.1-0.4-4.3-0.8c-2.5-0.8-4.5-1.7-6.7-3c-4.2-2.5-7.6-6.6-10.7-9.9c-5.3-5.5-9.4-10.8-13.4-16.8c-1.3-2-2.6-4.3-4.3-6
		c-4-4-11.6-6.2-17.2-7.5c-2-0.5-5.1-0.6-6.6-1.7c-1.2-0.9-2.2-3.5-2.7-4.7c-0.4-0.7-0.6-1.5-0.9-2.3c-1.3-3.6-0.6-7.4,0.7-10.9
		c0.9-2.4,1.8-4.2,3.1-5.9c2.1-2.9,4.7-4.6,5.3-8.1c0.2-1.2,0-2.7,0.5-4.3c0.6-2.2,2.6-3.7,5.1-3.7c3.8-0.1,7.8,0.9,11.8,1.2
		c8.3,0.8,17,0.8,24.3-0.7c3.6-0.7,7.3-2.2,10.9-2.3c5.8-0.1,9.4,3.6,11.9,7c2.7,3.7,4.7,8.5,4.3,14.6c-0.3,4.5-1.6,8.5-3.5,11.8
		c-6.1,10.5-19.7,19.2-35.1,14.8c-5.8-1.7-8.7-4-13.1-7.1c0.2,0.9,0.6,1.3,1.1,1.9c5.2,4.8,12.6,9.4,22.5,9.4c5.2,0,9.8-0.7,13.5-2
		c3.9-1.4,7-3.6,10.1-5.8c0.1-0.1,0.3,0.3,0.1-0.1c3-2.4,5.7-5.3,7.7-9c2-3.6,3.6-8.2,3.3-13.5C1008.4,85.7,1002.2,78.1,994.7,74.8z
		 M922.7,77.6c-0.1,0.4,0.4,3.2,0.1,3.4c-0.3,0.2-1.4-1.5-2.4-1.9c-1.4,0.4-3,1.6-3.4,1.4c-0.5-0.4,1.1-2.9,0.9-4.3
		c-0.1-0.8-3-3.5-2.6-3.9c0.4-0.4,2.2,0.6,3.6,0.5c1-0.7,1.5-3.5,1.9-3.4c0.5,0.1,0.8,3.8,1,4.1c0.9,1.2,3.8,1.2,4,1.7
		C926,75.6,922.8,77.1,922.7,77.6z"/>
	<path class="st2" d="M945.9,104.4c0.3-0.2,0.5-0.5,0.8-0.8c0.1-0.1,0.3-0.2,0.3-0.3s-0.1-0.3-0.3-0.3s-1.1,0-1.1,0s-1.1,0-1.2-0.1
		l-0.6-2.4c0-0.1-0.2-0.2-0.2-0.2c-0.2,0-0.4,0.3-0.6,0.9c-0.2,0.6-0.5,1.4-0.5,1.6s-0.2,0.3-0.4,0.5c-0.2,0.2-0.5,0.3-0.9,0.4
		c-0.3,0.1-1,0.3-1.2,0.3c-0.2,0.1-0.3,0.2-0.3,0.4c0,0.2,0.4,0.4,0.7,0.5s0.6,0.4,0.7,0.5c0.2,0.2,0.2,0.1,0.3,0.4
		c0.1,0.2-0.2,0.8-0.3,1.2c0,0.1-0.2,0.4-0.1,0.5c0.1,0.1,0.2,0.1,0.5,0c0.3-0.1,0.6-0.4,0.8-0.4c0.2-0.1,0.5-0.2,0.8-0.2
		c0.3,0.1,1,0.6,1.2,0.7c0.2,0.1,0.6,0.4,0.8,0.5c0.2,0.1,0.4,0.2,0.5,0.1c0.1-0.1,0.1-0.4,0-0.7c-0.1-0.2-0.2-0.7-0.3-1.6
		c0,0-0.2-0.6-0.1-0.8S945.7,104.5,945.9,104.4z"/>
	<path class="st2" d="M995.1,65.3c-0.1,0.3,0.7,0.9,1.2,1.2c0.5,0.3,1,0.8,1.2,1.1c0.3,0.4,0.4,0.3,0.4,0.7c0.1,0.5-0.2,1.2-0.6,2
		c-0.1,0.1-0.8,1-0.7,1.2c0.1,0.2,0.1,0.4,0.6,0.2c0.5-0.1,1.7-0.9,2-1.1c0.3-0.1,1-0.3,1.5-0.1c0.5,0.2,1.7,1.2,2,1.5
		c0.3,0.3,0.8,0.6,1.1,0.8c0.3,0.2,0.9,0.8,1.2,0.7c0.3-0.2,0.2-0.8,0.1-1.4c-0.1-0.5-0.1-1.2-0.2-2.8c0,0-0.2-1.1,0.1-1.5
		c0.4-0.6,1.1-1.1,1.5-1.4c0.5-0.3,1.1-0.6,1.7-1.1c0.4-0.3,1-0.4,1-0.7c0-0.3-0.5-0.2-0.8-0.3c-0.3,0-2,0.1-2,0.1s-1.4,0.2-2.2-0.4
		c-0.2-0.1-0.4-4.5-0.4-4.7c0-0.6-0.4-0.7-0.4-0.7c-0.4,0-0.7,0.7-1.1,1.7c-0.5,1-1.2,2.4-1.3,2.7c-0.1,0.3-0.5,0.8-0.5,0.8
		c-0.3,0.3-0.3,0.6-0.9,0.8c-0.6,0.2-2.7,0.1-3.1,0.2C996.1,65,995.2,64.9,995.1,65.3z"/>
	<path class="st2" d="M921.2,25.6c0.3-0.2,1.3-0.7,1.3-0.7s0.4-0.2,0.8-0.2c0.4,0,0.6,0.2,0.7,0.4c0.2,0.2,0.9,0.9,0.9,0.9
		s0.1,0.2,0.3,0.1c0.2-0.1,0.2-0.4,0.2-0.8c0-0.3-0.1-1-0.1-1s-0.1-0.4,0.1-0.7c0.2-0.4,0.5-0.5,0.9-0.6c0.4-0.2,0.9-0.5,1-0.7
		c0.1-0.2-0.1-0.3-0.2-0.3c-0.1-0.1-0.7-0.2-0.9-0.3c-0.2-0.1-0.6-0.2-0.8-0.4c-0.2-0.1-0.2-0.3-0.3-0.8c0-0.4,0-0.4,0-0.7
		c0-0.2,0.1-0.9-0.1-0.9c0,0,0-0.1-0.3,0.2c-0.2,0.2-0.8,1.1-0.8,1.1s-0.3,0.4-0.5,0.5c-0.2,0.2-0.5,0.2-0.8,0.2
		c-0.2,0-1.1-0.2-1.1-0.2s-0.4-0.1-0.4,0.2c-0.1,0.2,0.2,0.6,0.4,0.8c0.2,0.2,0.5,0.5,0.5,1c0.1,0.4-0.2,1-0.4,1.3
		c-0.2,0.3-0.7,1.1-0.7,1.1l-0.2,0.5c0,0-0.1,0.2,0,0.3C920.8,25.9,920.9,25.8,921.2,25.6z"/>
</g>
<g>
	<g>
		<path class="st3" d="M19.5,98.6c4.2,1.7,9.2,4,8.1,10.9c-1.3,8.5-13.6,9.7-23.2,7.8V85c0.9-0.3,3.3-0.3,4.2,0v13.5
			c9,2.6,15.5-7.2,10.4-13.7c-3.9-4.8-14-5-18.9-0.9c1.6-2.3,5.4-3.4,8.9-3.9c7.1-0.9,15.9,2.3,16.1,9.6
			C25.2,93.9,22.3,96.5,19.5,98.6z M23.3,107.4c-0.5-6-8.4-8.4-14.9-6.5l0.2,15.2C15.8,118.1,23.9,114.6,23.3,107.4z"/>
		<path class="st3" d="M180.8,79.9c8.9,0,18.8,7.3,18.8,19c0,10.4-7.6,18.9-18.8,18.9c-9.8,0-18.6-8.6-18.6-18.9
			C162.1,88.9,170.8,79.9,180.8,79.9z M166.7,98.8c0,10.3,4.8,17.7,14.1,17.7c11.8,0,14-8.5,14-17.7c0-9.8-6.2-17.6-14-17.6
			C172.4,81.3,166.7,89.2,166.7,98.8z"/>
		<path class="st3" d="M453.9,81.1c1,0.1,0.9-1.5,2-0.9c0.2,0.2,0.3,3.5,0.6,6.7c0,0-0.6,0-1.5-2c-2.6-5.6-14.6-4.3-12.2,4.3
			c1.8,6.8,14.1,7.7,16.4,16c2.9,10.8-10.6,16.1-18.9,9.9c-1.3-0.1-0.3,2.1-1.4,2.2c-0.4-0.1-0.3-0.2-0.3-0.2l-0.5-8.6
			c0.7,0,1.3,2,2,3.1c1.7,2.8,5.2,5.3,9.5,4.9c3.5-0.3,7.1-3.3,6.7-7.9c-0.7-6.3-9.1-8.2-13.1-11.9c-1.7-1.5-3.1-3.9-3.4-6.3
			C438.5,81.8,446.5,77.9,453.9,81.1z"/>
		<path class="st3" d="M95.3,79.9c0.3,0,0.3,0.8,0.3,0.8s0,0.9-0.3,0.9l-3.6,0v34l12,0c1.2,0,3.6-4,4.6-5.2c0.2-0.3,0.6-0.4,0.5-0.3
			c-0.2,0.7-1.7,5.9-2.1,7.1c-0.1,0.3-0.3,0.4-0.3,0.4s-21.8,0-22.7,0c-0.3,0-0.3-1-0.3-1s0-1.1,0.3-1.1h3.8V81.6h-3.5
			c-0.3,0-0.3-0.9-0.3-0.9s0-0.8,0.4-0.8L95.3,79.9z"/>
		<path class="st3" d="M623.5,80.8c0,0,0,0.8-0.3,0.8h-3.3v17.6c0,11.7,3.3,17.1,10.2,17.1c6.6,0,10.4-5,10.4-11.9
			c0.1-5,0-22.8,0-22.8h-3.3c-0.3,0-0.3-0.8-0.3-0.8s0-0.9,0.3-0.9l8.2,0c0.4,0,0.3,0.9,0.3,0.9s0,0.7-0.3,0.7c-0.3,0-3.3,0-3.3,0
			l0,22.8c-0.4,7.3-4.5,13.5-12.1,13.5c-8.3,0-14.4-5.8-14.4-13.5V81.5h-3.2c-0.3,0-0.3-0.5-0.3-0.8c0,0-0.1-0.8,0.3-0.9h10.7
			C623.6,79.9,623.5,80.8,623.5,80.8z"/>
		<path class="st3" d="M818.9,79.9c0.2,0,0.2,0.9,0.2,0.9s0,0.8-0.3,0.8l-3.3,0l-10.6,14.2l0,20.5l3.3,0c0.2,0.1,0.2,0.8,0.2,0.8
			s0.1,0.8-0.2,0.8c-1.3,0-11.3,0-11.3,0c-0.3,0-0.3-0.8-0.3-0.8s0-0.8,0.3-0.8l3.3,0v-9.9c0-3.4,0-10.5,0-10.5l-10.4-14.2h-3.3
			c-0.3,0-0.2-0.8-0.2-0.8s0-0.9,0.2-0.9h12.6c0.2,0,0.2,0.9,0.2,0.9s0,0.8-0.2,0.8h-3.4l8.7,12l9.1-12l-3.2,0
			c-0.5,0-0.4-0.8-0.4-0.8s-0.1-0.9,0.3-0.9H818.9z"/>
		<path class="st3" d="M720.2,99.5c2.5,1.6,4.7,2.3,6.4,4.7c3.4,4.6,2.1,14,11.4,12c-0.9,1.2-2.2,1.6-3.4,1.7
			c-10.4,0.9-8.8-13.9-16-17.1c-1.5-0.7-3.7-0.7-5.5-0.4v15.9c0,0,2.8,0,3.3,0c0.5,0,0.4,0.8,0.4,0.8s0,0.8-0.2,0.8l-10.7,0
			c-0.3,0-0.3-0.8-0.3-0.8s0-0.8,0.3-0.8h3.3V84.5c1.1-0.4,2.9-0.4,4-0.1v14c6.9,1,10.9-3.1,10.8-7.9c-0.1-5.9-5.4-10-11.6-9.8
			c-2,0-4.7,1-5.9,1.1c8.6-4.6,22.6-0.2,21.5,9.5C727.4,95.6,723.8,97.7,720.2,99.5z"/>
	</g>
	<path class="st3" d="M349.2,79.8l10.4,28.1L371,79.9l9,36.3l3.2,0c0.3,0,0.4,0.8,0.4,0.8s-0.1,0.8-0.4,0.8l-11,0
		c-0.3,0-0.3-0.8-0.3-0.8s0-0.8,0.3-0.8l3.2,0c0,0-4.2-17.5-6.3-26.3l-10.8,25.9l-9.9-26c0.1-0.4-6.6,26.3-6.6,26.3l3.3,0
		c0.3,0,0.3,0.9,0.3,0.9s-0.1,0.8-0.4,0.8l-8.7,0c-0.3,0-0.3-0.8-0.3-0.8s0-0.8,0.4-0.8c0.5,0,3.1,0,3.1,0S349.2,80,349.2,79.8z"/>
	<path class="st3" d="M541.9,98.5c4.2,1.7,9.1,4,8.1,10.9c-1.3,8.5-14.1,9.6-23.7,7.7l0.7-32.3c0.9-0.3,3.1-0.3,4,0v13.5
		c9,2.6,15.6-7.2,10.4-13.7c-3.9-4.8-14-5-18.9-0.9c1.6-2.3,5.4-3.4,8.9-3.9c7.1-0.9,15.9,2.3,16.1,9.6
		C547.6,93.8,544.7,96.4,541.9,98.5z M545.7,107.3c-0.5-6-8.4-8.4-14.9-6.5l-0.4,15.1C538,118.1,546.3,114.4,545.7,107.3z"/>
	<path class="st3" d="M272.4,79.9c8.9,0,18.8,7.3,18.8,19c0,10.4-7.6,18.9-18.8,18.9c-9.8,0-18.6-8.6-18.6-18.9
		C253.7,88.8,262.3,79.9,272.4,79.9z M258.3,98.8c0,10.3,4.8,17.7,14.1,17.7c11.8,0,14-8.5,14-17.7c0-9.8-6.2-17.6-14-17.6
		C263.9,81.3,258.3,89.2,258.3,98.8z"/>
</g>
<path class="st2" d="M971.6,20.6c4.8,2.1,9.6,5.2,13.1,9.2c2.6,3,4.5,6.6,5.9,10.8c0.5,1.4,1.1,2.8,1.4,4.2c0.3,2.1,0.4,4.6,0.5,6.6
	c0,5.2-1.9,11.9-4.2,15.5c-0.1,0.2-0.3,0.5-0.5,0.7c-0.1,0.1-0.2,0.2-0.3,0.3c0,0,0,0,0,0c0.4-0.4,1-0.6,1.8-0.6
	c0.6,0,1,0.2,1.4,0.4c0.2-0.7,1.2-1.7,1.7-2.3c3.9-5.5,7.4-12.9,6.2-22.2c-1.1-9.1-7.1-15.6-13.2-20c-6.2-4.5-14.2-8.2-23.9-9.1
	c-10-0.9-20.1,0.3-27.8,4.2c3.3-0.7,6.1-1.3,9.3-1.7C954,15.3,964.2,17.4,971.6,20.6z"/>
<path class="st2" d="M1009,96c-0.6-10.2-6.9-17.8-14.3-21.2c-1.1-0.5-2.4-0.8-3.5-1.6c0-0.1,0-0.2,0-0.3c-0.4,0.8-1.2,1.3-2.3,1.3
	c-0.1,0-0.2,0-0.3,0c4.4,0.8,7.3,3.9,9.4,6.8c2.7,3.7,4.7,8.5,4.3,14.6c-0.3,4.5-1.6,8.5-3.5,11.8c-6.1,10.5-19.7,19.2-35.1,14.8
	c-5.8-1.7-8.7-4-13.1-7.1c0.2,0.9,0.6,1.3,1.1,1.9c5.2,4.8,12.6,9.4,22.5,9.4c5.2,0,9.8-0.7,13.5-2c3.9-1.4,7-3.6,10.1-5.8
	c0.1-0.1,0.3,0.3,0.1-0.1c3-2.4,5.7-5.3,7.7-9C1007.7,105.9,1009.4,101.3,1009,96z"/>
</svg>
