<svg xmlns="http://www.w3.org/2000/svg" viewBox="0 0 506.1 506.1">
    <path fill="#FFF" d="M253 506.1C113.6 506.1.1 392.7 0 253.3c-.1-67.6 26.2-131.2 73.9-179C121.7 26.4 185.2.1 252.8 0 392.4 0 506 113.4 506.1 252.8c.1 139.5-113.3 253.1-252.8 253.3h-.3z"/>
    <path d="M252.8 6.3c136.1 0 246.9 110.6 247 246.6.1 136.1-110.5 246.9-246.5 247h-.3C117.1 499.8 6.4 389.2 6.3 253.3c-.1-66 25.5-127.9 72.1-174.6C125 32 186.9 6.3 252.8 6.3m0-6.3C185.2.1 121.7 26.4 73.9 74.3 26.1 122.1-.1 185.7 0 253.3c.1 139.4 113.6 252.8 253 252.8h.2C392.7 506 506.1 392.4 506 252.8 506 113.4 392.4 0 252.8 0z"/>
    <path d="M207.2 97.2v63c0 25.4 20.6 46.1 46.1 46.1s46.1-20.6 46.1-46.1v-63h-92.2zm7.5 73.7l5.9-10.1 5.9 10.1h-11.8zm19.3 0l-9.6-16.7 4.6-7.6 13.9 24.4H234zm16.5 0L232.6 140l4.5-7.7 22.1 38.6h-8.7zm16.4 0l-26.1-45.1 4.4-7.4 30.1 52.5h-8.4zm16.1 0l-34.1-59.2 4.5-7.6 38.3 66.7H283zM115.4 290.2h7.1c11.7 0 13.1-6.9 13.1-24.8s-1.5-24.8-13.1-24.8h-7.1v49.6zm10-62.2c20 0 26.3 10.6 26.3 37.5s-6.2 37.5-26.3 37.5H99.6v-75h25.8zm34.4 0h40.6v12.7h-24.7v16h22.7v13.1h-22.7v20h24.7V303h-40.6v-75zm83.9 45.3l-7.5-31-7.9 31h15.4zm3.1 13.1H225l-4 16.7h-15.7l21.2-75.1h20l20.8 75.1h-16.5l-4-16.7zm25.5-58.4H288v32.6l19.5-32.6h16.4l-21.7 34.5 21.7 40.6h-18.2L288 266.6v36.5h-15.6V228zm58.5 0H346v75.1h-15.2V228zm38.9 25.9v49.2h-13.6V228H375l18.2 46.2V228h13.7v75.1h-17.2l-20-49.2zM123.5 346.5v-25.7c0-.2.2-.4.6-.6s.9-.3 1.4-.4 1.1-.2 1.7-.3c.6-.1 1-.1 1.4-.1.5 0 .9.2 1.2.5.3.4.5.8.5 1.2v25.7c0 2.8-.3 5.1-.9 7-.6 1.9-1.6 3.4-2.8 4.6-1.2 1.2-2.8 2-4.7 2.5-1.9.5-4.2.7-6.7.7h-.5c-2.5 0-4.7-.2-6.6-.7-1.9-.5-3.4-1.3-4.7-2.5-1.3-1.2-2.2-2.7-2.8-4.6-.6-1.9-.9-4.2-.9-7v-26c0-.2.2-.4.6-.6s.9-.3 1.4-.4c.6-.1 1.1-.2 1.7-.3.6-.1 1.1-.1 1.4-.1.5 0 .9.2 1.2.5.3.4.5.8.5 1.2v25.4c0 1.6.1 3 .4 4.2s.7 2.1 1.3 2.8c.6.7 1.5 1.3 2.5 1.6 1.1.3 2.4.5 4 .5h.5c1.6 0 3-.2 4.1-.5 1.1-.3 1.9-.9 2.6-1.6.6-.7 1.1-1.7 1.4-2.8.1-1.2.2-2.6.2-4.2zM162.9 349.1v-28.5c0-.2.2-.4.6-.5.4-.1.9-.2 1.5-.3.6-.1 1.1-.1 1.7-.2.6 0 1.1-.1 1.4-.1 1 0 1.5.6 1.5 1.7v39.1c0 .5-.2.8-.5 1.1-.4.3-.7.4-1.2.4h-1.2c-.5 0-1-.1-1.5-.2s-1-.2-1.4-.3c-.4-.1-.7-.3-.9-.5l-18.5-28.4v28c0 .5-.2.8-.5 1.1s-.7.4-1.2.4c-.3 0-.8 0-1.4-.1-.6 0-1.1-.1-1.7-.2-.5-.1-1-.2-1.4-.4s-.6-.4-.6-.6v-39.9c0-.2.2-.4.6-.6.4-.2.9-.3 1.4-.4.5-.1 1.1-.1 1.7-.2.6 0 1-.1 1.4-.1.4 0 .8.1 1.1.4.3.2.5.5.7.8l18.4 28.5zM183.7 360.1c0 .5-.2.8-.5 1.1s-.8.4-1.2.4c-.3 0-.8 0-1.4-.1-.6 0-1.1-.1-1.7-.2-.5-.1-1-.2-1.4-.4s-.6-.4-.6-.6v-39.9c0-.2.2-.4.6-.6.4-.2.9-.3 1.4-.4.6-.1 1.1-.1 1.7-.2.6 0 1-.1 1.4-.1.5 0 .9.2 1.2.5.3.3.5.7.5 1.1v39.4zM205.7 350.1l8.6-29.5c.5-.5 1.1-.9 1.8-1 .7-.1 1.5-.2 2.4-.2.4 0 .8 0 1.2.1.4 0 .7.1 1 .3.3.1.5.3.6.6.1.2.1.6 0 1.1l-13.1 39.4c-.1.3-.3.5-.6.7-.3.2-.7.2-1 .2-1.2 0-2.3-.1-3.2-.2s-1.4-.3-1.6-.7l-13.2-39.5c-.1-.4-.1-.7 0-.9.1-.2.3-.4.5-.6.2-.2.5-.3.8-.3.3-.1.5-.1.7-.1.6 0 1.1 0 1.7.1.6 0 1.1.1 1.6.2s.9.2 1.3.4c.3.2.6.4.7.7l8.8 29.2c.2.5.3.9.3 1.4.1.5.1 1 .2 1.4 0-.4.1-.9.1-1.4.2-.5.3-1 .4-1.4zM226.6 359.9v-38.3c0-.5.2-.9.5-1.1.3-.2.8-.4 1.2-.4h22.8c.4 0 .8.2 1.1.5.3.3.4.7.4 1.1 0 .3 0 .7-.1 1.2s-.1 1-.2 1.5-.2.9-.3 1.2c-.2.3-.3.5-.6.5h-18.1v11H249c.4 0 .7.2 1 .5.3.3.4.7.4 1.1 0 .3 0 .7-.1 1.2 0 .5-.1 1-.2 1.5s-.2.9-.3 1.2c-.2.3-.3.5-.6.5h-15.9v11.7H251c.4 0 .8.2 1.1.5.3.3.4.7.4 1.2 0 .3 0 .7-.1 1.2 0 .5-.1 1-.2 1.5s-.2.9-.3 1.2c-.2.3-.3.5-.6.5H229c-.5 0-1.1-.1-1.7-.4-.4-.1-.7-.4-.7-.6zM259.9 360.5v-38.9c0-.4.2-.8.5-1.1.3-.3.8-.4 1.2-.4h12.5c2.6 0 4.8.2 6.7.6 1.8.4 3.3 1 4.5 2 1.2.9 2 2.2 2.6 3.8.5 1.6.8 3.6.8 6v1.2c0 1.8-.1 3.3-.4 4.7s-.7 2.5-1.3 3.4c-.6.9-1.4 1.7-2.4 2.3-1 .6-2.2 1-3.6 1.3l7.9 13.6c.4.7.6 1.3.6 1.6 0 .2-.1.4-.3.6-.2.2-.4.3-.6.3-.2.1-.5.1-.7.1h-.5c-.3 0-.8 0-1.3-.1-.5 0-1.1-.1-1.6-.2s-1-.2-1.5-.4c-.4-.2-.7-.5-.9-.8l-8.4-14.3h-7v14.3c0 .5-.2.8-.5 1.1-.3.3-.7.4-1.2.4-.3 0-.8 0-1.4-.1-.6 0-1.1-.1-1.7-.2-.5-.1-1-.2-1.4-.4-.4 0-.6-.2-.6-.4zm14.7-34.4h-7.9v13.7h7.9c1.6 0 2.8-.1 3.7-.3.9-.2 1.6-.5 2.2-.9.5-.5.9-1.1 1-1.9.2-.8.3-1.8.3-3.1v-1.2c0-1.3-.1-2.3-.3-3.2-.2-.8-.5-1.4-1-1.9s-1.2-.8-2.2-.9c-.9-.2-2.2-.3-3.7-.3zM296.4 354.7c.3.1.8.2 1.4.3.6.2 1.3.3 2.2.5.8.2 1.7.3 2.7.4 1 .1 1.9.2 2.9.2 1.1 0 2.1-.1 3-.3 1-.2 1.8-.5 2.6-.9s1.4-.9 1.8-1.6c.5-.7.7-1.5.7-2.5 0-1.4-.4-2.5-1.3-3.5-.9-.9-2-1.8-3.4-2.7-1.3-.8-2.8-1.7-4.4-2.5-1.6-.9-3-1.8-4.4-3-1.3-1.1-2.5-2.4-3.4-4-.9-1.5-1.3-3.4-1.3-5.6 0-1.9.3-3.4 1-4.7.7-1.3 1.6-2.3 2.8-3.2 1.2-.8 2.6-1.4 4.2-1.8 1.6-.4 3.4-.6 5.4-.6.4 0 1.1 0 1.9.1.9 0 1.8.1 2.7.2.9.1 1.9.2 2.8.4.9.2 1.7.4 2.2.6.5.2.9.5 1 .7.1.3.1.7.1 1.3-.1 1-.3 1.8-.6 2.5s-.8.9-1.4.8c-.9-.2-2-.4-3.2-.6-1.2-.2-2.6-.3-4.1-.3-2.4 0-4.3.3-5.7 1-1.5.7-2.2 1.8-2.2 3.4 0 1.3.4 2.3 1.3 3.2.9.9 2 1.7 3.4 2.6 1.3.8 2.8 1.6 4.4 2.5 1.6.9 3 1.9 4.4 3 1.3 1.2 2.5 2.5 3.4 4.2.9 1.6 1.3 3.6 1.3 5.9 0 2.2-.4 3.9-1.2 5.3-.8 1.4-1.9 2.5-3.2 3.3-1.3.8-2.9 1.3-4.7 1.6-1.8.3-3.6.5-5.5.5-.9 0-1.8 0-2.7-.1-.9-.1-1.9-.1-2.8-.3-.9-.1-1.8-.2-2.6-.4s-1.5-.3-2.1-.5c-.6-.2-.9-.4-1-.7-.1-.2-.1-.7-.1-1.3.1-1.1.3-2 .6-2.8.1-.4.5-.7 1.1-.6zM334.5 360.1c0 .5-.2.8-.5 1.1-.3.3-.8.4-1.2.4-.3 0-.8 0-1.4-.1-.6 0-1.1-.1-1.7-.2-.5-.1-1-.2-1.4-.4s-.6-.4-.6-.6v-39.9c0-.2.2-.4.6-.6.4-.2.9-.3 1.4-.4.6-.1 1.1-.1 1.7-.2.6 0 1-.1 1.4-.1.5 0 .9.2 1.2.5.3.3.5.7.5 1.1v39.4zM358.9 326.2v33.9c0 .5-.2.8-.5 1.1-.4.3-.8.4-1.2.4-.3 0-.8 0-1.4-.1-.6 0-1.1-.1-1.7-.2-.5-.1-1-.2-1.4-.4s-.6-.4-.6-.6V326h-10.5c-.4 0-.8-.2-1.1-.5-.3-.3-.4-.7-.4-1.2 0-.3 0-.7.1-1.2 0-.5.1-1 .2-1.5s.2-.9.3-1.3c.2-.3.3-.5.6-.5h28c.4 0 .8.2 1.1.5.3.3.4.7.4 1.2 0 .3 0 .7-.1 1.2 0 .5-.1 1-.2 1.5s-.2.9-.3 1.2c-.2.3-.3.5-.6.5h-10.7zM395.1 346v14.2c0 .5-.2.8-.5 1.1s-.8.4-1.2.4c-.3 0-.8 0-1.3-.1-.6 0-1.1-.1-1.7-.2-.5-.1-1-.2-1.4-.4s-.6-.4-.6-.6V346L376 321.8c-.4-.8-.5-1.4-.2-1.8.3-.4.9-.6 1.8-.6h1.6c.5 0 1.1.1 1.5.1.5.1.9.2 1.2.3.3.1.6.3.7.5l9.1 18.6 9.1-18.5c.1-.2.3-.4.7-.5.3-.1.7-.2 1.2-.3.5-.1 1-.1 1.5-.1h1.6c.9 0 1.4.2 1.7.5.3.4.2 1-.2 1.9L395.1 346z"/>
</svg>
