<?xml version="1.0" encoding="utf-8"?>
<!-- Generator: Adobe Illustrator 20.0.0, SVG Export Plug-In . SVG Version: 6.00 Build 0)  -->
<svg version="1.1" id="Layer_1" xmlns="http://www.w3.org/2000/svg" xmlns:xlink="http://www.w3.org/1999/xlink" x="0px" y="0px"
	 viewBox="0 0 449.7 499.7" style="enable-background:new 0 0 449.7 499.7;" xml:space="preserve">
<style type="text/css">
	.st0{fill:#020203;}
	.st1{fill:#8DC04D;}
	.st2{fill:#C7133F;}
</style>
<g>
	<path class="st0" d="M13.1,461.3v21.5H0v-56.2h21.6c6.5,0,11.7,1.5,15.5,4.5c3.8,3,5.7,7.1,5.7,12.4c0,2.9-0.8,5.4-2.3,7.5
		c-1.5,2.1-3.8,3.8-6.8,5.1c3.4,1,5.9,2.6,7.4,4.9c1.5,2.3,2.3,5.1,2.3,8.5v3.6c0,1.5,0.2,3.1,0.7,5c0.4,1.9,1.2,3.2,2.3,4v0.8H32.9
		c-1-0.8-1.7-2.2-2-4.2c-0.3-2-0.5-3.9-0.5-5.6v-3.4c0-2.7-0.7-4.7-2.1-6.1c-1.4-1.4-3.5-2.1-6.2-2.1H13.1z M13.1,451.3h8.6
		c2.6,0,4.6-0.6,6-1.8c1.4-1.2,2.1-2.9,2.1-5.2c0-2.3-0.7-4.1-2.1-5.5c-1.4-1.4-3.4-2.1-6-2.1h-8.5V451.3z"/>
	<path class="st0" d="M75.5,482.8c-0.4-0.7-0.7-1.4-1-2.2c-0.3-0.8-0.5-1.7-0.8-2.5c-1.2,1.7-2.7,3.1-4.5,4.1
		c-1.8,1-3.9,1.5-6.4,1.5c-4,0-7.2-1.1-9.7-3.4c-2.5-2.3-3.7-5.3-3.7-9.2c0-4.1,1.6-7.3,4.7-9.6c3.1-2.3,7.8-3.4,14.2-3.4h4.7v-3
		c0-1.8-0.4-3.1-1.3-4.1c-0.8-1-2.1-1.4-3.9-1.4c-1.5,0-2.6,0.4-3.3,1.1c-0.7,0.7-1.1,1.8-1.1,3.3l-12.6,0l-0.1-0.2
		c-0.2-3.8,1.4-7,4.7-9.6c3.3-2.6,7.8-3.8,13.3-3.8c5.1,0,9.3,1.3,12.5,3.9c3.2,2.6,4.8,6.3,4.8,11V471c0,2.2,0.2,4.3,0.6,6.2
		c0.4,1.9,0.9,3.8,1.7,5.7L75.5,482.8z M66.9,474.4c1.3,0,2.5-0.3,3.6-0.8c1.1-0.5,2-1.2,2.6-2V465h-4.6c-2.1,0-3.6,0.5-4.5,1.5
		c-0.9,1-1.4,2.3-1.4,3.8c0,1.2,0.4,2.1,1.2,2.9C64.6,474,65.6,474.4,66.9,474.4z"/>
	<path class="st0" d="M115.2,471.1c0-1-0.6-1.9-1.8-2.8c-1.2-0.8-3.3-1.5-6.4-2.2c-4.9-1-8.5-2.4-11-4.4c-2.5-2-3.7-4.7-3.7-8.2
		c0-3.7,1.5-6.8,4.6-9.4c3.1-2.6,7.3-3.8,12.5-3.8c5.6,0,10,1.2,13.3,3.7c3.3,2.5,4.9,5.7,4.7,9.6l-0.1,0.2h-12.7
		c0-1.6-0.4-2.9-1.3-3.7c-0.8-0.8-2.2-1.3-4-1.3c-1.4,0-2.5,0.4-3.4,1.1c-0.9,0.7-1.4,1.7-1.4,2.9c0,1.1,0.5,2,1.6,2.8
		s3.2,1.5,6.5,2.1c5.1,1,8.9,2.5,11.3,4.5c2.5,2,3.7,4.8,3.7,8.5c0,3.8-1.7,6.9-5,9.3c-3.3,2.4-7.7,3.6-13.2,3.6
		c-5.7,0-10.2-1.4-13.5-4.3c-3.3-2.9-4.9-6.1-4.7-9.7l0.1-0.2h11.8c0.1,2,0.6,3.4,1.8,4.3c1.1,0.9,2.8,1.3,4.9,1.3
		c1.8,0,3.1-0.3,4-1C114.8,473.3,115.2,472.4,115.2,471.1z"/>
	<path class="st0" d="M172.6,462.8c0,6.3-1.4,11.3-4.2,15.1c-2.8,3.8-6.8,5.7-12,5.7c-2,0-3.8-0.4-5.3-1.2c-1.6-0.8-2.9-1.9-4.1-3.4
		v19.8h-13.1v-57.8h12.2l0.5,4.6c1.2-1.7,2.6-3.1,4.2-4c1.6-0.9,3.4-1.4,5.6-1.4c5.2,0,9.2,2,12,6c2.8,4,4.3,9.2,4.3,15.8V462.8z
		 M159.6,462c0-3.5-0.5-6.4-1.5-8.5c-1-2.1-2.7-3.2-4.9-3.2c-1.5,0-2.7,0.3-3.7,0.8c-1,0.5-1.8,1.3-2.4,2.4V471
		c0.6,0.9,1.4,1.6,2.5,2c1,0.4,2.3,0.7,3.8,0.7c2.3,0,3.9-0.9,4.9-2.8c1-1.9,1.5-4.5,1.5-7.9V462z"/>
	<path class="st0" d="M217.1,462.8c0,6.4-1.4,11.4-4.1,15.2c-2.7,3.8-6.8,5.6-12.1,5.6c-2.3,0-4.3-0.5-6-1.5c-1.7-1-3.1-2.4-4.3-4.3
		l-0.8,4.9h-11.3v-60.2h13.1v22.5c1.2-1.5,2.5-2.7,4-3.6c1.5-0.8,3.3-1.3,5.3-1.3c5.4,0,9.4,2,12.2,5.9c2.7,3.9,4.1,9.2,4.1,15.8
		V462.8z M204,462c0-3.7-0.5-6.6-1.4-8.6c-0.9-2-2.7-3.1-5.2-3.1c-1.4,0-2.6,0.3-3.6,0.8c-1,0.5-1.8,1.3-2.4,2.3V471
		c0.6,0.9,1.4,1.6,2.4,2c1,0.4,2.2,0.7,3.7,0.7c2.6,0,4.3-0.9,5.2-2.7c0.9-1.8,1.3-4.5,1.3-8.1V462z"/>
	<path class="st0" d="M241.9,483.7c-6.2,0-11.1-1.9-14.7-5.8c-3.7-3.9-5.5-8.7-5.5-14.5v-1.5c0-6.4,1.7-11.6,5-15.6
		c3.3-4,8.1-6,14.3-6c5.7,0,10.1,1.7,13.3,5.1c3.2,3.4,4.8,8,4.8,13.8v6.8h-23.9l-0.1,0.2c0.3,2.1,1.2,3.9,2.6,5.3s3.4,2.1,5.9,2.1
		c2.5,0,4.4-0.2,5.9-0.6c1.5-0.4,3.4-1.1,5.6-2l3.1,8c-1.8,1.3-4.2,2.5-7.1,3.3C248.3,483.2,245.2,483.7,241.9,483.7z M241,450.3
		c-1.9,0-3.3,0.7-4.2,2c-0.9,1.3-1.5,3.1-1.7,5.4l0.1,0.2h11.2v-1c0-2.1-0.4-3.7-1.3-4.9C244.2,450.9,242.8,450.3,241,450.3z"/>
	<path class="st0" d="M288.2,452.6l-4.7,0c-1.5,0-2.7,0.3-3.7,0.8c-1,0.5-1.7,1.2-2.1,2.1v27.4h-13.1v-41.8h12.3l0.5,6.1
		c0.9-2.2,2-3.9,3.5-5.1c1.4-1.2,3.1-1.8,5.1-1.8c0.6,0,1.2,0,1.9,0.1c0.6,0.1,1.2,0.2,1.7,0.3L288.2,452.6z"/>
	<path class="st0" d="M317.5,452.6l-4.7,0c-1.5,0-2.7,0.3-3.7,0.8c-1,0.5-1.7,1.2-2.1,2.1v27.4h-13.1v-41.8h12.3l0.5,6.1
		c0.9-2.2,2-3.9,3.5-5.1c1.4-1.2,3.1-1.8,5.1-1.8c0.6,0,1.2,0,1.9,0.1c0.6,0.1,1.2,0.2,1.7,0.3L317.5,452.6z"/>
	<path class="st0" d="M340,464.4l0,0.3h0.2l6.9-23.7h13.9l-16.6,48c-1.3,3.1-2.9,5.6-5,7.6c-2,2-5.3,3-9.7,3c-1.1,0-2.1-0.1-2.8-0.2
		c-0.7-0.1-1.9-0.4-3.4-0.8l1.6-9.3c0.4,0.1,0.6,0.1,0.8,0.2c0.2,0,0.4,0.1,0.7,0.1c2.1,0,3.6-0.3,4.5-0.9c1-0.6,1.7-1.5,2.1-2.7
		l1-2.7l-14.4-42.2h13.9L340,464.4z"/>
	<path class="st0" d="M397.9,463.6v19.3h-13.1v-56.2h22.8c6.7,0,12,1.7,15.9,5.1c3.9,3.4,5.9,7.9,5.9,13.4c0,5.5-2,10-5.9,13.4
		c-3.9,3.4-9.2,5.1-15.9,5.1H397.9z M397.9,453.5h9.7c2.8,0,5-0.8,6.5-2.3c1.5-1.6,2.2-3.6,2.2-6c0-2.5-0.7-4.5-2.2-6.1
		c-1.5-1.6-3.6-2.4-6.5-2.4h-9.7V453.5z"/>
	<path class="st0" d="M449.7,431.4h-13.1v-8.8h13.1V431.4z M449.7,482.8h-13.1v-41.8h13.1V482.8z"/>
</g>
<path class="st0" d="M143.2,0c-2,0.1-4.2,0.8-6.6,2.7c-6-2.3-11.9-3.1-17.1,1.6c-8.1-1-10.7,1.1-12.7,3.6c-1.8,0-13.2-1.8-18.5,5.9
	C75.1,12.3,71,21.5,75.7,30c-2.7,4.1-5.5,8.2,0.8,16c-2.2,4.4-0.8,9.1,4.4,14.8c-1.4,6.1,1.3,10.5,6.2,13.9
	c-0.9,8.4,7.8,13.3,10.4,15c1,4.9,3.1,9.5,13.1,12.1c1.6,7.3,7.6,8.6,13.5,10.1c-19.2,11-35.7,25.5-35.6,61l-2.8,4.9
	c-22,13.2-41.8,55.6-10.9,90.1c2,10.8,5.4,18.5,8.4,27.1c4.5,34.6,34,50.7,41.8,52.7c11.4,8.6,23.5,16.7,40,22.4
	c15.5,15.7,32.3,21.7,49.2,21.7c0.2,0,0.5,0,0.7,0c16.9,0,33.7-6,49.2-21.7c16.4-5.7,28.6-13.8,40-22.4c7.8-1.9,37.3-18.1,41.8-52.7
	c3-8.6,6.4-16.3,8.4-27.1c31-34.5,11.2-76.9-10.9-90.1l-2.8-4.9c0.1-35.5-16.4-50-35.6-61c5.8-1.5,11.8-2.8,13.5-10.1
	c10-2.6,12.1-7.2,13.1-12.1c2.6-1.7,11.4-6.6,10.4-15c4.9-3.4,7.6-7.7,6.2-13.9c5.3-5.7,6.6-10.5,4.4-14.8c6.3-7.8,3.5-11.9,0.8-16
	c4.7-8.6,0.6-17.8-12.7-16.2c-5.3-7.7-16.7-6-18.5-5.9c-2-2.5-4.6-4.6-12.7-3.6c-5.2-4.7-11.1-3.9-17.1-1.6
	c-7.1-5.6-11.9-1.1-17.3,0.6c-8.7-2.8-10.6,1-14.9,2.6c-9.4-2-12.3,2.3-16.8,6.8l-5.3-0.1c-14.2,8.3-21.3,25.1-23.8,33.7
	c-2.5-8.7-9.6-25.5-23.8-33.7l-5.3,0.1c-4.5-4.5-7.4-8.8-16.8-6.8c-4.3-1.6-6.2-5.4-14.9-2.6C150.3,2.2,147.1-0.1,143.2,0L143.2,0z"
	/>
<path class="st1" d="M114.9,36.4c37.8,19.2,59.7,34.7,71.7,47.9c-6.2,24.3-38.3,25.4-50,24.7c2.4-1.1,4.4-2.4,5.1-4.5
	c-2.9-2.1-13.4-0.2-20.7-4.3c2.8-0.6,4.1-1.1,5.4-3.2c-6.9-2.2-14.3-4-18.7-7.6c2.4,0,4.6,0.5,7.6-1.6c-6.2-3.3-12.8-5.9-17.9-10.9
	c3.2-0.1,6.6,0,7.6-1.2c-5.7-3.4-10.4-7.3-14.4-11.5c4.5,0.5,6.4,0.1,7.4-0.7c-4.3-4.3-9.7-8-12.3-13.3c3.3,1.1,6.4,1.6,8.5-0.1
	c-1.5-3.2-7.7-5.1-11.3-12.7c3.5,0.3,7.2,0.7,7.9,0c-1.6-6.5-4.4-10.2-7.1-14c7.5-0.1,18.8,0,18.3-0.6l-4.6-4.7
	c7.3-1.9,14.8,0.3,20.2,2c2.4-1.9,0-4.3-3-6.7c6.2,0.8,11.8,2.2,16.9,4.2c2.7-2.4-1.8-4.8-3.9-7.2c9.6,1.8,13.6,4.3,17.7,6.8
	c2.9-2.8,0.2-5.1-1.8-7.5c7.2,2.6,11,6,14.9,9.4c1.3-1.8,3.4-3.1,0.9-7.3c5.1,2.9,9,6.3,11.9,10.2c3.2-2,1.9-4.7,1.9-7.2
	c5.3,4.3,8.7,8.8,12.9,13.3c0.8-0.6,1.6-2.6,2.2-5.8c12.7,12.2,30.7,42.8,4.6,54.9C170.8,59.3,144.3,46.2,114.9,36.4L114.9,36.4z"/>
<path class="st1" d="M315.3,36.4c-37.8,19.2-59.7,34.7-71.7,47.9c6.2,24.3,38.3,25.4,50,24.7c-2.4-1.1-4.4-2.4-5.1-4.5
	c2.9-2.1,13.4-0.2,20.7-4.3c-2.8-0.6-4.1-1.1-5.4-3.2c6.9-2.2,14.3-4,18.7-7.6c-2.4,0-4.6,0.5-7.6-1.6c6.2-3.3,12.8-5.9,17.9-10.9
	c-3.2-0.1-6.6,0-7.6-1.2c5.7-3.4,10.4-7.3,14.4-11.5c-4.5,0.5-6.4,0.1-7.4-0.7c4.3-4.3,9.7-8,12.3-13.3c-3.3,1.1-6.4,1.6-8.5-0.1
	c1.5-3.2,7.7-5.1,11.3-12.7c-3.5,0.3-7.2,0.7-7.9,0c1.6-6.5,4.4-10.2,7.1-14c-7.5-0.1-18.8,0-18.3-0.6l4.6-4.7
	c-7.3-1.9-14.8,0.3-20.2,2c-2.4-1.9,0-4.3,3-6.7c-6.2,0.8-11.8,2.2-16.9,4.2c-2.7-2.4,1.8-4.8,3.9-7.2c-9.6,1.8-13.6,4.3-17.7,6.8
	c-2.9-2.8-0.2-5.1,1.8-7.5c-7.2,2.6-11,6-14.9,9.4c-1.3-1.8-3.4-3.1-0.9-7.3c-5.1,2.9-9,6.3-11.9,10.2c-3.2-2-1.9-4.7-1.9-7.2
	c-5.3,4.3-8.7,8.8-12.9,13.3c-0.8-0.6-1.6-2.6-2.2-5.8c-12.7,12.2-30.7,42.8-4.6,54.9C259.4,59.3,285.9,46.2,315.3,36.4L315.3,36.4z
	"/>
<g>
	<path class="st2" d="M262.8,284c0.1,22.7-20,41.2-45,41.3c-25,0.1-45.3-18.2-45.5-40.9c0-0.1,0-0.3,0-0.4
		c-0.1-22.7,20-41.2,45-41.3c25-0.1,45.3,18.2,45.5,40.9C262.8,283.7,262.8,283.8,262.8,284z"/>
	<path class="st2" d="M191.4,166.6c18.7,12.1,22.1,39.5,7.5,61.2c-14.6,21.7-41.6,29.5-60.3,17.4l0,0c-18.7-12.1-22.1-39.5-7.5-61.2
		C145.7,162.3,172.7,154.5,191.4,166.6L191.4,166.6z"/>
	<path class="st2" d="M242,164.4c-18.7,12.1-22.1,39.5-7.5,61.2c14.6,21.7,41.6,29.5,60.3,17.4l0,0c18.7-12.1,22.1-39.5,7.5-61.2
		C287.8,160.1,260.7,152.3,242,164.4L242,164.4z"/>
	<path class="st2" d="M97.7,186.4c20.2-5.3,6.8,82.5-9.6,75.3C70,247.3,64.1,205.3,97.7,186.4z"/>
	<path class="st2" d="M331.6,185.3c-20.2-5.3-6.8,82.5,9.6,75.3C359.3,246.2,365.2,204.2,331.6,185.3L331.6,185.3z"/>
	<path class="st2" d="M262.8,119.9c34.9-5.8,64,14.6,62.8,51.9C324.5,186.1,250,122,262.8,119.9z"/>
	<path class="st2" d="M166.3,118.8c-34.9-5.8-64,14.6-62.8,51.9C104.7,185,179.2,120.9,166.3,118.8z"/>
	<path class="st2" d="M216.5,110.1c-20.8-0.5-40.8,15.2-40.9,24.4c-0.1,11.1,16.5,22.5,41,22.8c25.1,0.2,41.1-9.1,41.2-20.6
		C257.9,123.7,235,109.9,216.5,110.1L216.5,110.1z"/>
	<path class="st2" d="M217.8,338c18.2-0.8,42.6,5.8,42.6,14.4c0.3,8.4-22.1,27.5-43.8,27.1c-22.5,1-44.5-18.1-44.2-24.7
		C172,345.2,199.7,337.6,217.8,338L217.8,338z"/>
	<path class="st2" d="M150.7,286.6c12.9,15.4,18.8,42.3,8,50.3c-10.2,6.1-35,3.6-52.7-21.4c-11.9-20.9-10.4-42.2-2-48.5
		C116.5,259.5,135.8,269.6,150.7,286.6L150.7,286.6z"/>
	<path class="st2" d="M282.3,281.7c-14,16.2-21.8,45.6-11.6,55.1c9.8,7.4,36,6.3,55.3-20.1c14.1-17.8,9.3-47.5,1.3-55.3
		C315.5,252.2,298.3,263.9,282.3,281.7L282.3,281.7z"/>
</g>
</svg>
