<svg height="32" viewBox="0 0 113 32" width="113" xmlns="http://www.w3.org/2000/svg"><path d="m6.68 4.38 4.122 11.365 4.319-11.365h6.131l-10.484 26.318h-6.064l3.101-8.155-7.453-18.163zm64.757-.403c5.536 0 9.573 4.296 9.573 10.176s-4.037 10.177-9.573 10.177c-2.043 0-3.763-.541-5.076-1.584l-.085-.069-.073-.06v8.075h-5.908v-26.312h5.224v1.967l.03-.034c1.287-1.468 3.234-2.28 5.64-2.333l.127-.002h.121zm-39.424 0c6.096 0 10.417 4.212 10.417 10.176 0 5.939-4.335 10.177-10.417 10.177-6.116 0-10.458-4.232-10.458-10.177 0-5.97 4.327-10.176 10.458-10.176zm20.26-3.927v4.33h4.86v5.103h-4.86v7.044c0 1.576.765 2.443 2.159 2.496l.068.001.069.001c.945 0 1.661-.248 2.302-.864l.06-.059.159-.163h.044v5.629l-.181.087c-.973.465-1.572.675-3.23.675-4.684 0-7.256-2.55-7.356-7.312l-.002-.145v-.145l-.001-7.245h-2.138v-5.103h2.299v-4.33h5.747zm41.647 3.927c6.096 0 10.417 4.212 10.417 10.176 0 5.939-4.335 10.177-10.417 10.177-6.116 0-10.458-4.232-10.458-10.177 0-5.97 4.328-10.176 10.458-10.176zm15.233 13.878c1.788 0 3.237 1.45 3.237 3.237 0 1.788-1.45 3.238-3.237 3.238-1.788 0-3.237-1.45-3.237-3.238s1.45-3.237 3.237-3.237zm-38.601-8.573c-2.662 0-4.47 1.97-4.47 4.871 0 2.902 1.808 4.872 4.47 4.872 2.696 0 4.51-1.964 4.51-4.872 0-2.907-1.814-4.871-4.51-4.871zm-38.54 0c-2.67 0-4.509 1.98-4.509 4.871 0 2.892 1.839 4.872 4.51 4.872 2.636 0 4.47-1.986 4.47-4.872 0-2.885-1.834-4.871-4.47-4.871zm61.908 0c-2.67 0-4.51 1.98-4.51 4.871 0 2.892 1.84 4.872 4.51 4.872 2.636 0 4.47-1.986 4.47-4.872 0-2.885-1.834-4.871-4.47-4.871z" fill="#0042e4" fill-rule="evenodd" transform="translate(0 .5)"/></svg>